<?xml version="1.0" encoding="UTF-8" standalone="no"?>
<!-- Generator: Adobe Illustrator 18.1.1, SVG Export Plug-In . SVG Version: 6.00 Build 0)  -->
<svg xmlns:dc="http://purl.org/dc/elements/1.1/" xmlns:cc="http://creativecommons.org/ns#" xmlns:rdf="http://www.w3.org/1999/02/22-rdf-syntax-ns#" xmlns:svg="http://www.w3.org/2000/svg" xmlns="http://www.w3.org/2000/svg" xmlns:sodipodi="http://sodipodi.sourceforge.net/DTD/sodipodi-0.dtd" xmlns:inkscape="http://www.inkscape.org/namespaces/inkscape" version="1.1" id="Layer_1" x="0px" y="0px" enable-background="new 0 0 1417.3 1275.6" xml:space="preserve" inkscape:version="0.92.3 (unknown)" sodipodi:docname="mus_musculus.brain.svg" width="142.0164" height="81.638588" viewBox="0 0 142.0164 81.638588" preserveAspectRatio="none">
  <metadata id="metadata">
    <rdf:RDF>
      <cc:Work rdf:about="">
        <dc:format>image/svg+xml</dc:format>
        <dc:type rdf:resource="http://purl.org/dc/dcmitype/StillImage"/>
        <dc:title/>
      </cc:Work>
    </rdf:RDF>
  </metadata>
  <defs id="defs16264"/>
  <sodipodi:namedview pagecolor="#ffffff" bordercolor="#666666" borderopacity="1" objecttolerance="10" gridtolerance="10" guidetolerance="10" inkscape:pageopacity="0" inkscape:pageshadow="2" inkscape:window-width="3375" inkscape:window-height="1416" id="namedview16262" showgrid="false" inkscape:zoom="7.2407734" inkscape:cx="68.194365" inkscape:cy="34.194067" inkscape:window-x="65" inkscape:window-y="24" inkscape:window-maximized="1" inkscape:current-layer="LAYER_EFO" fit-margin-top="0" fit-margin-left="0" fit-margin-right="0" fit-margin-bottom="0"/>
  <g inkscape:label="EFO" id="container" inkscape:groupmode="layer" label="EFO" groupmode="layer">
    <g id="g892" style="fill:#88fafa;fill-opacity:1">
      <path id="path888" d="M 74.171769,3.9516602e-6 70.365813,0.46734595 l -0.06465,0.014788 c 0,0 -0.511921,0.116377 -1.13571,0.293658 C 68.541664,0.95307195 67.827351,1.162785 67.192517,1.503338 66.739728,1.746237 66.412379,2.032465 66.116634,2.285565 65.933839,2.442006 65.885843,2.490237 65.792422,2.576649 65.693524,2.618651 65.594268,2.6637 65.341484,2.755802 64.99168,2.883256 64.52464,2.997558 64.483028,3.000893 64.297624,3.015747 63.670252,2.707 62.54869,2.696943 61.013903,2.683175 58.770714,3.17104 58.770714,3.17104 l -6.834514,1.339305 -6.055505,0.73752 -7.852825,0.372457 -0.0039,3.29e-4 c 0,0 -3.705272,0.171995 -5.610355,0.547108 -1.556804,0.306537 -3.764468,1.274658 -3.764468,1.274658 l -0.105175,0.043742 -0.09617,0.061754 c 0,0 -0.408097,0.261325 -0.888368,0.614332 -0.480272,0.353006 -1.025838,0.753475 -1.476646,1.317756 -0.418852,0.524283 -0.584699,1.043515 -0.720151,1.4165 -0.135452,0.372986 -0.240814,0.59998 -0.308451,0.685414 -0.02307,0.02914 -0.357188,0.339854 -0.639098,0.551289 -0.105271,0.07895 -0.110956,0.07884 -0.193628,0.137018 l -0.728191,-0.02798 -1.536792,-0.542927 -2.885749,-0.944976 -2.987385,-0.279184 -2.282675,0.338365 -2.384955,0.650676 -2.1964768,1.051119 -2.3704817,0.248947 -2.9841692,1.30843 -0.061434,0.03538 c 0,0 -0.4512313,0.258998 -0.9774608,0.621728 -0.5262312,0.362733 -1.1304874,0.774751 -1.6178461,1.435156 -0.39028178,0.528856 -0.54929938,1.02314 -0.71210968,1.475366 -0.1628102,0.452226 -0.27210787,0.832388 -0.27210787,0.832388 l -0.006439,0.02253 -0.005797,0.02251 -0.04889,0.195548 -3.2936e-4,0.0016 c 0,0 -0.0589486,0.236727 -0.10260347,0.534236 -0.04365484,0.297526 -0.10159233,0.655572 -0.01414595,1.157268 0.17248843,0.989624 0.63597022,1.397666 0.65131992,1.438046 0.0477373,0.125584 0.0953181,0.420097 0.1656444,0.836587 0.0703263,0.416491 0.17287868,0.987829 0.57734268,1.554804 0.5105274,0.715663 1.1761942,0.981933 1.5982262,1.17945 0.422032,0.197516 0.6078841,0.333014 0.6230149,0.352842 0.086793,0.114056 0.1365554,0.780316 0.5654429,1.808574 0.4447084,1.0662 1.3672881,2.802118 1.3672881,2.802118 l 0.07655,0.145708 2.6477358,2.925627 1.5876105,1.403958 2.6171802,1.732673 1.616237,0.860697 2.329635,1.007706 2.722355,1.237993 2.962619,0.797657 4.322833,0.610154 2.907299,0.425202 2.370481,0.998698 3.025341,1.076525 1.468282,2.003176 1.457027,2.683746 1.486296,2.129255 2.038871,3.278798 1.639396,2.515856 0.264387,0.155358 c 0,0 0.469161,0.276349 1.068487,0.559334 0.599324,0.282968 1.270002,0.617152 2.154017,0.667066 0.791673,0.04473 1.360943,-0.175564 1.876445,-0.351541 0.34667,-0.118355 0.46315,-0.174395 0.621406,-0.241238 0.108832,-0.0016 0.216498,-0.0059 0.477314,0.01317 0.363804,0.02658 0.811502,0.1754 0.696349,0.109364 -0.04374,-0.02508 0.04536,0.03928 0.213889,0.322277 0.168531,0.283001 0.389729,0.75489 0.916352,1.19521 0.560535,0.468677 1.208419,0.791498 1.777056,1.071058 0.56864,0.279559 1.042434,0.478607 1.042434,0.478607 l 0.0891,0.03763 3.124403,0.799272 3.530957,0.314241 h 4.898889 0.009 c 0,0 0.631513,-0.0081 1.396881,-0.07528 0.765367,-0.06712 1.625669,-0.138677 2.457645,-0.500461 0.304818,-0.132567 0.514403,-0.200628 0.825006,-0.504972 0.02737,-0.02683 0.05517,-0.07452 0.08363,-0.108409 0.06213,0.02752 0.08519,0.03272 0.15503,0.06562 0.23097,0.108787 0.492364,0.239575 0.795736,0.354769 0.303372,0.115176 0.633785,0.293689 1.282697,0.156643 -0.368193,0.07776 0.03317,0.02235 0.433249,0.125436 0.400075,0.103089 0.926061,0.267999 1.466031,0.435824 0.539972,0.167824 1.093161,0.338959 1.611414,0.461217 0.391135,0.09229 0.697558,0.232231 1.180416,0.181098 0.01777,0.0069 0.03822,0.02465 0.05532,0.03022 0.485942,0.158174 0.670226,0.05411 0.816962,0.01581 l 0.05243,0.123839 0.983573,-0.128335 c 0,0 0.557307,-0.07267 1.193926,-0.137985 0.477975,-0.04903 0.8484,-0.06086 1.124129,-0.07236 0.02551,0.03213 0.03219,0.03801 0.06015,0.07397 0.238528,0.306847 0.481099,0.724013 1.075239,1.118651 0.29707,0.197333 0.833479,0.435823 1.451237,0.257003 0.61776,-0.17885 0.963214,-0.66773 1.141498,-1.062384 0.330515,-0.731638 0.412734,-1.587674 0.455121,-2.901502 0.107111,-0.04188 0.218324,-0.07205 0.539066,-0.267604 1.121374,-0.683716 1.590073,-0.954201 1.788316,-1.069773 l 2.859373,0.13283 h 3.983826 3.550575 l 1.638755,0.27951 3.30645,0.615292 0.0965,0.0035 c 0,0 0.43289,0.01581 0.96621,0.0033 0.53332,-0.01252 1.13686,-0.02515 1.76933,-0.19908 0.7608,-0.209242 1.28363,-0.600899 1.69086,-0.873262 0.40723,-0.272363 0.68834,-0.420624 0.8546,-0.453823 0.27622,-0.05518 1.20382,-0.02861 1.94431,0.0701 0.74048,0.09872 1.33416,0.225791 1.33416,0.225791 0.002,0 0.29151,0.06386 0.63716,0.174017 0.29834,0.09507 0.54387,0.233483 0.58732,0.243149 0.0245,0.09612 0.037,0.179797 0.037,0.179797 l 9.9e-4,0.0084 0.33418,2.732014 0.0682,0.16435 c 0,0 0.73698,1.825004 1.29846,2.823674 0.68158,1.21227 2.10288,2.87514 2.10288,2.87514 l 0.0228,0.02765 2.58115,2.80085 2.9861,3.11861 0.0325,0.02991 c 0,0 2.65217,2.41991 3.75996,3.43252 1.23991,1.13341 3.40488,2.78251 3.40488,2.78251 l 0.0476,0.03634 3.30711,2.08134 0.29332,0.03408 c 0,0 0.79664,0.09272 1.669,0.1856 0.87235,0.09288 1.66716,0.19137 2.23313,0.19137 0.82453,0 1.11078,-0.36867 1.39238,-0.62494 0.28162,-0.25629 0.50949,-0.52913 0.71405,-0.79188 0.40911,-0.52551 0.71853,-1.02957 0.71853,-1.02957 l 0.005,-0.0074 0.004,-0.0077 c 0,0 0.21264,-0.35317 0.42682,-0.79702 0.2142,-0.44384 0.50014,-0.87211 0.50014,-1.70919 0,-0.59838 -0.004,-0.9874 0.13671,-2.13472 0.0432,-0.35268 0.21174,-1.17163 0.36731,-1.98644 0.15557,-0.81482 0.31605,-1.59384 0.29623,-2.35569 -0.024,-0.92181 -0.19459,-1.82724 -0.19459,-1.82724 l -0.019,-0.10613 -0.0363,-0.10164 c 0,0 -0.15309,-0.42884 -0.3673,-0.93983 -0.21423,-0.511 -0.44404,-1.07532 -0.83787,-1.60692 v 0 c -0.67789,-0.91501 -2.00639,-2.55317 -2.00639,-2.55317 l -0.0212,-0.02606 -2.64516,-2.942997 c -0.0501,-0.06674 -1.26019,-1.676271 -2.05721,-2.463751 -1.33059,-1.314651 -3.30229,-3.671229 -3.31545,-3.686956 l -3.39491,-4.33054 -2.60077,-3.778304 -2.16592,-2.87675 -1.89735,-1.588563 -0.81375,-0.302664 c 0.28605,-0.189019 0.59054,-0.455734 0.8472,-0.914432 0.63454,-1.133998 0.80162,-2.392642 0.75038,-3.541248 -0.0294,-0.657597 -0.21845,-1.155555 -0.37792,-1.605294 -0.15725,-0.443448 -0.30675,-0.785619 -0.31103,-0.795418 -0.001,-0.0026 -0.20814,-0.492984 -0.51398,-1.069131 -0.28489,-0.53669 -0.60548,-1.141343 -1.17302,-1.678626 5e-4,-0.014 0.0112,0.01564 0.002,-0.05018 -0.0249,-0.171926 -0.11282,-0.561475 -0.32904,-0.947236 -0.0222,-0.09471 -0.0453,-0.187817 -0.0791,-0.253771 0.0592,-0.16873 0.20487,-0.538584 0.18623,-1.078781 -0.0733,-2.125385 -1.09937,-4.666667 -1.09937,-4.666667 l -0.0212,-0.05757 -1.22738,-2.541908 c -0.0378,-0.09935 -1.22798,-3.222445 -2.25437,-5.021751 -0.41385,-0.725508 -1.02137,-1.435247 -1.55416,-2.039837 -0.53279,-0.604589 -0.98743,-1.071058 -0.98743,-1.071058 l -0.0135,-0.01383 -2.70724,-2.616215 -2.91791,-2.200012 -0.0785,-0.043744 c 0,0 -0.71793,-0.39998 -1.63167,-0.834654 C 103.23637,7.586435 102.17007,7.101893 101.13378,6.914026 99.540241,6.625134 98.278676,7.071134 97.429141,7.043647 96.753174,7.021774 95.235588,6.815798 94.965706,6.778938 L 93.951255,6.317706 91.471738,4.485006 C 91.409994,4.426369 91.071672,4.103265 90.552814,3.658714 89.989209,3.175824 89.332662,2.626853 88.628124,2.251543 87.470151,1.634682 85.913581,1.163218 84.577076,0.79258595 c -1.336503,-0.370633 -2.431271,-0.611437 -2.431271,-0.611437 L 82.034518,0.15638295 78.378765,7.0995166e-4 h -4.207364 z" style="fill:#88fafa;fill-opacity:1;stroke:#000000;stroke-width:0.21602426;stroke-miterlimit:4;stroke-dasharray:none;stroke-opacity:1"/>
      <path id="path886" d="m 74.330981,2.606568 h 3.992831 l 3.355664,0.14313 c 0.07993,0.017739 0.989153,0.217717 2.201298,0.553864 1.264052,0.35054 2.782358,0.85348 3.522274,1.247639 0.286479,0.152608 0.947944,0.652204 1.454453,1.086175 0.506509,0.433971 0.894158,0.804098 0.894158,0.804098 l 0.0595,0.056609 2.811772,2.07779 1.611092,0.733016 0.183335,0.026375 c 0,0 1.800538,0.276157 2.927881,0.312634 1.49425,0.048346 2.608401,-0.299524 3.32382,-0.169826 0.4721,0.085586 1.52909,0.500117 2.36148,0.896086 0.79631,0.378811 1.36625,0.695848 1.41939,0.725298 l 2.63198,1.984514 2.55574,2.469869 c 0.005,0.0049 0.41027,0.420687 0.89384,0.969421 0.48641,0.551963 1.05028,1.265847 1.24539,1.60787 0.80013,1.402665 2.11124,4.729385 2.11124,4.729385 l 0.019,0.04889 1.20486,2.495913 c 0.0215,0.0632 0.88467,2.6047 0.92632,3.812063 -0.001,-0.03573 -4.9e-4,-0.01136 -0.0939,0.290132 -0.0727,0.234487 -0.15449,0.703659 -0.063,1.186844 -0.001,0.0033 -0.0142,0.03537 -0.0142,0.03537 -1e-5,9.8e-5 0.045,0.464642 0.045,0.464774 4e-5,1.32e-4 0.0641,0.180159 0.093,0.236727 0.19665,0.3853 0.24541,0.371516 0.2898,0.387572 0.0392,0.266188 0.15674,0.981835 0.74041,1.486297 0.0537,0.04641 0.45054,0.585452 0.69893,1.053372 0.24838,0.46792 0.41748,0.86618 0.41748,0.86618 l 0.003,0.0068 0.003,0.0071 c 0,0 0.12152,0.278473 0.24734,0.633308 0.12583,0.354851 0.22974,0.830708 0.23062,0.85042 0.0351,0.787151 -0.1094,1.595496 -0.42103,2.152408 0.0854,-0.15269 -0.0885,0.04306 -0.52459,0.298811 -0.21804,0.127874 -0.48764,0.283397 -0.77226,0.568654 -0.28462,0.285258 -0.58017,0.769547 -0.62237,1.317106 -0.0399,0.51734 0.14345,0.832256 0.27918,1.046949 0.13574,0.214692 0.26841,0.355295 0.38758,0.473123 0.23834,0.23564 0.4638,0.391756 0.4638,0.391756 l 0.13959,0.09907 1.56092,0.580874 1.32419,1.108687 1.95267,2.593386 2.61525,3.799532 3.47338,4.430253 0.0122,0.01482 c 0,0 1.97431,2.380736 3.49397,3.8822 0.36367,0.359297 1.85714,2.241813 1.85714,2.241813 l 0.0296,0.03829 2.6606,2.960689 c 0.0242,0.03 1.33611,1.65415 1.92018,2.44252 0.061,0.08237 0.34389,0.62277 0.52846,1.06302 0.15802,0.37695 0.24003,0.60724 0.27114,0.69281 0.0155,0.09258 0.12883,0.75603 0.1441,1.3422 0.005,0.20664 -0.10243,1.02172 -0.25089,1.79926 -0.14844,0.77753 -0.31978,1.54922 -0.39433,2.1582 -0.15107,1.23424 -0.156,1.85124 -0.156,2.45153 0,-0.23774 -0.0847,0.25201 -0.24122,0.57638 -0.15363,0.31836 -0.30308,0.56905 -0.30877,0.57863 -0.003,0.0046 -0.2542,0.40821 -0.55515,0.79476 -0.12529,0.16093 -0.24403,0.28763 -0.34063,0.38501 -0.26124,-0.02016 -0.93687,-0.07253 -1.6664,-0.15021 -0.70533,-0.07509 -1.14184,-0.12593 -1.3525,-0.1502 l -2.69726,-1.69729 c -0.0719,-0.05538 -2.1647,-1.66795 -3.18906,-2.60432 -1.10056,-1.00601 -3.68203,-3.36155 -3.72844,-3.4039 l -2.90891,-3.03789 -2.5075,-2.72075 c -0.0261,-0.03272 -1.47306,-1.84571 -1.82723,-2.475658 -0.31098,-0.553109 -0.99029,-2.142791 -1.09615,-2.391062 l -0.28658,-2.343782 c 0,0 -0.0282,-0.271013 -0.11418,-0.589239 -0.086,-0.318243 -0.15429,-0.750098 -0.70375,-1.23027 -0.58701,-0.513009 -1.1295,-0.651538 -1.60626,-0.803471 -0.47676,-0.151933 -0.87969,-0.238324 -0.87969,-0.238324 h -9.8e-4 -6.6e-4 c 0,0 -0.68577,-0.147388 -1.5368,-0.260852 -0.85102,-0.113447 -1.82713,-0.236973 -2.79922,-0.04277 -0.80151,0.160118 -1.36233,0.5552 -1.79314,0.843339 -0.43081,0.288123 -0.74199,0.474376 -0.93276,0.526842 -0.12206,0.03356 -0.69008,0.09593 -1.13956,0.106466 -0.40615,0.0096 -0.67173,0 -0.73238,-0.0023 l -3.11829,-0.580231 -1.875477,-0.320038 h -3.771221 -3.923036 l -3.573734,-0.165964 -0.331289,0.191703 c 0,0 -0.817579,0.473256 -2.160452,1.292025 -0.03676,0.02241 -0.31744,0.103798 -0.756495,0.379207 -0.439055,0.27541 -0.994607,1.020913 -1.014129,1.775771 -0.0073,0.282787 -0.03527,0.423044 -0.05275,0.652607 -0.144377,-0.175202 -0.339522,-0.369754 -0.948836,-0.421348 -0.651195,-0.05512 -1.30514,0.03144 -1.983227,0.100998 -0.422407,0.04333 -0.556161,0.06243 -0.788017,0.09102 -0.01806,-0.0072 -0.03204,-0.01907 -0.0505,-0.02572 -0.380518,-0.137343 -0.788713,-0.104423 -1.201966,-0.01004 -0.2819,-0.08865 -0.49601,-0.08524 -0.632343,-0.06689 -0.173335,0.0233 -0.295477,0.05951 -0.428102,0.102282 0.43314,-0.139648 0.06727,-0.02864 -0.317136,-0.119343 -0.384404,-0.09069 -0.903292,-0.247925 -1.436442,-0.413625 -0.533149,-0.1657 -1.081505,-0.339734 -1.58922,-0.470555 -0.441408,-0.113744 -0.772552,-0.254133 -1.356353,-0.184935 3.29e-4,0.0048 -0.02712,0.01202 -0.08491,-0.01004 -0.132628,-0.05036 -0.357934,-0.15717 -0.61015,-0.27597 -0.252218,-0.118783 -0.52796,-0.251564 -0.871964,-0.355081 -0.344005,-0.103534 -0.842378,-0.275427 -1.514922,0.08876 h -3.29e-4 c -0.307117,0.166326 -0.541197,0.282754 -0.812781,0.62784 -0.03593,0.04566 -0.05775,0.112706 -0.08588,0.171118 -0.22667,0.07849 -0.950536,0.222268 -1.573781,0.276925 -0.660654,0.05795 -1.205183,0.06563 -1.205183,0.06563 h -4.756081 l -3.205136,-0.285291 -2.7156,-0.694749 c -0.05808,-0.02469 -0.37651,-0.158455 -0.832082,-0.382435 -0.495019,-0.243363 -1.091597,-0.594739 -1.255036,-0.731407 -0.01303,-0.01087 -0.14571,-0.188294 -0.348657,-0.529098 -0.202946,-0.340787 -0.503007,-0.874843 -1.156937,-1.249883 -0.714219,-0.409624 -1.291351,-0.410678 -1.802787,-0.448043 -0.511437,-0.03737 -0.935007,-0.0238 -0.935007,-0.0238 l -0.256667,0.0077 -0.234476,0.104868 c 0,0 -0.311455,0.138051 -0.705033,0.272429 -0.393579,0.134362 -0.922173,0.213836 -0.887082,0.215812 h -3.29e-4 c -0.05723,-0.0033 -0.704582,-0.193514 -1.187814,-0.421661 -0.344603,-0.16272 -0.4754,-0.242671 -0.61401,-0.32068 L 43.429119,52.296535 41.368055,48.982363 39.925825,46.916461 38.454324,44.20602 36.408376,41.414508 32.697945,40.093862 30.08945,38.994808 26.847003,38.521042 22.676629,37.932446 20.075209,37.231916 17.525895,36.072392 15.270561,35.096865 13.857599,34.34456 11.496123,32.781062 10.153279,31.593575 7.8358664,29.03268 C 7.7480775,28.863637 6.9412689,27.314202 6.6322926,26.573425 6.4910982,26.23491 6.5395781,25.243524 5.7333114,24.186859 5.2069172,23.496984 4.5539158,23.246787 4.1428037,23.054375 3.7316933,22.861964 3.5698695,22.733712 3.5616026,22.722118 3.5470614,22.701715 3.4856739,22.563137 3.432303,22.247051 3.378932,21.930982 3.3430813,21.470209 3.1331778,20.91804 2.8319957,20.125767 2.5939023,19.848843 2.6130875,19.958914 c 0.00983,0.05644 6.587e-4,-0.162835 0.02541,-0.331285 0.024438,-0.166557 0.052429,-0.280762 0.05307,-0.283364 v 0 c 4.9e-6,-3.3e-5 6.587e-4,-0.0026 6.587e-4,-0.0026 l 0.039561,-0.157927 c 0.00315,-0.01087 0.087402,-0.301182 0.2164644,-0.659673 0.1314454,-0.365102 0.3627277,-0.818695 0.3566971,-0.810527 0.074468,-0.100899 0.5684401,-0.53944 0.9999774,-0.836903 0.408693,-0.281713 0.7193177,-0.46037 0.7552096,-0.481172 l 2.4640788,-1.080387 2.4142238,-0.253452 2.3904242,-1.14375 2.007995,-0.548073 1.817261,-0.269534 2.383027,0.222897 2.579547,0.844624 1.880625,0.664507 1.980654,0.07655 0.348979,-0.228685 c 0,0 0.299609,-0.196639 0.651964,-0.46091 0.352354,-0.264269 0.750508,-0.552898 1.118983,-1.018309 0.415433,-0.524728 0.579839,-1.042618 0.714683,-1.413927 0.134843,-0.371309 0.239615,-0.595555 0.306521,-0.679303 0.09647,-0.120754 0.575978,-0.544477 0.983895,-0.844302 0.357857,-0.26303 0.588806,-0.410839 0.65904,-0.456408 0.185556,-0.073471 2.319537,-0.916532 3.15496,-1.081029 1.35736,-0.267266 5.246259,-0.501756 5.246259,-0.501756 L 46.10035,7.847862 52.344977,7.087185 59.274053,5.729224 h 6.59e-4 c 0,0 2.423398,-0.432303 3.250487,-0.424885 0.259582,0.00232 0.974531,0.391019 2.165918,0.295586 0.621498,-0.049786 1.10637,-0.235394 1.542583,-0.39433 0.436211,-0.158935 0.782227,-0.311348 0.782227,-0.311348 l 0.2081,-0.091988 0.165001,-0.156961 c 0,0 0.182807,-0.173596 0.422313,-0.378568 C 68.050846,4.061759 68.382755,3.823501 68.424707,3.800996 68.648706,3.680832 69.325286,3.440845 69.877874,3.2838 70.402979,3.134565 70.788556,3.046689 70.830248,3.037103 L 74.33097,2.607392 Z" style="fill:#88fafa;fill-opacity:1;stroke:#000000;stroke-width:0.21602426;stroke-miterlimit:4;stroke-dasharray:none;stroke-opacity:1"/>
    </g>
    <path style="fill:#88fafa;fill-opacity:1;stroke:#000000;stroke-width:0.21602426;stroke-miterlimit:4;stroke-dasharray:none;stroke-opacity:1" d="m 137.09343,79.082748 c 0,0 -0.002,0.0018 -0.002,0.0023 -0.054,0.04912 -0.0642,0.02761 0.002,-0.0023 z" id="path16294"/>
    <path sodipodi:nodetypes="ccccccccccccccccccccccccccccccccccccccccccccccccccccccccccccccccccccccccccccccccccccccccccccccccccccccccccccccccccccccccccccccccccccccccccccccccccccccccccccccccccccccccccccccccccccccccccccccccccccccccccccc" inkscape:connector-curvature="0" d="M 26.063686,14.245997 C 26.855074,13.502667 26.260134,14.319065 26.184052,14.549303 26.17781,14.669206 26.001427,15.087047 26.001427,15.087047 26.001427,15.087047 25.901714,15.34948 25.899697,15.442079 25.898544,15.541315 25.829334,15.680305 25.829828,15.77954 L 25.771046,16.036341 C 25.770716,16.147681 25.730978,16.129879 25.730978,16.241219 25.743411,16.361846 25.7123,16.383914 25.662972,16.631459 25.618442,16.711444 25.606905,16.849182 25.591881,16.939031 25.582725,17.028371 25.514862,16.254031 25.514204,16.343715 25.65345,16.505529 25.553611,17.263418 25.554764,17.385495 25.554629,17.500754 25.475161,17.830623 25.475161,17.830623 25.475491,17.919698 25.476314,18.048477 25.476314,18.137536 25.474832,18.25436 25.466055,18.331462 25.465561,18.448302 25.447561,18.576069 25.422199,18.576892 25.466713,18.691344 25.487104,18.821968 25.449229,18.866646 25.498844,18.98673 25.550998,19.112298 25.591988,19.247747 25.603977,19.382685 25.642668,19.505338 25.777896,19.807261 25.805426,19.934048 25.862906,20.050624 25.896602,20.109563 25.965542,20.219964 26.035685,20.34899 26.093672,20.484818 26.156399,20.618966 26.221566,20.746691 26.238906,20.872226 26.303224,20.999375 26.341579,21.123856 26.393045,21.25 26.449164,21.365292 26.512332,21.511429 26.597609,21.644687 26.678984,21.780301 26.740688,21.907301 26.817702,22.021951 26.8869,22.143781 26.946142,22.268147 27.028626,22.378103 27.116308,22.482526 27.205008,22.575702 27.287084,22.666835 27.348862,22.781008 27.438174,22.894785 27.528593,23.012662 27.600297,23.1393 27.692244,23.252369 27.776797,23.369193 27.863126,23.486066 27.92798,23.585993 28.001591,23.678955 28.0785,23.769314 28.164189,23.865833 28.254863,23.957576 28.344081,24.050652 28.49829,24.182281 28.586172,24.369801 28.725105,24.514702 28.884734,24.6723 29.015813,24.861435 29.18333,25.010568 29.283004,25.135527 29.405028,25.234516 29.508517,25.354452 29.622255,25.430072 29.721392,25.524203 29.82834,25.611253 30.02528,25.768126 30.2317,25.912418 30.425221,26.074874 30.641595,26.233345 30.843258,26.415958 31.029382,26.610708 31.173875,26.731122 31.306646,26.863277 31.42469,27.011093 31.537211,27.086631 31.587844,27.21546 31.67425,27.315816 31.751252,27.437201 31.857808,27.533571 31.944454,27.64804 32.088797,27.785745 32.206706,27.949255 32.351328,28.086712 32.553674,28.312653 32.792747,28.501853 33.032736,28.683889 33.207034,28.836465 33.382311,28.989073 33.539713,29.159829 33.622589,29.264911 33.703842,29.373566 33.772159,29.489221 33.844982,29.60476 33.932636,29.711389 34.001792,29.831342 34.127038,30.001291 34.257517,30.166645 34.387024,30.333713 34.512088,30.510084 34.621133,30.695134 34.727255,30.88412 34.853265,31.051418 34.957852,31.235003 35.06094,31.418044 35.126863,31.533138 35.229274,31.602353 35.282559,31.727822 35.303098,31.836659 35.374323,31.916841 35.414991,32.017938 35.470909,32.153304 35.526905,32.290515 35.591581,32.422143 35.681985,32.583545 35.75034,32.758254 35.849252,32.914436 35.937144,33.072429 36.020372,33.231756 36.1042,33.392187 36.144181,33.485873 36.19642,33.567224 36.261439,33.64408 36.331817,33.709903 36.325992,33.813963 36.363773,33.895299 36.426249,34.006078 36.451492,34.131268 36.498321,34.247992 36.558056,34.350258 36.598362,34.460462 36.631385,34.574255 36.651326,34.63293 36.652222,34.695064 36.653939,34.756456 36.641687,34.844 36.691096,34.90834 36.730314,34.982676 36.767509,35.076313 36.787196,35.174231 36.795203,35.274488 36.834533,35.378285 36.88066,35.477653 36.913108,35.584711 36.924537,35.692922 36.946082,35.784599 37.00063,35.878021 37.049741,35.953049 37.072935,36.044578 37.084859,36.133307 37.093406,36.218282 37.092022,36.303849 37.09278,36.38917 37.100405,36.438475 37.066677,36.509731 37.115186,36.531864 37.160532,36.598362 37.20411,36.666605 37.224477,36.745305 37.239825,36.824022 37.238887,36.90432 37.238327,36.984173 37.234967,37.083853 37.292358,37.17469 37.334875,37.261805 37.370388,37.31857 37.377323,37.384739 37.383376,37.450314 37.387823,37.485193 37.385995,37.520072 37.385616,37.555099 37.385945,37.602296 37.385287,37.649477 37.384793,37.696674 37.385616,37.755086 37.384463,37.813481 37.384687,37.871909 37.385017,37.936991 37.384852,38.002088 37.384358,38.06717 37.384447,38.156377 37.384029,38.245567 37.384687,38.334757 37.385017,38.410971 37.384358,38.487184 37.384358,38.563398 37.385511,38.632514 37.384523,38.70163 37.384687,38.770746 37.385511,38.829981 37.384523,38.8892 37.385017,38.948435 37.383535,39.016003 37.38584,39.083587 37.384687,39.151171 37.385017,39.213585 37.384806,39.275982 37.384646,39.338379 37.384481,39.382414 37.386128,39.426417 37.384976,39.470435 37.38514,39.526245 37.384811,39.582055 37.384646,39.637881 37.384747,39.712069 37.384811,39.786257 37.384317,39.860445 37.38514,39.943839 37.384211,40.027233 37.384646,40.110626 37.38547,40.172826 37.384556,40.235009 37.384976,40.297208 37.385799,40.347896 37.384646,40.398585 37.385066,40.449306 37.386219,40.483279 37.385231,40.517203 37.384966,40.55116 37.385789,40.606953 37.384636,40.662714 37.384801,40.718507 37.395637,40.803136 37.41584,40.894912 37.368432,40.959367 37.342213,41.123684 37.350709,41.066705 37.342213,41.123684 37.334901,41.189128 37.342103,41.310381 37.342103,41.310381 37.285341,41.371955 37.333918,41.410852 37.311277,41.491858 37.291224,41.563394 37.291597,41.687711 37.28943,41.761438 37.290583,41.843349 37.287635,42.04877 37.248949,42.122958 37.21351,42.18086 37.235429,42.469328 37.21737,42.535431 37.211128,42.614889 36.914684,42.217171 36.868576,42.278547 36.82538,42.317626 36.842953,42.156586 36.833685,42.213137 36.839729,42.293681 36.909497,42.233145 36.862952,42.292084 36.8479,42.318466 37.031835,41.91459 36.823783,42.25014 36.819896,42.287391 36.910212,42.215689 36.910953,42.253104 36.910867,42.314365 36.88082,42.206731 36.88082,42.267926 36.879667,42.319882 36.899865,42.063904 36.900359,42.115877 L 36.474075,41.720779 36.53368,41.760516 C 36.53401,41.708675 36.524574,41.865449 36.523421,41.813625 36.523256,41.753253 36.403879,41.633268 36.402726,41.572913 37.067997,40.499039 36.551588,41.869006 36.550917,41.828298 36.541695,41.776308 36.454733,41.623914 36.471216,41.714718 36.48141,41.700227 36.88191,41.037787 36.55347,41.747786 36.609346,41.419135 36.926223,41.130337 36.537628,41.733624 36.542601,41.736258 36.478846,41.722261 36.479175,41.716513 36.485976,41.652058 36.409003,41.687991 36.445938,41.637171 36.489365,41.587767 36.45926,41.688683 36.463433,41.623173 36.477365,41.540241 36.396094,41.637006 36.462775,41.580702 36.521725,41.51157 36.462116,41.729655 36.454705,41.624062 36.453882,41.543188 36.38527,41.629826 36.398042,41.550023 36.418395,41.45548 36.411859,41.59246 36.411859,41.59246 36.473652,41.620275 36.282225,41.490046 36.293278,41.44331 36.298762,41.379761 36.011757,41.395207 36.061729,41.351617 36.103647,41.304255 35.79785,41.368628 35.794583,41.307532 35.794748,41.251805 35.456816,41.148584 35.486453,41.031085 L 35.307534,41.068401 C 35.109178,40.997787 36.270836,40.718589 36.271256,40.667852 36.272079,40.605521 36.280857,40.652537 36.281515,40.590156 36.281845,40.506647 36.440301,40.343664 36.440795,40.260155 36.439971,40.186132 36.439971,40.112092 36.440465,40.038052 36.440301,39.982358 36.439642,39.926663 36.440136,39.870952 36.438983,39.826818 36.440959,39.782684 36.440465,39.738533 36.440306,39.676136 36.440136,39.613756 36.440426,39.551359 36.439273,39.483873 36.441579,39.416388 36.440097,39.348902 36.440426,39.289584 36.439767,39.230283 36.440426,39.170966 36.440755,39.101702 36.439602,39.032438 36.440755,38.963157 36.440726,38.887092 36.439932,38.810993 36.440426,38.734928 36.441249,38.645606 36.440755,38.5563 36.440755,38.466995 36.439932,38.402062 36.439932,38.337112 36.440426,38.272179 36.440591,38.213734 36.439602,38.155306 36.440423,38.096861 36.440258,38.049533 36.439599,38.002253 36.440752,37.954941 36.440681,37.922351 36.440699,37.889909 36.441081,37.857319 36.43922,37.803518 36.438842,37.751759 36.409899,37.704875 36.363257,37.603334 36.297832,37.496885 36.295864,37.383783 36.29504,37.31111 36.297017,37.238141 36.288733,37.165814 36.282722,37.108934 36.241389,37.056648 36.207765,37.013321 36.146108,36.943365 36.140688,36.879947 36.148438,36.789044 36.149591,36.707297 36.150299,36.625468 36.145819,36.54382 36.140286,36.4681 36.121733,36.391525 36.079972,36.327859 36.023695,36.226516 35.986023,36.129684 35.981982,36.011988 35.950166,35.8964 35.898247,35.791795 35.854655,35.680736 35.850439,35.59474 35.838829,35.509831 35.807618,35.429073 35.763235,35.342352 35.700146,35.25942 35.709505,35.157862 35.710328,35.105132 35.712864,35.051463 35.698751,35.000264 35.670856,34.889237 35.630917,34.784386 35.573946,34.685282 35.52495,34.570912 35.503213,34.445904 35.439446,34.337018 35.404865,34.261908 35.406508,34.173113 35.34805,34.110238 35.28079,34.025988 35.224812,33.938165 35.184357,33.836953 35.103259,33.678301 35.020068,33.521658 34.934078,33.365937 34.836405,33.205062 34.761782,33.030469 34.67132,32.865246 34.60437,32.731905 34.547641,32.591466 34.489322,32.454453 34.44923,32.354921 34.372799,32.275611 34.357417,32.166116 34.307922,32.048337 34.189678,31.986352 34.143625,31.865181 34.042434,31.681267 33.934553,31.500416 33.811144,31.331357 33.706666,31.147262 33.600865,30.965884 33.477706,30.794156 33.346768,30.623005 33.20984,30.457123 33.085224,30.281196 33.013592,30.163681 32.923593,30.059242 32.853799,29.941397 32.78587,29.833845 32.713782,29.728335 32.633323,29.630482 32.475486,29.46773 32.31325,29.31028 32.138639,29.166153 31.898792,28.976969 31.656368,28.787011 31.449181,28.559919 31.304853,28.415659 31.17595,28.256217 31.032857,28.110575 30.943247,28.000404 30.841216,27.900493 30.762593,27.78166 30.679332,27.67783 30.619477,27.557466 30.5125,27.474533 30.397956,27.328414 30.261311,27.205365 30.125235,27.080719 29.942326,26.888094 29.740144,26.713155 29.528521,26.554602 29.332838,26.394237 29.1253,26.251378 28.927603,26.094191 28.817156,26.004243 28.706906,25.91418 28.597895,25.8228 28.495679,25.707508 28.380332,25.605077 28.281207,25.48636 28.118609,25.328037 27.978851,25.145622 27.819764,24.983561 27.686449,24.834526 27.590324,24.65491 27.437775,24.523117 27.344886,24.429415 27.252458,24.335169 27.16529,24.235818 27.090109,24.142395 27.01571,24.048413 26.950112,23.947596 26.857829,23.829752 26.775825,23.705715 26.682508,23.58843 26.607869,23.461792 26.514558,23.346928 26.42834,23.228392 26.369968,23.120939 26.282378,23.041217 26.20535,22.947927 26.115471,22.837937 26.030409,22.722777 25.967852,22.593817 25.896492,22.473815 25.824927,22.357008 25.762861,22.231292 25.678391,22.094114 25.593008,21.956837 25.527579,21.80879 25.469841,21.694058 25.399552,21.587478 25.361231,21.462914 25.298284,21.332653 25.239874,21.163642 25.184718,21.030582 25.122996,20.900221 25.076672,20.768363 25.008651,20.642515 24.934382,20.521097 24.913108,20.422388 24.8527,20.293394 24.827158,20.161519 24.765988,20.045519 24.724736,19.91865 24.716897,19.794334 24.641976,19.72861 24.594374,19.612808 24.543478,19.491851 24.527032,19.378354 24.51046,19.245556 24.463358,19.121174 24.415997,18.946383 24.434508,18.807773 24.433685,18.691196 24.355857,18.574603 24.354211,18.458035 24.354248,18.368696 24.295758,18.249633 24.295758,18.249633 24.294934,18.134489 24.255989,17.979625 24.255691,17.864481 24.256515,17.74247 24.146082,17.491318 24.145259,17.369307 24.144106,17.276296 24.079079,17.139892 24.079079,17.139892 24.084118,17.040755 24.009535,16.847865 24.009535,16.847865 24.009535,16.847865 23.904083,16.621266 23.88541,16.501544 23.885739,16.39032 23.706599,16.179728 23.706262,16.068487 L 23.467508,15.692639 C 23.467508,15.692639 23.26734,15.393499 23.267999,15.293605 23.269152,15.193084 22.990167,14.832338 23.011946,14.733892 23.038907,14.625171 23.568267,14.77363 23.893654,14.788747 23.52853,14.753753 24.116722,15.003209 23.636515,14.762744 L 24.852471,14.901734 Z" id="path16312" style="fill:#88fafa;fill-opacity:1;stroke:#000000;stroke-width:0.21602426;stroke-miterlimit:4;stroke-dasharray:none;stroke-opacity:1"/>
    <path sodipodi:nodetypes="cccccccccccccccccccccscccccccccccccccccccccccccccccccccccccccccccccccccccccccccccccccccccccccccccccccccccccccccccccccccccccccccccccccccccccccccccccccccccccccccccccccccccccccccccccccccccccccccccccccccccccc" inkscape:connector-curvature="0" d="M 90.569538,6.960581 C 90.692982,7.211149 89.670271,6.143243 89.765709,6.406532 89.769859,6.539383 90.91288,7.122548 90.971618,7.226608 91.00463,7.238909 90.68056,7.160265 91.278164,7.483101 90.68056,7.160265 90.638412,7.104068 91.235179,7.382183 91.235179,7.382183 91.380849,7.506365 91.401841,7.584413 91.401841,7.584413 91.527177,7.649343 91.570237,7.679591 91.591934,7.737153 91.882721,7.930501 91.93182,7.96766 91.992702,7.98795 92.35071,8.416128 91.776396,7.877183 91.989875,8.056481 92.397837,8.320232 92.432304,8.385326 92.467631,8.467756 92.310016,8.188002 92.358687,8.261397 92.384827,8.357067 92.56145,8.454867 92.621081,8.492335 92.659156,8.571185 92.783045,8.561604 92.832541,8.635233 92.876848,8.708842 93.065076,8.714665 93.10602,8.789606 93.10602,8.789606 93.026544,8.789606 93.353902,8.881052 93.435017,8.9562 93.489733,8.958965 93.489733,8.958965 93.58773,8.994837 93.741905,9.02751 93.768509,9.128478 93.923533,9.136218 93.933282,9.068179 93.968019,9.163204 94.017399,9.255933 94.225361,9.211952 94.262193,9.315278 94.274939,9.496841 94.345619,8.939734 94.310781,9.104924 94.37536,9.263167 94.569239,9.215127 94.610791,9.381211 94.632973,9.483708 94.92869,9.10305 94.952825,9.472043 94.960812,9.594166 94.803899,10.371235 94.757166,10.570385 94.808039,10.712653 94.698466,10.992668 94.726131,11.141851 94.751672,11.30058 94.674662,11.680891 94.676491,11.841453 94.658082,11.978623 94.670925,12.485328 94.717902,12.608788 94.767854,12.761248 94.754105,12.743298 94.759575,12.902493 94.764499,13.08509 94.822919,13.486381 94.822162,13.669026 94.804088,13.88311 94.813055,13.866576 94.862907,14.073199 94.91208,14.27475 94.911858,14.65982 94.922409,14.866706 94.929358,15.052662 94.929128,15.23875 94.929951,15.424805 94.929933,15.578599 94.929128,15.732393 94.929622,15.886187 94.929292,16.050174 94.929292,16.214179 94.928469,16.378166 94.928634,16.538976 94.929292,16.699785 94.928798,16.860611 94.928469,17.0315 94.927975,17.202404 94.928892,17.373309 94.927739,17.547226 94.928843,17.721128 94.928563,17.895029 94.928727,18.050305 94.929386,18.205582 94.928892,18.360841 94.928922,18.532462 94.928727,18.704074 94.928069,18.875703 94.929221,19.05965 94.927904,19.243597 94.928398,19.42756 94.928069,19.629325 94.928069,19.83109 94.927245,20.032855 94.927575,20.251895 94.92741,20.470919 94.92741,20.689942 94.928233,20.86223 94.928892,21.034517 94.928563,21.206805 94.926702,21.398129 94.928233,21.58947 94.928233,21.780795 94.928378,21.988752 94.92741,22.196709 94.927081,22.404666 94.92741,22.644686 94.926257,22.884706 94.92741,23.12471 94.903734,23.327595 94.862897,23.522526 94.830883,23.724241 94.807319,23.891473 94.783194,24.060599 94.781662,24.229297 94.782486,24.442886 94.713768,24.648471 94.677493,24.857449 94.662145,25.100516 94.624064,25.335991 94.571963,25.573278 94.516033,25.798295 94.518495,26.032041 94.479089,26.259167 94.424705,26.463847 94.390547,26.672743 94.322179,26.873157 94.257552,27.034708 94.233237,27.207275 94.170149,27.36904 94.103577,27.545066 94.05555,27.727399 93.996748,27.906537 93.934245,28.124671 93.847295,28.330586 93.802752,28.554171 93.730216,28.797205 93.669752,29.043434 93.597735,29.286665 93.542697,29.544767 93.447707,29.790551 93.386341,30.046775 93.302236,30.287487 93.25091,30.536894 93.185096,30.782596 93.118519,31.009935 93.042304,31.234393 92.942164,31.448658 92.822813,31.666759 92.736198,31.900192 92.647762,32.132406 92.532157,32.411027 92.487886,32.711089 92.415586,33.00277 92.344513,33.302898 92.260344,33.600885 92.156644,33.891033 92.084557,34.115228 92.021185,34.341267 91.947256,34.565033 91.863175,34.782344 91.764073,34.992821 91.675805,35.208188 91.607797,35.394589 91.528842,35.577268 91.44818,35.758332 91.365681,35.940451 91.177268,36.525886 91.103547,36.711941 90.993836,36.920672 91.063926,36.753918 90.992906,36.976861 90.924455,37.189528 90.827507,37.390996 90.759127,37.603466 90.682752,37.838414 90.580719,38.063283 90.500212,38.296552 90.431952,38.550504 90.339855,38.797292 90.248842,39.043521 90.155561,39.31702 90.070473,39.593418 89.962028,39.861104 89.870513,40.108453 89.774999,40.354055 89.669409,40.595442 89.572761,40.809986 89.456095,41.013102 89.341283,41.217601 89.251419,41.385277 89.119473,41.522323 89.021726,41.684302 88.91734,41.844782 88.832331,42.016872 88.730592,42.178966 88.597248,42.390496 88.45318,42.593941 88.322568,42.807432 88.17971,43.030803 88.077822,43.276735 87.927301,43.494918 87.785055,43.699664 87.664147,43.919099 87.53533,44.13282 87.414513,44.304268 87.306205,44.484032 87.191672,44.65986 87.0827,44.812666 86.971786,44.963249 86.854,45.108974 86.7412,45.260742 86.649902,45.426772 86.538812,45.579792 86.445785,45.716838 86.332183,45.836428 86.232632,45.968073 86.148829,46.089903 86.037815,46.186059 85.932913,46.287864 85.801769,46.390574 85.691725,46.514034 85.584716,46.641694 85.4528,46.813619 85.289324,46.953563 85.138047,47.106254 84.960829,47.282807 84.812999,47.486038 84.648804,47.674612 84.47277,47.867353 84.302505,48.064507 84.137409,48.267145 84.04024,48.400387 83.905005,48.495209 83.792944,48.613663 83.662872,48.736859 83.535027,48.86032 83.418208,48.996905 83.286796,49.127627 83.158794,49.262137 83.047386,49.411304 82.947095,49.545172 82.841297,49.675087 82.7329,49.802269 82.614025,49.950167 82.466722,50.06816 82.325205,50.191851 82.176132,50.3176 82.074948,50.476153 81.949822,50.628004 81.840274,50.776133 81.648819,50.831762 81.506184,50.94572 81.338056,51.107567 81.286113,50.978573 81.116689,51.138691 80.947799,51.296833 80.724546,51.390157 80.57798,51.569986 80.451343,51.738486 80.303717,51.835614 80.1501,51.978029 79.959965,52.167641 79.605595,52.590982 79.284683,52.73753 L 78.937805,52.95214 C 78.826388,53.279868 78.674422,53.225425 78.440931,53.432444 78.259259,53.524812 78.3434,53.652884 78.033571,53.729723 77.702208,53.810119 78.065,53.776064 77.893448,53.905633 L 77.880373,53.9692 77.599387,54.067546 C 77.771549,53.939524 77.068112,54.353841 77.239918,54.225342 77.535347,54.011555 76.997884,54.361729 77.240907,54.085101 77.468543,53.871018 77.596237,53.777002 77.834997,53.576061 78.036772,53.379335 78.248099,53.24214 78.452816,53.048296 78.633358,52.847684 78.933028,52.591163 79.123461,52.401782 79.267709,52.253653 79.400264,52.136599 79.518939,51.962071 79.666154,51.779294 79.827749,51.669551 80.004176,51.515593 80.162415,51.342778 80.254919,51.314766 80.416886,51.146299 80.544837,51.022263 80.858917,50.822145 80.858917,50.822145 80.968975,50.651339 81.219444,50.557834 81.377075,50.436778 81.514492,50.311145 81.641651,50.193185 81.756172,50.045138 81.877951,49.93365 81.968969,49.868635 82.086781,49.752239 82.179614,49.589997 82.316479,49.447319 82.454668,49.325209 82.569787,49.187109 82.68246,49.045864 82.826464,48.940271 82.933313,48.812101 83.062888,48.717707 83.174852,48.596668 83.342584,48.393519 83.509961,48.191326 83.687493,47.997647 83.861727,47.817702 83.996893,47.604771 84.17448,47.427428 84.320699,47.271115 84.486221,47.139717 84.619982,46.970937 84.728891,46.840313 84.833079,46.707598 84.960496,46.59728 85.078779,46.522943 85.17133,46.404588 85.267704,46.303986 85.366701,46.167038 85.483628,46.051911 85.575339,45.909875 85.703532,45.771149 85.778653,45.597429 85.89127,45.446006 85.991094,45.28826 86.129668,45.157422 86.231616,44.999478 86.349761,44.826054 86.450047,44.641663 86.577392,44.475024 86.714048,44.263378 86.831067,44.039595 86.969055,43.829185 87.131352,43.619087 87.228814,43.375164 87.367718,43.149438 87.498544,42.93598 87.634724,42.727167 87.771454,42.518848 87.879864,42.362205 87.955768,42.188649 88.062567,42.03138 88.153434,41.862666 88.278857,41.724665 88.383527,41.564975 88.497347,41.361185 88.618034,41.163998 88.718111,40.952154 88.820369,40.709796 88.928344,40.469693 89.011848,40.219463 89.121352,39.953012 89.215169,39.68134 89.30047,39.405552 89.38846,39.159224 89.487837,38.915565 89.552566,38.661975 89.625363,38.426796 89.72822,38.203936 89.810882,37.972298 89.870267,37.754328 89.974266,37.555066 90.041488,37.339732 90.131882,37.125237 90.148376,36.880112 90.270904,36.676766 90.338656,36.485935 90.421488,36.30133 90.492202,36.111586 90.583862,35.938854 90.649225,35.749077 90.725047,35.568935 90.804044,35.351146 90.909876,35.145198 90.996886,34.930786 91.072973,34.705653 91.14309,34.480816 91.208241,34.25229 91.318164,33.967478 91.401187,33.671681 91.472416,33.374648 91.545848,33.07951 91.590728,32.776797 91.699092,32.491951 91.791996,32.259374 91.866772,32.018876 91.986275,31.798157 92.104587,31.599734 92.165458,31.369924 92.236815,31.150654 92.318481,30.912972 92.339617,30.654195 92.442246,30.421487 92.497476,30.160717 92.59783,29.915938 92.65178,29.654871 92.721851,29.41416 92.776444,29.169957 92.859515,28.933312 92.897437,28.703239 92.976979,28.493355 93.047062,28.274002 93.10207,28.091686 93.160845,27.911527 93.216252,27.730165 93.280579,27.568483 93.315036,27.40331 93.371314,27.237725 93.441167,27.040521 93.480839,26.839415 93.533105,26.636184 93.589919,26.412632 93.62785,26.054882 93.687134,25.830144 93.736352,25.593928 93.790661,25.6018 93.793466,25.358338 93.823788,25.152719 93.813692,24.8933 93.821735,24.68615 93.823596,24.513088 93.902691,24.319491 93.926155,24.147681 93.95237,23.948634 93.94381,23.716683 93.98994,23.522032 93.991093,23.281896 93.989858,23.041761 93.990269,22.801642 93.989446,22.594031 93.988787,22.386436 93.989117,22.178841 93.988952,21.987648 93.990269,21.796439 93.988787,21.605247 93.988458,21.43263 93.989611,21.260013 93.98994,21.087396 93.989966,20.868306 93.989854,20.649217 93.990105,20.430111 93.989281,20.228626 93.989281,20.027141 93.988952,19.825656 93.989775,19.641594 93.988128,19.457532 93.989281,19.273453 93.988458,19.102088 93.988128,18.930722 93.988458,18.759357 93.988128,18.603999 93.988563,18.448648 93.988787,18.29329 93.988458,18.119471 93.989611,17.945668 93.988458,17.771866 93.989281,17.600945 93.988787,17.430008 93.988543,17.259087 93.988214,17.098146 93.988873,16.937203 93.988873,16.776278 93.988543,16.612455 93.988543,16.448649 93.988049,16.284842 93.988873,16.13095 93.988379,15.977073 93.989202,15.82318 93.990355,15.638509 93.990684,15.453755 93.985168,15.26915 93.976505,15.068653 93.961304,14.868304 93.914146,14.672763 93.862116,14.458203 93.862728,14.249686 93.883279,14.026809 93.882949,13.845431 93.844365,13.664053 93.840923,13.482692 93.836411,13.33504 93.834122,13.185297 93.790767,13.042965 93.7415,12.909772 93.715531,12.706673 93.735976,12.558989 93.734494,12.403844 93.69591,12.327334 93.673461,12.173474 93.647805,12.020922 93.596503,11.877791 93.541525,11.733944 93.532006,11.626896 93.518746,11.519704 93.45491,11.43038 93.398036,11.324999 93.391225,11.223316 93.380579,11.104294 93.343308,10.936132 93.287454,10.775243 93.221019,10.616756 93.188905,10.465096 93.117406,10.331671 93.075504,10.18436 93.0404,10.080692 92.972457,10.002334 92.930255,9.904144 92.895861,9.805371 92.828881,9.72281 92.804899,9.621289 92.785444,9.532602 92.734649,9.461127 92.684212,9.387069 92.626726,9.295352 92.617412,9.180903 92.5441,9.096703 92.491804,9.010019 92.411085,8.893217 92.348502,8.809792 92.306382,8.737228 92.198346,8.615841 92.161046,8.542921 92.116067,8.482072 91.974647,8.237949 91.944603,8.164234 91.874647,8.112377 91.818529,7.99597 91.784039,7.910429 91.731903,7.844046 91.953484,8.037395 91.911137,7.965949 91.868112,7.918612 91.78602,7.950386 91.746357,7.900107 91.703805,7.856155 91.650907,7.839732 91.605248,7.799102 91.562975,7.762112 91.422177,7.65401 91.411091,7.634159 91.354489,7.583792 91.380255,7.568801 91.346135,7.499382 91.343154,7.457697 91.209288,7.426663 91.172385,7.410405 91.104845,7.367056 91.007838,7.299246 90.977971,7.228523 90.910469,7.12128 90.766859,7.318158 90.758984,7.183542 90.672116,6.921465 89.898543,6.568388 89.77019,6.325 L 90.886592,7.235052 Z" id="path16316" style="fill:#88fafa;fill-opacity:1;stroke:#000000;stroke-width:0.21602426;stroke-miterlimit:4;stroke-dasharray:none;stroke-opacity:1"/>
    <path sodipodi:nodetypes="sscscsssscccssssssscssccssss" inkscape:connector-curvature="0" id="path5402" d="M 105.85718,42.769753 C 104.67699,42.736488 103.49678,42.673317 103.23451,42.62938 101.7427,42.379512 100.26597,42.023723 99.712661,41.780854 99.376701,41.633383 98.994547,41.48695 98.863413,41.455447 98.51062,41.370687 97.794314,40.996865 97.222119,40.598868 96.944635,40.405863 96.460198,40.119008 96.145611,39.961394 95.24465,39.510024 94.569267,39.037823 93.497452,38.109904 92.950271,37.636187 92.324408,37.11753 92.106636,36.957297 91.888864,36.79708 91.609699,36.559893 91.486256,36.430224 L 91.261814,36.194469 91.402944,35.776562 C 91.645254,35.296539 92.306952,33.361787 92.418077,32.968516 92.459297,32.822643 92.664569,33.205309 92.927628,34.001698 93.403733,35.443087 94.12096,36.881034 94.636786,37.428428 95.232134,38.060187 96.075902,38.677768 97.43286,39.47498 100.05442,41.015128 101.31753,41.442273 104.47381,41.856046 105.24894,41.957653 109.18011,41.906306 110.18856,41.781413 110.73495,41.71373 111.57539,41.621362 112.05622,41.576141 113.3922,41.450474 114.42347,41.294737 115.28723,41.091045 115.71742,40.989602 116.43393,40.41772 116.46733,40.438355 116.50074,40.459005 116.38758,41.060019 116.38758,41.190099 116.38758,41.444941 116.3182,41.694199 116.65852,42.02173 L 116.85877,42.494393 116.68038,42.173762 C 116.85877,42.494393 116.43627,42.254504 116.04445,42.317296 115.35411,42.427928 114.57968,42.41785 113.24152,42.501754 112.03058,42.577704 109.47648,42.756727 108.67853,42.796546 108.307,42.815089 107.03739,42.802969 105.85718,42.769753 Z" style="fill:#88fafa;fill-opacity:1;stroke:#000000;stroke-width:0.21602426;stroke-miterlimit:4;stroke-dasharray:none;stroke-opacity:1"/>
    <path inkscape:label="UBERON_0001896" sodipodi:nodetypes="ssssssssscsssssscscsss" inkscape:connector-curvature="0" id="medulla oblongata" d="M 135.33111,79.379472 C 134.48305,79.182432 133.86252,78.821252 131.82482,77.338632 129.41048,75.581952 124.67061,71.565012 124.67061,71.275562 124.67061,71.195862 123.24006,69.648302 121.49164,67.836502 118.85281,65.102042 118.08651,64.185982 116.98174,62.445131 115.99441,60.889343 116.09552,58.732058 115.76538,57.626177 115.52062,56.806283 115.23326,56.380706 114.68711,56.087267 112.8483,55.099318 113.24516,55.311555 114.44877,55.02429 115.00073,54.892553 116.24333,53.737424 117.00166,53.210571 118.44655,52.206718 120.43924,50.047087 120.60855,49.30146 120.76789,48.599839 121.74805,46.427783 121.90533,46.427783 121.97563,46.427783 122.36836,46.998784 122.77807,47.696675 124.12532,49.991584 126.43497,53.133687 128.21357,55.091255 130.46092,57.564709 132.05598,59.403184 133.75605,61.479473 134.50482,62.39395 135.83254,63.890372 136.70656,64.804842 138.04285,66.202992 138.39625,66.698582 138.92779,67.919702 139.52729,69.296942 139.55463,69.441422 139.45766,70.720012 139.40146,71.461492 139.19964,72.698232 139.00922,73.468322 138.75295,74.504742 138.68823,75.186742 138.76008,76.093612 138.76008,76.093612 138.60115,76.988172 138.46547,77.374712 138.34188,77.726812 138.09059,78.134622 138.09059,78.134622 136.75414,79.556992 136.53011,79.658052 135.33111,79.379472 Z" style="fill:#88fafa;fill-opacity:1;stroke:#000000;stroke-width:0.21602426;stroke-miterlimit:4;stroke-dasharray:none;stroke-opacity:1"/>
    <path sodipodi:nodetypes="csssssssssssssssssssssssssssssssssssssssccc" inkscape:label="UBERON_0000956" inkscape:connector-curvature="0" id="cerebral cortex" d="M 37.219074,32.915199 C 35.757092,32.567283 37.043864,32.871399 36.590773,32.802771 35.332616,32.612214 36.077097,32.798471 35.33311,31.93861 34.342151,30.793304 34.038318,30.16155 32.118972,27.917603 31.43634,27.119524 29.635528,25.627552 28.798738,24.773515 27.995577,23.953802 26.661291,22.690308 26.235575,21.471357 24.85723,17.524764 25.167361,16.115007 26.934586,13.126085 28.176538,11.025562 28.245205,10.58092 29.495589,9.8921116 30.209539,9.4988126 33.198651,8.6223816 34.191955,8.4156476 35.681315,8.1056716 40.307795,8.0858856 43.228814,7.8462296 44.947202,7.7052436 49.636176,7.2955746 51.339158,7.0947156 54.936728,6.6703956 54.134674,6.6151446 62.329338,5.1893556 62.329338,5.1893556 66.172386,6.3180776 67.863602,4.0350846 68.2325,3.5371046 68.825031,3.4899356 69.361205,3.2525286 69.970596,2.9827036 70.872871,3.0090046 70.872871,3.0090046 71.238099,2.9769246 72.44823,2.8758876 72.961766,2.7693086 73.475304,2.6627316 74.187604,2.5851776 75.478529,2.5558186 81.035818,2.4294316 80.363704,2.5140786 82.187591,2.6643056 84.27314,2.8360776 85.650269,3.4166106 86.376354,3.9559546 87.060565,4.4641966 86.48064,4.7886856 85.6973,5.7346566 85.299049,6.2155906 84.888301,6.5140606 84.22769,6.8025446 82.517135,7.5495316 80.976339,9.1427216 77.359402,13.904382 73.795231,18.596574 72.246284,18.97717 71.455209,18.878584 71.171324,18.843204 70.537897,19.30379 70.079596,18.399437 69.721683,17.693175 69.122901,16.640689 69.721683,16.595962 70.741949,16.519742 73.537022,16.000093 74.768382,13.699752 75.363716,12.587588 75.421095,12.410456 75.485911,11.484658 75.485911,11.484658 75.407621,10.779948 75.556361,10.478393 75.693444,10.200479 76.252683,9.8624466 76.252683,9.8624466 76.792123,9.3852746 76.990759,9.1016256 77.134338,8.6034806 77.307999,8.0009506 77.304614,7.9442206 77.080568,7.7025416 76.868447,7.4737226 76.735201,7.4653706 75.899661,7.6284816 74.776253,7.8477926 70.720992,8.7192666 72.144715,9.8575556 72.744281,10.336917 71.266469,11.176561 70.517603,11.487255 68.687655,12.246475 64.716495,14.508955 61.723869,16.233671 58.157511,18.289036 55.389148,18.571775 52.540123,20.263813 50.0503,21.742519 49.510179,22.063195 46.883704,24.466833 45.5783,25.661484 45.622639,26.664342 45.213514,28.413093 45.024604,29.220565 44.801584,31.862525 45.380728,32.696266 L 45.531207,32.912897 C 45.380728,32.696266 43.556251,32.824127 43.556251,32.824127 43.556251,32.824127 38.414277,32.845927 36.488233,32.747257 Z" style="fill:#88fafa;fill-opacity:1;stroke:#000000;stroke-width:0.21602426;stroke-miterlimit:4;stroke-dasharray:none;stroke-opacity:1"/>
    <path inkscape:label="UBERON_0000369" sodipodi:nodetypes="sssscscscssssss" inkscape:connector-curvature="0" id="corpus striatum" d="M 44.261952,54.27337 C 42.524046,51.44918 40.538404,48.640212 40.20009,47.726149 40.060835,47.34991 40.20799,47.961064 41.085925,47.105634 42.804269,45.431275 38.890158,49.172003 40.472715,47.681136 41.391125,46.815937 43.375908,43.811805 43.316465,43.139421 43.316465,43.139421 43.630798,39.479387 43.754726,38.469751 44.025955,36.260332 43.847596,34.923564 44.322718,35.407623 45.465186,35.572258 40.598918,34.742608 50.387221,36.338708 51.40486,36.504646 53.672358,36.569732 53.672358,36.569732 53.827697,37.709795 52.950532,42.847432 52.642213,43.901083 51.801772,46.773206 52.337385,43.189614 52.342444,44.473337 52.350444,46.490662 50.423194,46.141895 49.872419,49.474156 49.573336,51.28364 50.63441,51.929591 50.458791,53.36017 50.217524,55.325528 50.20902,54.173785 48.680888,54.582198 46.589503,55.141148 45.031164,55.523385 44.261952,54.27337 Z" style="fill:#88fafa;fill-opacity:1;stroke:#000000;stroke-width:0.21602426;stroke-miterlimit:4;stroke-dasharray:none;stroke-opacity:1"/>
    <path inkscape:label="UBERON_0001894" sodipodi:nodetypes="csscscccccccsscscssscscssscsssssssssssscscscssscscscc" inkscape:connector-curvature="0" id="diencephalon" d="M 73.236975,55.71065 C 72.01277,55.951604 73.693188,55.295762 72.821006,55.72769 72.221704,56.024484 71.636766,56.183047 70.167085,57.233625 L 68.850414,58.33476 68.184986,58.724808 C 67.606838,59.063695 64.516481,58.948853 63.332504,58.896078 62.835798,58.716352 62.268193,58.894278 61.272005,58.752166 L 60.326546,58.753154 58.786868,58.59776 57.381661,58.397133 56.155112,58.059693 C 55.588453,57.713313 55.311528,57.75736 55.096859,57.324494 55.096859,57.324494 54.806976,56.621954 54.765719,56.40075 54.620277,55.620965 54.255824,54.85074 54.34825,53.838438 54.543507,51.699901 54.242753,51.185864 54.781585,49.173365 55.110056,47.946475 56.190633,46.438063 56.753604,45.473735 L 58.096681,43.173137 57.654543,42.152494 C 56.707046,39.965264 56.538269,38.313674 56.783572,35.860861 56.953841,34.158325 57.38546,33.488594 57.997246,31.805614 58.355791,30.819303 58.694385,29.85013 59.137074,29.026388 59.926206,27.557949 60.298088,27.114943 60.673364,27.220916 60.883882,27.280366 62.211415,27.493826 62.771171,27.577982 63.900956,27.532102 63.751585,27.699244 64.881456,27.373412 65.592347,27.168406 66.956241,26.874857 67.694639,26.439539 68.433036,26.004221 69.494879,25.623304 69.775481,25.380585 70.525019,24.732244 71.182065,24.382992 71.353145,24.187677 71.430215,24.099697 71.442795,24.006731 71.761163,23.678464 72.288038,23.135217 72.611885,22.658261 72.903754,23.466229 73.363371,24.738535 76.083101,29.451084 76.566215,33.350469 76.97729,36.668428 76.972264,35.857011 76.646225,37.933935 76.527559,38.689846 76.123652,39.484873 75.602055,40.08536 75.054097,40.716197 74.491673,41.141095 73.525399,41.478793 72.662486,41.780368 73.214399,41.791865 72.84308,42.210269 72.434543,42.67061 72.577849,42.380529 72.287866,42.460576 72.287866,42.460576 71.55613,42.360586 72.363326,42.393906 72.887498,42.415546 72.708937,41.674887 73.188958,41.577591 74.01064,41.411034 75.254005,42.281508 76.752069,43.218779 77.832411,43.8947 78.736168,44.503261 80.0726,46.712489 80.651055,47.668719 81.300477,49.148966 81.225848,51.053713 81.225848,51.053713 78.968738,52.918364 79.632783,52.383406 80.200857,51.925761 79.772877,52.254241 79.772877,52.254241 79.611513,52.634946 79.40511,52.790278 79.138164,52.792163 78.518268,52.796563 76.925815,53.243141 78.190477,52.276508 78.190477,52.276508 76.994818,52.645996 78.304573,52.04363 78.385153,52.00657 77.977314,52.532953 79.001559,52.608607 79.707595,52.660757 77.746753,53.980402 77.141189,54.412778 76.933794,54.560859 77.539641,53.847445 76.936554,54.586562 76.936554,54.586562 76.109195,55.448642 75.717346,55.577278 75.507506,55.646158 75.058404,55.641268 75.058404,55.641268 75.058404,55.641268 72.97529,55.697748 73.465072,55.615168 L 74.156004,55.498671 Z" style="fill:#88fafa;fill-opacity:1;stroke:#000000;stroke-width:0.21602426;stroke-miterlimit:4;stroke-dasharray:none;stroke-opacity:1"/>
    <path inkscape:label="UBERON_0000007" sodipodi:nodetypes="ssscsscssssssssss" inkscape:connector-curvature="0" id="pituitary gland" d="M 76.325773,59.2614 C 73.861738,59.122234 72.328162,58.023296 72.055811,57.77408 72.055811,57.77408 71.028778,57.389103 70.192078,57.415032 69.654397,57.431692 70.480488,56.760705 70.722669,56.553965 70.722669,56.553965 70.690149,56.422643 71.08549,56.256233 72.854762,55.511482 73.147844,55.406211 75.061019,55.24162 75.920286,55.1677 77.268493,54.228142 77.268493,54.228142 77.83024,53.818979 81.03245,50.655442 81.321008,50.896503 82.099307,51.546692 81.272498,50.644987 82.644995,52.335972 82.864158,52.605992 83.857577,53.726432 84.394981,54.236021 84.944819,54.7574 85.703232,55.676031 85.699676,55.979076 85.693576,56.496691 84.715507,56.913163 84.133197,57.566174 83.733889,58.013962 83.073189,58.497765 83.073189,58.497765 83.011269,58.68684 83.109109,58.482685 82.631256,58.774099 82.435949,58.893208 81.988041,59.164351 81.490272,59.323436 80.674094,59.58428 80.363761,59.576418 79.756654,59.559883 77.576246,59.500503 77.887687,59.349615 76.325773,59.2614 Z" style="fill:#88fafa;fill-opacity:1;stroke:#000000;stroke-width:0.21602426;stroke-miterlimit:4;stroke-dasharray:none;stroke-opacity:1"/>
    <g style="fill:#88fafa;fill-opacity:1;stroke:#000000;stroke-width:0.21602426;stroke-miterlimit:4;stroke-dasharray:none;stroke-opacity:1" id="hippocampus" transform="matrix(0.15514368,0,0,0.14672848,-38.46869,-51.336708)" inkscape:label="EFO_0000530">
      <path sodipodi:nodetypes="cssssssssssssasssssssaacc" inkscape:connector-curvature="0" id="path4435" d="M 649.13219,544.02418 C 648.31054,544.14768 648.32207,543.28721 645.92335,544.04488 642.0885,545.25613 648.5364,542.88049 643.22887,545.32294 643.22887,545.32294 641.61709,545.85126 636.96571,542.19697 635.10318,540.7337 634.52136,537.88665 634.22057,536.48613 633.57594,533.48464 634.17957,529.64185 637.19042,524.40844 638.68086,521.81783 640.60241,517.99048 641.46055,515.9032 645.94541,504.99453 644.22372,484.64659 662.59037,477.78183 666.92293,476.16248 671.60809,467.8934 678.39398,464.68052 682.11482,462.91885 687.96073,459.92965 692.97565,461.53947 698.61595,463.35004 697.67095,474.23451 701.45973,474.8041 703.5941,475.12498 707.8999,475.65277 710.01029,475.75361 715.36644,476.00954 715.47772,478.89709 717.69254,481.07709 719.48084,482.83728 719.13004,483.68432 719.25088,485.18607 719.4108,487.17347 718.8468,489.65514 718.10863,491.18196 716.56671,494.37123 704.71611,497.58424 702.0958,498.9771 666.21862,518.04811 702.94008,497.96998 706.2035,496.16017 710.07335,494.01404 715.16508,501.0301 716.01021,504.65288 716.59528,507.1609 710.25739,514.44606 707.1877,517.64822 699.93863,525.21012 696.74582,529.46925 689.05927,534.41302 682.66829,538.52351 677.81124,539.54037 671.61432,542.90047 671.61432,542.90047 666.0672,544.44966 663.23472,544.66492 660.46938,544.87507 657.70018,544.3142 654.93085,544.19507 652.99866,544.11197 654.93085,544.19507 649.13219,544.02424 Z" style="fill:#88fafa;fill-opacity:1;stroke:#000000;stroke-width:0.21602426;stroke-miterlimit:4;stroke-dasharray:none;stroke-opacity:1"/>
      <path sodipodi:nodetypes="ccssssssscssssssscc" inkscape:connector-curvature="0" id="path4455" d="M 710.30588,496.85945 C 709.70246,496.92565 708.97662,497.01937 708.69287,497.06756 708.40915,497.11576 706.81151,497.03316 705.39655,497.29486 703.26301,497.68951 701.36942,497.91755 699.75662,498.15795 696.34023,498.66718 694.4585,499.26501 692.81841,499.49289 690.1281,499.86667 688.29689,500.7952 685.69219,501.59928 684.32059,502.0227 683.90378,502.26804 682.63129,502.69289 681.12044,503.19732 679.66189,503.49091 678.37534,504.60252 676.99289,505.79699 677.01915,506.26123 675.32436,507.18493 675.26236,507.21863 676.97765,504.66317 676.97118,504.5498 676.95288,504.22742 684.37236,500.92818 688.30282,499.99831 690.03261,499.58907 692.18479,499.06944 693.08546,498.84358 693.98614,498.61771 695.73853,498.27294 696.97968,498.07742 698.22086,497.8819 700.93504,497.44911 703.01122,497.11572 705.0874,496.78228 707.19135,496.49813 707.68667,496.48427 708.18199,496.47057 709.17247,496.39377 709.88772,496.314 710.81646,496.21042 711.26768,496.2355 711.46627,496.402 711.7956,496.678 711.73287,496.70272 710.3059,496.85945 Z" style="fill:#88fafa;fill-opacity:1;stroke:#000000;stroke-width:0.21602426;stroke-miterlimit:4;stroke-dasharray:none;stroke-opacity:1"/>
    </g>
    <path inkscape:label="UBERON_0002037" sodipodi:nodetypes="csscsssccscssccccsscasssssscsssasssssssccsssscssccsccsscccsscsscascaassascsacc" inkscape:connector-curvature="0" id="cerebellum" d="M 115.61856,41.020077 C 115.61856,41.020077 115.68356,41.112997 115.14155,41.177656 114.84048,41.213576 114.11018,41.301791 113.34193,41.400205 112.76379,41.474265 112.00652,41.674134 111.45471,41.582316 111.27437,41.919798 110.38195,40.995583 110.38195,40.995583 110.30295,41.562882 111.06878,41.649597 111.06878,41.649597 110.79214,41.32055 109.73938,41.034869 111.03988,41.646097 111.03988,41.646097 111.06878,41.649597 110.10426,41.828847 L 108.83051,41.872607 C 108.06775,41.660558 108.01749,41.912747 107.41193,41.879407 106.40661,41.824067 105.25079,41.989273 104.59122,41.790407 104.59122,41.790407 103.44395,42.076745 103.30063,41.576082 103.16406,41.099012 103.16406,41.099012 103.16406,41.099012 103.10156,40.723458 102.12849,39.978022 102.12849,39.978022 99.793621,39.012492 99.890611,39.230332 99.975541,38.866384 99.998441,39.195594 98.517431,39.169459 98.517431,39.169459 97.649311,39.469825 97.410941,39.497147 97.410941,39.497147 97.410941,39.497147 97.233871,39.210741 97.063695,39.246913 96.831316,39.296303 96.622355,38.927618 96.622355,38.927618 95.791679,38.663741 96.462583,38.735011 96.462583,38.735011 96.462583,38.735011 96.061638,38.558917 95.886254,38.4307 95.763914,38.34126 95.562034,38.111993 95.562034,38.111993 94.851064,37.758375 94.766089,37.425458 94.347408,36.999521 93.597228,36.236303 93.342222,35.487877 93.192413,35.065413 92.689285,33.646467 92.68171,33.671925 92.496824,33.009991 92.280287,32.234748 93.942478,29.540569 93.09214,31.394475 92.491653,32.703645 92.863466,31.742604 93.363153,30.629117 94.082044,29.027119 97.614281,31.330203 95.844212,30.434739 95.844212,30.434739 94.073612,30.601711 93.819627,30.081378 93.364701,29.149368 94.120678,28.441519 94.410876,26.83004 94.54201,26.101926 96.661894,27.536157 96.500673,26.82344 96.432713,26.522946 95.638264,26.81764 95.242193,26.660025 94.98447,26.557422 94.701008,26.747595 94.557243,26.167705 94.463623,25.790105 94.601163,24.728709 94.712305,23.861438 94.871583,22.610732 94.923226,20.811169 94.893271,20.744139 94.893271,20.744139 94.883221,20.18734 94.864531,19.976648 94.835021,19.646592 94.871931,19.209109 94.871931,19.209109 95.000809,18.681175 94.732596,17.907314 94.909841,17.040817 95.039164,16.40846 95.201373,16.111907 95.482744,16.083635 L 97.065527,17.577647 95.202509,15.753301 C 94.858494,15.571653 94.773289,14.799535 94.686454,13.998203 94.56879,12.911939 94.629834,13.015499 94.671964,12.568227 94.710634,12.158725 94.861114,11.434638 95.030948,11.003234 95.492363,9.8308046 96.092093,9.5282096 97.128222,9.6315676 97.598451,9.6784776 98.329991,9.7338976 98.583611,10.174609 98.878091,10.488982 98.425271,9.8128116 97.661391,9.7292366 96.044879,9.5523766 97.807891,9.5859856 97.986981,9.5728936 98.245721,9.5539836 99.573411,9.3893316 100.33861,9.4783736 100.68248,9.4320436 101.42182,9.3865236 101.69751,9.4927336 102.98473,9.7957736 104.31568,10.489337 105.30562,11.897 105.56283,12.262744 105.35722,12.576812 105.33282,12.988707 L 104.40406,13.853775 C 104.40406,13.853775 105.70916,12.240473 106.18645,12.352774 106.68072,12.469068 106.06078,12.19014 106.97315,12.945437 107.82484,13.650492 109.34755,15.026882 110.17072,15.976214 111.0739,16.998186 111.31222,16.96098 111.09796,17.596286 111.08726,17.892811 111.14406,17.306829 111.16456,17.304125 111.18506,17.301425 111.00604,17.362565 111.14906,17.273875 111.32497,17.164833 111.07176,17.259895 111.23956,17.320705 111.57496,17.442219 112.65574,19.510619 113.13156,20.554418 113.47306,21.303561 113.52374,21.499649 113.54165,22.140855 113.55285,22.543252 113.47085,22.784692 113.31724,23.002101 L 111.92942,24.966454 C 111.92942,24.966454 112.47732,23.396974 113.13367,23.408253 114.82346,23.437293 115.48816,25.591659 116.09441,27.524089 116.366,28.389762 116.05391,28.856127 116.00851,29.402713 115.95581,30.038642 116.16005,30.571004 115.84317,31.004095 115.78877,31.078395 115.66975,31.067265 115.58991,31.114282 115.07965,31.414762 113.60447,32.001949 114.16777,32.200734 114.63297,32.364899 115.81988,30.68673 116.7771,32.625623 117.56527,34.22211 118.15418,35.01952 118.37324,36.353341 118.50803,37.174035 118.98349,38.640142 118.17633,38.840628 117.66456,38.967744 117.49998,39.067645 117.14007,39.558679 116.43977,39.81864 116.37657,40.995353 116.18337,40.508006 116.18337,40.508006 116.00136,40.690117 115.91268,40.783416 115.87098,40.827296 115.78978,40.917139 115.78978,40.917139 Z" style="fill:#88fafa;fill-opacity:1;stroke:#000000;stroke-width:0.21602426;stroke-miterlimit:4;stroke-dasharray:none;stroke-opacity:1"/>
    <path inkscape:label="UBERON_0002298" sodipodi:nodetypes="sccsscssssssssssssss" inkscape:connector-curvature="0" id="brainstem" d="M 107.13386,55.542456 C 107.13386,55.411258 107.25902,54.834121 107.41201,54.25993 107.56498,53.685741 107.74554,52.42686 107.81323,51.462422 107.92071,49.931356 107.86963,49.468788 107.41072,47.81632 107.1131,46.744657 106.51417,45.267871 106.02992,44.41165 105.25432,43.040296 105.20653,43.026405 105.51652,42.84499 105.70449,42.734967 106.99764,42.82159 108.50869,42.80041 110.01974,42.77924 112.69066,42.551375 114.14774,42.471855 114.14774,42.471855 116.19909,42.117027 116.65152,42.327268 117.18495,42.575157 117.80269,43.17305 117.80269,43.17305 118.8124,43.540935 119.53811,43.561683 121.02929,45.414853 121.02929,45.414853 121.7491,46.148303 121.79546,46.665408 121.84056,47.168531 121.03663,48.380023 121.03663,48.380023 120.31786,50.240871 119.33221,51.385045 117.85838,52.633657 117.05001,53.318483 115.41053,54.258034 115.08787,54.796977 114.83539,55.218703 113.74959,55.330813 113.30221,55.375728 112.8109,55.425048 111.77943,55.059736 111.77943,55.059736 109.87711,54.508754 108.66676,54.803103 107.7948,55.359359 107.38813,55.618798 107.13386,55.689234 107.13386,55.542454 Z" style="fill:#88fafa;fill-opacity:1;stroke:#000000;stroke-width:0.21602426;stroke-miterlimit:4;stroke-dasharray:none;stroke-opacity:1"/>
    <path inkscape:label="UBERON_0001891" sodipodi:nodetypes="csccsscsssssccscssssccssassssssccc" inkscape:connector-curvature="0" id="midbrain" d="M 80.749743,49.767453 C 80.500172,47.931233 79.089018,45.565334 77.390795,44.135909 76.376585,43.28223 74.729684,42.239062 73.839691,41.886618 L 73.237344,41.648075 74.131355,41.19737 C 74.956596,40.781337 75.074309,40.663204 75.661349,39.661857 76.249287,38.658984 76.309017,38.469432 76.452255,37.152199 76.60371,35.759208 76.596201,35.673336 76.116375,33.311678 75.567729,30.61134 74.920482,28.753559 73.380927,25.460221 72.856934,24.339297 72.41174,23.2148 72.391633,22.961342 72.371523,22.707883 72.18888,22.282633 71.985781,22.016345 71.718045,21.665318 71.672083,21.532181 71.818681,21.532181 71.929872,21.532181 72.210749,21.372399 72.442832,21.177111 72.804682,20.872644 72.864197,20.730935 72.860442,20.182764 72.855142,19.406662 72.638487,19.092463 71.984002,18.911749 L 71.486868,18.774486 72.278696,18.11096 C 73.419265,17.155222 74.826285,15.539765 75.868351,13.989528 77.021897,12.273481 79.97384,8.7862386 81.209149,7.6802296 81.732039,7.2120806 82.820966,6.5215896 83.226637,6.1522506 84.484557,5.0069796 85.020952,5.2922336 85.201062,4.6910506 L 85.246162,3.9957576 85.918942,3.8425486 C 87.022744,3.5911856 88.275042,5.2003476 89.52481,6.2863356 90.066325,6.7568936 91.303599,7.3595456 91.946299,8.1496096 92.710732,9.0893216 92.950115,9.7714576 93.529836,11.420567 93.529836,11.420567 94.113675,13.237672 94.17319,13.586858 94.485702,15.420667 94.364683,19.264581 94.364683,19.264581 94.361683,25.846427 93.904979,25.749818 92.683681,29.926821 91.586939,33.677828 89.994492,39.259127 89.152313,40.727319 87.49942,43.608851 85.576858,47.324294 82.081602,49.675347 L 81.431734,50.600856 80.749758,49.767453 Z" style="fill:#88fafa;fill-opacity:1;stroke:#000000;stroke-width:0.21602426;stroke-miterlimit:4;stroke-dasharray:none;stroke-opacity:1"/>
    <path inkscape:label="UBERON_0001897" sodipodi:nodetypes="sssssccsscsssss" inkscape:connector-curvature="0" id="dorsal plus ventral thalamus" d="M 62.67018,44.956592 C 59.87726,44.755405 58.208623,43.124019 57.26621,41.161318 55.655381,37.806522 57.070526,30.625407 59.990803,27.453948 60.502989,26.897702 60.074873,27.446748 61.651446,27.430338 63.867651,27.407268 64.671191,27.770331 67.203596,26.561079 68.386076,25.996438 70.319458,24.960893 70.319458,24.960893 70.319458,24.960893 70.789087,24.580517 71.113802,24.382309 71.113802,24.382309 71.202852,24.289519 71.91985,23.633235 72.408168,23.186264 72.087559,22.949214 72.713232,23.180488 72.713232,23.180488 72.624552,23.711211 72.637232,23.194618 72.647772,22.764864 73.462128,25.022684 73.838815,25.686556 76.04083,29.567374 76.751207,32.077333 76.690589,34.505731 76.596219,38.286144 76.595229,39.928608 74.139082,41.151606 70.511169,42.958061 70.696598,43.93761 68.432307,44.535681 67.123139,44.881466 64.055594,45.056393 62.67018,44.956596 Z" style="fill:#88fafa;fill-opacity:1;stroke:#000000;stroke-width:0.21602426;stroke-miterlimit:4;stroke-dasharray:none;stroke-opacity:1"/>
    <path inkscape:label="UBERON_0001898" sodipodi:nodetypes="sscssccssacsscscassscsss" inkscape:connector-curvature="0" id="hypothalamus" d="M 59.164457,58.747596 C 57.889536,58.654576 54.996505,58.480459 54.947114,58.063259 54.947114,58.063259 54.622639,57.304771 54.349398,56.557708 53.87453,55.259312 54.046589,54.633058 54.046589,52.867537 54.046589,49.769848 54.33979,48.941891 56.824296,45.023513 57.269004,44.322145 57.696151,43.487926 57.773491,43.169691 L 57.91414,42.591085 58.798373,43.114494 C 60.029152,43.843042 61.170829,45.021323 62.942197,44.78567 64.965718,44.516472 67.210865,44.79627 69.17393,44.08943 70.60007,43.575914 72.128864,41.602797 72.96242,41.600954 73.194458,41.60046 73.890623,41.798933 74.509432,42.042049 75.377386,42.383044 76.020276,42.789651 77.322198,43.821019 78.250402,44.556341 79.111719,45.275396 79.236207,45.418921 79.360713,45.562446 79.850355,46.337473 80.324311,47.141203 81.041046,48.356646 81.22234,48.798627 81.401794,49.767949 81.520472,50.408927 81.302164,51.119339 80.910166,51.62614 80.770007,51.807346 81.057328,51.378643 80.311284,51.96328 78.041284,53.742162 77.516897,54.180716 75.855412,55.140636 74.957857,55.659196 73.774473,55.067856 72.82633,55.64632 L 70.852846,56.365433 69.821548,57.677399 C 69.094479,58.60234 68.679357,58.525257 67.782308,58.693431 66.712626,58.893966 61.610343,58.926036 59.164457,58.747601 Z" style="fill:#88fafa;fill-opacity:1;stroke:#000000;stroke-width:0.21602426;stroke-miterlimit:4;stroke-dasharray:none;stroke-opacity:1"/>
    <path inkscape:label="UBERON_0000004" sodipodi:nodetypes="ssssssscsssssssssscssssssssssscscs" inkscape:connector-curvature="0" id="nose" d="M 34.166422,40.732564 C 33.793046,40.527106 32.720031,40.12323 31.653244,39.726701 29.584789,38.957846 28.923647,38.897091 26.799338,38.68857 23.409432,38.355818 21.079954,37.84889 19.226552,37.003985 18.499986,36.672767 17.049333,35.915303 16.51594,35.739806 15.717649,35.477154 14.98854,35.058845 13.312132,34.012912 10.17656,32.056589 9.9249841,31.65659 7.3917221,28.49055 L 6.6563301,27.571468 6.4321817,26.442647 C 6.2492065,25.521181 6.1259819,25.16697 5.7613522,24.514351 5.3294247,23.741279 5.0869821,23.83828 4.0994116,23.192211 3.0842574,22.528099 3.2712969,22.375474 3.1433328,21.858113 3.0725278,21.571841 2.9053563,21.014747 2.7718426,20.620126 2.4285059,19.605334 2.48631,19.10546 3.079867,17.956434 3.5425238,17.060808 3.545623,17.057476 4.290601,16.655099 4.7013904,16.433223 5.4903279,16.094066 6.043797,15.901416 6.5972662,15.708767 7.2598651,15.444851 7.5162411,15.314935 7.9260871,15.10725 8.0906671,15.081873 8.8790811,15.104791 L 9.7757831,15.130851 11.327474,14.367881 C 12.75473,13.666096 12.991933,13.581851 14.285385,13.317356 15.660929,13.036076 15.574693,12.98365 16.855373,13.088484 18.929764,13.258286 19.895485,13.490023 21.510444,14.144435 22.310535,14.468648 22.998042,14.779582 23.038238,14.835402 23.15678,15.000015 24.115902,16.114913 24.326163,17.966124 24.44959,19.052818 25.196901,20.889062 25.196901,20.889062 25.825337,22.467805 27.867648,25.216491 29.254679,26.363459 30.538397,27.424996 32.382297,29.162033 33.153128,30.233414 33.906831,31.280987 34.634216,32.343039 35.464856,34.31597 36.036076,35.67273 36.91268,36.626904 36.592626,39.182058 L 36.410413,40.636768 35.717309,40.903465 C 35.368288,41.037764 35.188822,41.069682 35.152953,41.065405 35.117083,41.061105 34.539797,40.938016 34.166422,40.732559 Z" style="fill:#88fafa;fill-opacity:1;stroke:#000000;stroke-width:0.21602426;stroke-miterlimit:4;stroke-dasharray:none;stroke-opacity:1"/>
    <path inkscape:label="UBERON_0002259" sodipodi:nodetypes="ccccccc" inkscape:connector-curvature="0" id="corpora quadrigemina" d="M 84.969429,39.211748 C 87.508491,34.524248 92.586616,35.500818 92.586616,35.500818 98.836616,37.649248 98.445991,40.188318 98.445991,40.188318 97.664741,43.508628 94.149116,41.555498 94.149116,41.555498 90.438179,40.774248 88.680366,40.969568 88.680366,40.969568 88.029324,41.034668 87.378283,41.099778 86.727241,41.164878 85.067085,41.164878 84.969429,39.211748 84.969429,39.211748 Z" style="fill:#88fafa;fill-opacity:1;stroke:#000000;stroke-width:0.21602426;stroke-miterlimit:4;stroke-dasharray:none;stroke-opacity:1"/>
  </g>
</svg>
