<?xml version="1.0" encoding="UTF-8" standalone="no"?>
<!-- Created with Inkscape (http://www.inkscape.org/) -->

<svg
              xmlns:dc="http://purl.org/dc/elements/1.1/"
              xmlns:cc="http://creativecommons.org/ns#"
              xmlns:rdf="http://www.w3.org/1999/02/22-rdf-syntax-ns#"
              xmlns:svg="http://www.w3.org/2000/svg"
              xmlns="http://www.w3.org/2000/svg"
              xmlns:sodipodi="http://sodipodi.sourceforge.net/DTD/sodipodi-0.dtd"
              xmlns:inkscape="http://www.inkscape.org/namespaces/inkscape"
              version="1.1"
              id="svg2"
              width="364.82297"
              height="177.89873"
              viewBox="0 0 364.82297 177.89873"
              sodipodi:docname="coleoptile_A.svg"
              inkscape:version="0.92.3 (unknown)">
             <metadata
                           id="metadata8">
                          <rdf:RDF>
                                       <cc:Work
                                                     rdf:about="">
                                                    <dc:format>image/svg+xml</dc:format>
                                                    <dc:type
                                                                  rdf:resource="http://purl.org/dc/dcmitype/StillImage" />
                                                    <dc:title />
                                       </cc:Work>
                          </rdf:RDF>
             </metadata>
             <defs
                           id="defs6" />
             <sodipodi:namedview
                           pagecolor="#ffffff"
                           bordercolor="#666666"
                           borderopacity="1"
                           objecttolerance="10"
                           gridtolerance="10"
                           guidetolerance="10"
                           inkscape:pageopacity="0"
                           inkscape:pageshadow="2"
                           inkscape:window-width="1855"
                           inkscape:window-height="1056"
                           id="namedview4"
                           showgrid="false"
                           inkscape:zoom="1.8767396"
                           inkscape:cx="141.46801"
                           inkscape:cy="105.49281"
                           inkscape:window-x="65"
                           inkscape:window-y="24"
                           inkscape:window-maximized="1"
                           inkscape:current-layer="container"
                           fit-margin-top="0"
                           fit-margin-left="0"
                           fit-margin-right="0"
                           fit-margin-bottom="0" />
             <g
                           id="container"
                           transform="translate(-20.41935,-107.57644)">
                          <path
                                        inkscape:connector-curvature="0"
                                        id="embryo0h"
                                        d="M 20.60385,233.68782 29.66211,229.15869 44.98123,228.62585 50.17641,229.69153 54.0395,232.48894 54.97196,235.01992 52.97382,240.88115 50.84246,242.61288 47.64543,243.67855 28.46323,243.94497 24.99977,243.14572 21.80274,241.68041 20.60385,238.74979 V 235.81918 Z"
                                        style="opacity:1;fill:none;fill-opacity:1;fill-rule:evenodd;stroke:#000000;stroke-width:0.36899999;stroke-miterlimit:4;stroke-dasharray:none;stroke-opacity:1" />
                          <path
                                        inkscape:connector-curvature="0"
                                        id="embryoColeoptile1h"
                                        d="M 59.76752,233.95424 66.82763,228.22622 74.02096,227.02734 83.47885,227.29376 88.94045,227.69339 93.86921,231.29005 94.80168,233.68782 95.0681,236.75165 92.00427,240.08189 87.07551,241.81362 82.94601,242.61288 65.76195,242.74609 60.69998,240.61473 Z"
                                        style="opacity:1;fill:none;fill-opacity:1;fill-rule:evenodd;stroke:#000000;stroke-width:0.36899999;stroke-miterlimit:4;stroke-dasharray:none;stroke-opacity:1" />
                          <path
                                        inkscape:connector-curvature="0"
                                        id="embryoColeoptile3h"
                                        d="M 99.1976,232.88857 107.98944,226.76092 H 127.30486 L 129.96906,227.9598 H 131.83399 L 135.43065,231.42326 136.22991,236.35202 133.03288,240.08189 125.04029,243.14572 122.50931,244.07818 110.65364,243.41214 H 107.19019 L 101.06254,238.883 V 234.08745 Z"
                                        style="opacity:1;fill:none;fill-opacity:1;fill-rule:evenodd;stroke:#000000;stroke-width:0.36899999;stroke-miterlimit:4;stroke-dasharray:none;stroke-opacity:1" />
                          <path
                                        inkscape:connector-curvature="0"
                                        id="embryoColeoptile12h"
                                        d="M 141.02732,231.9561 145.95608,227.69339 150.352,226.36129 163.00693,226.09487 167.93569,226.76092 173.79692,227.9598 175.66185,231.68968 176.06148,234.35387 178.72568,233.55461 176.99395,237.55091 174.9958,239.01621 174.46296,239.94868 171.53235,242.34646 167.40285,243.01251 166.07075,243.94497 H 158.47779 L 156.34644,244.87744 148.88669,243.81176 146.08929,243.01251 141.42695,239.81547 142.62583,236.21881 141.69337,234.62029 Z"
                                        style="opacity:1;fill:none;fill-opacity:1;fill-rule:evenodd;stroke:#000000;stroke-width:0.36899999;stroke-miterlimit:4;stroke-dasharray:none;stroke-opacity:1" />
                          <path
                                        inkscape:connector-curvature="0"
                                        id="embryoColeoptile24h"
                                        d="M 183.7895,233.68782 183.25666,231.42326 187.25295,227.8266 187.65258,226.22808 188.71826,227.16055 190.44999,225.56203 191.78208,225.02919 192.84776,225.42882 192.0485,227.56018 192.31492,228.35943 194.17986,228.89227 198.70899,227.9598 H 216.02626 218.55724 L 222.15391,233.82103 221.75428,237.28449 220.28897,240.2151 217.22515,242.61288 213.49527,243.27893 208.30009,244.21139 195.51196,244.87744 193.11418,243.94497 190.71641,242.74609 189.2511,241.81362 186.72011,239.14942 187.25295,235.81918 186.05407,234.62029 183.92271,235.41955 Z"
                                        style="opacity:1;fill:none;fill-opacity:1;fill-rule:evenodd;stroke:#000000;stroke-width:0.36899999;stroke-miterlimit:4;stroke-dasharray:none;stroke-opacity:1" />
                          <path
                                        inkscape:connector-curvature="0"
                                        id="path839"
                                        d="M 232.00957,233.55461 230.14464,232.48894 229.47859,231.15684 V 227.29376 L 229.87822,224.76277 233.07525,223.69709 235.20661,223.16425 235.87266,221.43253 237.8708,221.96537 H 240.93463 L 241.8671,222.23179 242.53314,223.29746 242.66635,221.16611 243.99845,222.09858 243.06598,224.49635 242.26672,225.1624 242.66635,226.76092 245.33055,227.02734 247.4619,227.8266 249.46005,228.09301 254.78844,230.22437 257.31943,230.49079 259.58399,232.88857 261.58214,234.35387 263.8467,236.0856 264.64596,238.48337 V 242.34646 L 263.04745,243.67855 260.64967,244.74423 258.11868,245.41028 H 251.59141 249.06042 L 245.86339,243.67855 243.06598,242.74609 239.46932,240.48152 236.27229,238.74979 234.67377,237.01807 233.34167,235.41955 V 233.15499 L 234.40735,231.15684 V 230.35758 L 232.00957,228.09301 H 231.07711 L 230.81069,229.82474 231.60995,232.08931 Z"
                                        style="opacity:1;fill:none;fill-opacity:1;fill-rule:evenodd;stroke:#000000;stroke-width:0.36899999;stroke-miterlimit:4;stroke-dasharray:none;stroke-opacity:1" />
                          <path
                                        inkscape:connector-curvature="0"
                                        id="coleoptile48h"
                                        d="M 235.87266,221.43253 236.4055,219.83401 235.60624,217.56944 234.54056,215.03846 233.20846,211.17538 232.14278,208.91081 230.81069,204.78131 229.21217,200.5186 228.01328,195.58984 227.21402,192.12638 V 189.72861 L 228.94575,192.12638 230.54427,195.98947 231.87636,199.58613 233.07525,202.78316 234.80698,206.24662 236.67192,210.24291 238.27043,215.17167 239.73574,218.76833 240.93463,221.96537 V 221.96537 Z"
                                        style="opacity:1;fill:none;fill-opacity:1;fill-rule:evenodd;stroke:#000000;stroke-width:0.36899999;stroke-miterlimit:4;stroke-dasharray:none;stroke-opacity:1" />
                          <path
                                        sodipodi:nodetypes="cccccccccccccccccccccccccccccccccccccccccccccccccccccccccccccccccccccccccccccccccccccc"
                                        inkscape:connector-curvature="0"
                                        id="path841-7"
                                        d="M 278.36657,226.89413 280.36471,228.49264 V 232.08931 L 280.63113,235.01992 281.03076,237.81733 282.8957,240.74794 283.56175,242.8793 284.62742,245.54349 285.55989,248.47411 286.89199,251.27151 287.55804,253.26966 V 255.93385 L 289.55618,259.66372 290.62186,262.86076 290.88828,261.26224 290.22223,258.59805 289.02335,255.93385 V 254.46854 253.13645 250.33904 L 287.29162,247.40843 287.0252,244.87744 284.89384,240.61473 283.56175,238.08375 283.16212,235.81918 H 285.02705 L 287.0252,237.81733 289.8226,239.41584 293.15285,240.08189 296.6163,241.94683 H 298.61445 L 299.68013,243.01251 H 302.61074 L 303.80963,243.14572 305.40814,244.3446 308.73839,243.94497 310.2037,244.61102 312.60147,244.87744 V 243.94497 L 316.19813,244.21139 316.92512,244.03456 318.47931,243.18682 320.17479,241.39714 321.77608,239.98424 V 238.99521 L 321.68189,236.82876 321.02253,236.45198 V 235.22747 L 319.98641,233.39069 318.19673,231.50682 317.49028,230.65908 316.35996,229.81134 315.18254,229.05779 314.47609,228.77521 H 313.72254 L 311.74447,228.39844 310.33157,228.21005 309.67222,227.5036 H 307.08189 L 305.6219,226.60876 H 303.40835 L 302.13674,225.43134 299.92319,225.52553 298.79287,224.6307 H 296.34383 L 295.30771,223.54747 294.31867,223.21779 293.9419,222.51134 293.04706,223.40618 H 292.34061 L 292.01093,222.79392 V 221.89908 L 292.71738,221.00425 292.85867,219.92102 291.21029,219.59134 290.02242,218.23549 286.68899,218.50811 285.27135,218.54379 283.7219,220.72166 283.58061,221.6165 281.60255,221.75779 H 280.61352 L 281.27287,222.74683 H 279.76578 L 279.90707,226.60876 Z"
                                        style="opacity:1;fill:none;fill-opacity:1;fill-rule:evenodd;stroke:#000000;stroke-width:0.36899999;stroke-miterlimit:4;stroke-dasharray:none;stroke-opacity:1" />
                          <path
                                        inkscape:connector-curvature="0"
                                        id="path847-9"
                                        d="M 276.5161,191.94555 276.37481,189.54361 275.47997,188.55458 275.43287,184.97523 275.15029,181.49007 275.38578,178.75845 276.28062,176.6862 276.79868,176.30942 277.78771,176.45071 278.07029,177.11007 277.64642,177.43974 277.41094,178.0991 V 179.27652 L 277.17545,180.83071 V 182.4791 L 277.26965,183.32684 277.50513,184.08039 277.74061,185.21071 277.03416,189.11974 Z"
                                        style="opacity:1;fill:none;fill-opacity:1;fill-rule:evenodd;stroke:#000000;stroke-width:0.36899999;stroke-miterlimit:4;stroke-dasharray:none;stroke-opacity:1" />
                          <path
                                        inkscape:connector-curvature="0"
                                        id="coleoptile72h"
                                        d="M 285.27135,218.54379 284.96045,216.23735 283.29533,211.84143 281.43039,205.71378 280.03169,200.5186 278.16675,194.92379 276.5161,191.94555 277.74061,185.21071 V 185.21071 L 278.10015,185.33269 278.96601,188.49642 280.66443,192.15969 282.49739,196.46683 283.67481,200.61135 285.6265,206.24662 286.95859,209.84328 288.15748,212.57408 289.22316,215.50469 290.02242,218.23549 Z"
                                        style="opacity:1;fill:none;fill-opacity:1;fill-rule:evenodd;stroke:#000000;stroke-width:0.36899999;stroke-miterlimit:4;stroke-dasharray:none;stroke-opacity:1" />
                          <path
                                        sodipodi:nodetypes="ccccccccccccccccccccccccccccccccccccccccccccccccccccccccccccccccccccccccccccccccccccccccccccccccccccccccc"
                                        inkscape:connector-curvature="0"
                                        id="path853-9"
                                        d="M 289.8226,279.7784 292.81982,279.71179 294.55155,280.44444 296.15007,281.37691 297.81519,282.5092 H 300.61259 L 303.54321,282.70901 305.14173,282.10957 306.74024,281.51012 307.67271,280.77747 314.53301,272.85149 316.59776,271.6526 323.52467,268.58878 327.9872,266.191 331.65046,264.52588 333.5154,263.32699 335.58015,262.86076 337.31188,261.32885 338.24435,261.19564 V 259.73033 L 338.9104,259.06428 339.24342,254.53515 V 253.66929 L 338.66014,252.93998 338.82901,248.79571 338.977,247.74145 339.37663,245.6101 339.7601,245.05302 339.74059,243.97256 339.17682,242.74609 339.44323,239.14942 339.97607,238.41677 340.84194,237.61751 341.6412,236.48523 342.50706,233.75443 344.17218,231.68968 345.8373,229.75814 347.236,229.62493 347.63563,229.2919 354.82896,228.62585 H 358.02599 360.69019 L 373.0787,228.49264 377.94085,228.42604 380.07221,229.55832 380.80486,229.49172 381.47091,230.35758 383.40245,231.09023 384.0685,232.48894 V 234.35387 L 385.00097,234.6869 384.26831,236.55183 382.93622,238.15035 380.87147,239.34924 378.80671,240.81455 376.40894,241.08096 373.81135,241.88022 369.94827,242.01343 358.42562,242.14664 356.56069,241.41399 H 353.76328 L 352.631,240.28171 350.10001,240.41492 348.36829,239.34924 347.70224,238.01714 347.36921,236.81825 346.03712,236.01899 344.50521,236.0856 343.50613,237.4843 343.0399,238.8164 341.77441,239.54905 341.24157,240.94776 341.84101,242.8793 340.97515,246.67577 340.77533,248.80713 340.50891,251.67114 340.64212,255.60083 340.57552,258.86447 340.17589,260.39638 339.17682,262.32792 337.84472,263.52681 335.18052,264.65909 332.44972,265.65816 329.51911,267.5231 326.05566,268.9218 320.46085,271.45279 316.73097,273.31772 315.19906,274.64982 314.66622,275.31587 313.06771,276.84778 311.93542,278.04667 309.80407,280.31123 308.60518,281.57673 306.00759,282.84222 304.40907,283.64148 302.0779,283.44166 300.07975,283.57487 297.41556,283.50827 296.21667,282.70901 294.68476,282.17617 293.61908,281.51012 292.4868,280.57765 H 291.42112 290.15563 Z"
                                        style="opacity:1;fill:none;fill-opacity:1;fill-rule:evenodd;stroke:#000000;stroke-width:0.36899999;stroke-miterlimit:4;stroke-dasharray:none;stroke-opacity:1" />
                          <path
                                        inkscape:connector-curvature="0"
                                        id="coleoptile96h"
                                        d="M 347.63563,229.2919 350.83478,225.57263 353.09543,221.99328 354.22575,217.3778 355.54446,213.89264 356.58059,207.1107 358.18188,196.46683 359.3122,187.89522 359.68897,182.24361 361.10188,175.1791 362.138,168.30297 362.79736,158.31846 363.55091,154.64491 364.49284,150.59459 V 147.5804 L 365.01951,145.96921 365.75216,139.17551 366.81784,144.17087 367.48389,145.03674 368.68277,152.36327 368.54956,155.89333 367.95012,161.95438 367.28407,169.01449 365.81876,179.47146 365.35253,184.40022 364.75309,190.66108 363.95383,195.85626 363.08796,202.31693 361.48945,207.04587 361.02321,211.97464 361.15642,215.83772 360.15735,218.56852 356.09445,226.02826 354.82896,228.62585 Z"
                                        style="opacity:1;fill:none;fill-opacity:1;fill-rule:evenodd;stroke:#000000;stroke-width:0.36899999;stroke-miterlimit:4;stroke-dasharray:none;stroke-opacity:1" />
                          <path
                                        inkscape:connector-curvature="0"
                                        id="path857-1"
                                        d="M 358.51155,152.76104 359.59478,152.52556 359.73607,151.81911 363.598,151.63072 369.90897,151.39524 373.818,151.48943 375.79606,150.40621 376.36122,148.71072 376.40832,146.63847 375.60768,145.79072 374.52445,144.56621 373.62961,144.04814 372.12252,144.18943 370.80381,144.56621 370.70961,145.50814 370.28574,146.49717 370.14445,147.76879 369.95607,149.18169 369.53219,150.26492 V 151.11266 L 369.3909,151.39524 H 368.59026 L 368.11929,148.19266 367.48389,145.03674 V 145.03674 L 367.83671,144.14234 368.49607,143.15331 369.67349,142.44685 370.66252,141.59911 374.71284,141.31653 376.07864,142.11718 376.83219,142.87072 377.72703,144.09524 378.62187,145.27266 379.42251,147.10943 378.99864,149.88814 377.96251,151.77201 376.97348,152.52556 375.37219,153.13782 374.28897,153.79717 372.21671,153.93846 368.73155,153.70298 363.03284,153.04362 359.59478,152.99653 Z"
                                        style="opacity:1;fill:none;fill-opacity:1;fill-rule:evenodd;stroke:#000000;stroke-width:0.36899999;stroke-miterlimit:4;stroke-dasharray:none;stroke-opacity:1" />
                          <g
                                        transform="translate(153.01869,156.50322)"
                                        id="text893-9"
                                        style="font-style:normal;font-variant:normal;font-weight:normal;font-stretch:normal;font-size:16px;line-height:1.25;font-family:sans-serif;-inkscape-font-specification:'sans-serif, Normal';font-variant-ligatures:normal;font-variant-caps:normal;font-variant-numeric:normal;font-feature-settings:normal;text-align:start;letter-spacing:0px;word-spacing:0px;writing-mode:lr-tb;text-anchor:start;fill:#3f1d38;fill-opacity:1;stroke:none"
                                        aria-label="0h">
                                       <path
                                                     inkscape:connector-curvature="0"
                                                     id="path1092-4"
                                                     style="font-style:normal;font-variant:normal;font-weight:normal;font-stretch:normal;font-size:16px;font-family:sans-serif;-inkscape-font-specification:'sans-serif, Normal';font-variant-ligatures:normal;font-variant-caps:normal;font-variant-numeric:normal;font-feature-settings:normal;text-align:start;writing-mode:lr-tb;text-anchor:start;fill:#3f1d38;fill-opacity:1"
                                                     d="M -119.66335,112.27353 Q -120.8821,112.27353 -121.49929,113.47665 -122.10867,114.67197 -122.10867,117.07822 -122.10867,119.47665 -121.49929,120.67978 -120.8821,121.87509 -119.66335,121.87509 -118.43679,121.87509 -117.82742,120.67978 -117.21023,119.47665 -117.21023,117.07822 -117.21023,114.67197 -117.82742,113.47665 -118.43679,112.27353 -119.66335,112.27353 Z M -119.66335,111.02353 Q -117.70242,111.02353 -116.67117,112.57822 -115.6321,114.12509 -115.6321,117.07822 -115.6321,120.02353 -116.67117,121.57822 -117.70242,123.12509 -119.66335,123.12509 -121.62429,123.12509 -122.66335,121.57822 -123.6946,120.02353 -123.6946,117.07822 -123.6946,114.12509 -122.66335,112.57822 -121.62429,111.02353 -119.66335,111.02353 Z" />
                                       <path
                                                     inkscape:connector-curvature="0"
                                                     id="path1094-2"
                                                     style="font-style:normal;font-variant:normal;font-weight:normal;font-stretch:normal;font-size:16px;font-family:sans-serif;-inkscape-font-specification:'sans-serif, Normal';font-variant-ligatures:normal;font-variant-caps:normal;font-variant-numeric:normal;font-feature-settings:normal;text-align:start;writing-mode:lr-tb;text-anchor:start;fill:#3f1d38;fill-opacity:1"
                                                     d="M -105.78054,117.61728 V 122.89853 H -107.21804 V 117.66415 Q -107.21804,116.42197 -107.70242,115.80478 -108.18679,115.18759 -109.15554,115.18759 -110.3196,115.18759 -110.99148,115.92978 -111.66335,116.67197 -111.66335,117.95322 V 122.89853 H -113.10867 V 110.74228 H -111.66335 V 115.5079 Q -111.14773,114.71884 -110.45242,114.32822 -109.74929,113.93759 -108.83523,113.93759 -107.32742,113.93759 -106.55398,114.87509 -105.78054,115.80478 -105.78054,117.61728 Z" />
                          </g>
                          <g
                                        transform="translate(190.44878,122.40153)"
                                        id="text905-0"
                                        style="font-style:normal;font-variant:normal;font-weight:normal;font-stretch:normal;font-size:16px;line-height:1.25;font-family:sans-serif;-inkscape-font-specification:'sans-serif, Normal';font-variant-ligatures:normal;font-variant-caps:normal;font-variant-numeric:normal;font-feature-settings:normal;text-align:start;letter-spacing:0px;word-spacing:0px;writing-mode:lr-tb;text-anchor:start;fill:#3f1d38;fill-opacity:1;stroke:none"
                                        aria-label="1hA">
                                       <path
                                                     inkscape:connector-curvature="0"
                                                     id="path1085-6"
                                                     style="fill:#3f1d38;fill-opacity:1"
                                                     d="M -129.88655,154.28618 H -127.30843 V 145.38774 L -130.11311,145.95024 V 144.51274 L -127.32405,143.95024 H -125.74593 V 154.28618 H -123.1678 V 155.6143 H -129.88655 Z" />
                                       <path
                                                     inkscape:connector-curvature="0"
                                                     id="path1087-5"
                                                     style="fill:#3f1d38;fill-opacity:1"
                                                     d="M -112.90218,150.33305 V 155.6143 H -114.33968 V 150.37993 Q -114.33968,149.13774 -114.82405,148.52055 -115.30843,147.90337 -116.27718,147.90337 -117.44124,147.90337 -118.11311,148.64555 -118.78499,149.38774 -118.78499,150.66899 V 155.6143 H -120.2303 V 143.45805 H -118.78499 V 148.22368 Q -118.26936,147.43462 -117.57405,147.04399 -116.87093,146.65337 -115.95686,146.65337 -114.44905,146.65337 -113.67561,147.59087 -112.90218,148.52055 -112.90218,150.33305 Z" />
                                       <path
                                                     inkscape:connector-curvature="0"
                                                     id="path1089-9"
                                                     style="fill:#3f1d38;fill-opacity:1"
                                                     d="M -106.05843,145.50493 -108.19905,151.30962 H -103.90999 Z M -106.94905,143.95024 H -105.15999 L -100.71468,155.6143 H -102.3553 L -103.4178,152.62212 H -108.67561 L -109.73811,155.6143 H -111.40218 Z" />
                          </g>
                          <g
                                        transform="translate(238.27293,78.175904)"
                                        id="text917-5"
                                        style="font-style:normal;font-variant:normal;font-weight:normal;font-stretch:normal;font-size:16px;line-height:1.25;font-family:sans-serif;-inkscape-font-specification:'sans-serif, Normal';font-variant-ligatures:normal;font-variant-caps:normal;font-variant-numeric:normal;font-feature-settings:normal;text-align:start;letter-spacing:0px;word-spacing:0px;writing-mode:lr-tb;text-anchor:start;fill:#3f1d38;fill-opacity:1;stroke:none"
                                        aria-label="3hA">
                                       <path
                                                     inkscape:connector-curvature="0"
                                                     id="path1078-6"
                                                     style="fill:#3f1d38;fill-opacity:1"
                                                     d="M -132.91422,193.03105 Q -131.7814,193.27324 -131.14859,194.03886 -130.50797,194.80449 -130.50797,195.92949 -130.50797,197.65605 -131.69547,198.60136 -132.88297,199.54668 -135.07047,199.54668 -135.80484,199.54668 -136.58609,199.39824 -137.35953,199.25761 -138.18765,198.96855 V 197.44511 Q -137.5314,197.82793 -136.75015,198.02324 -135.9689,198.21855 -135.11734,198.21855 -133.63297,198.21855 -132.85953,197.63261 -132.07828,197.04668 -132.07828,195.92949 -132.07828,194.89824 -132.80484,194.32011 -133.52359,193.73418 -134.81265,193.73418 H -136.17203 V 192.4373 H -134.75015 Q -133.58609,192.4373 -132.9689,191.97636 -132.35172,191.50761 -132.35172,190.63261 -132.35172,189.73418 -132.99234,189.25761 -133.62515,188.77324 -134.81265,188.77324 -135.46109,188.77324 -136.20328,188.91386 -136.94547,189.05449 -137.83609,189.35136 V 187.94511 Q -136.93765,187.69511 -136.1564,187.57011 -135.36734,187.44511 -134.67203,187.44511 -132.87515,187.44511 -131.82828,188.26543 -130.7814,189.07793 -130.7814,190.46855 -130.7814,191.4373 -131.33609,192.10918 -131.89078,192.77324 -132.91422,193.03105 Z" />
                                       <path
                                                     inkscape:connector-curvature="0"
                                                     id="path1080-1"
                                                     style="fill:#3f1d38;fill-opacity:1"
                                                     d="M -120.43765,194.03886 V 199.32011 H -121.87515 V 194.08574 Q -121.87515,192.84355 -122.35953,192.22636 -122.8439,191.60918 -123.81265,191.60918 -124.97672,191.60918 -125.64859,192.35136 -126.32047,193.09355 -126.32047,194.3748 V 199.32011 H -127.76578 V 187.16386 H -126.32047 V 191.92949 Q -125.80484,191.14043 -125.10953,190.7498 -124.4064,190.35918 -123.49234,190.35918 -121.98453,190.35918 -121.21109,191.29668 -120.43765,192.22636 -120.43765,194.03886 Z" />
                                       <path
                                                     inkscape:connector-curvature="0"
                                                     id="path1082-1"
                                                     style="fill:#3f1d38;fill-opacity:1"
                                                     d="M -113.5939,189.21074 -115.73453,195.01543 H -111.44547 Z M -114.48453,187.65605 H -112.69547 L -108.25015,199.32011 H -109.89078 L -110.95328,196.32793 H -116.21109 L -117.27359,199.32011 H -118.93765 Z" />
                          </g>
                          <g
                                        transform="translate(287.16276,29.687549)"
                                        id="text921-4"
                                        style="font-style:normal;font-variant:normal;font-weight:normal;font-stretch:normal;font-size:16px;line-height:1.25;font-family:sans-serif;-inkscape-font-specification:'sans-serif, Normal';font-variant-ligatures:normal;font-variant-caps:normal;font-variant-numeric:normal;font-feature-settings:normal;text-align:start;letter-spacing:0px;word-spacing:0px;writing-mode:lr-tb;text-anchor:start;fill:#3f1d38;fill-opacity:1;stroke:none"
                                        aria-label="12hA">
                                       <path
                                                     inkscape:connector-curvature="0"
                                                     id="path1069-3"
                                                     style="fill:#3f1d38;fill-opacity:1"
                                                     d="M -149.47879,246.97261 H -146.90067 V 238.07417 L -149.70535,238.63667 V 237.19917 L -146.91629,236.63667 H -145.33817 V 246.97261 H -142.76004 V 248.30074 H -149.47879 Z" />
                                       <path
                                                     inkscape:connector-curvature="0"
                                                     id="path1071-7"
                                                     style="fill:#3f1d38;fill-opacity:1"
                                                     d="M -138.20535,246.97261 H -132.69754 V 248.30074 H -140.10379 V 246.97261 Q -139.20535,246.04292 -137.65848,244.48042 -136.10379,242.91011 -135.70535,242.45699 -134.94754,241.60542 -134.65067,241.01949 -134.34598,240.42574 -134.34598,239.85542 -134.34598,238.92574 -135.00223,238.3398 -135.65067,237.75386 -136.69754,237.75386 -137.43973,237.75386 -138.26785,238.01167 -139.08817,238.26949 -140.02567,238.79292 V 237.19917 Q -139.07254,236.81636 -138.24442,236.62105 -137.41629,236.42574 -136.72879,236.42574 -134.91629,236.42574 -133.83817,237.33199 -132.76004,238.23824 -132.76004,239.75386 -132.76004,240.47261 -133.03348,241.12105 -133.2991,241.76167 -134.01004,242.63667 -134.20535,242.86324 -135.25223,243.94917 -136.2991,245.0273 -138.20535,246.97261 Z" />
                                       <path
                                                     inkscape:connector-curvature="0"
                                                     id="path1073-2"
                                                     style="fill:#3f1d38;fill-opacity:1"
                                                     d="M -122.30692,243.01949 V 248.30074 H -123.74442 V 243.06636 Q -123.74442,241.82417 -124.22879,241.20699 -124.71317,240.5898 -125.68192,240.5898 -126.84598,240.5898 -127.51785,241.33199 -128.18973,242.07417 -128.18973,243.35542 V 248.30074 H -129.63504 V 236.14449 H -128.18973 V 240.91011 Q -127.6741,240.12105 -126.97879,239.73042 -126.27567,239.3398 -125.3616,239.3398 -123.85379,239.3398 -123.08035,240.2773 -122.30692,241.20699 -122.30692,243.01949 Z" />
                                       <path
                                                     inkscape:connector-curvature="0"
                                                     id="path1075-7"
                                                     style="fill:#3f1d38;fill-opacity:1"
                                                     d="M -115.46317,238.19136 -117.60379,243.99605 H -113.31473 Z M -116.35379,236.63667 H -114.56473 L -110.11942,248.30074 H -111.76004 L -112.82254,245.30855 H -118.08035 L -119.14285,248.30074 H -120.80692 Z" />
                          </g>
                          <g
                                        transform="translate(332.32044,-23.060811)"
                                        id="text925-3"
                                        style="font-style:normal;font-variant:normal;font-weight:normal;font-stretch:normal;font-size:16px;line-height:1.25;font-family:sans-serif;-inkscape-font-specification:'sans-serif, Normal';font-variant-ligatures:normal;font-variant-caps:normal;font-variant-numeric:normal;font-feature-settings:normal;text-align:start;letter-spacing:0px;word-spacing:0px;writing-mode:lr-tb;text-anchor:start;fill:#3f1d38;fill-opacity:1;stroke:none"
                                        aria-label="24hA">
                                       <path
                                                     inkscape:connector-curvature="0"
                                                     id="path1060-3"
                                                     style="fill:#3f1d38;fill-opacity:1"
                                                     d="M -145.37866,299.72098 H -139.87085 V 301.0491 H -147.2771 V 299.72098 Q -146.37866,298.79129 -144.83179,297.22879 -143.2771,295.65848 -142.87866,295.20535 -142.12085,294.35379 -141.82397,293.76785 -141.51929,293.1741 -141.51929,292.60379 -141.51929,291.6741 -142.17554,291.08817 -142.82397,290.50223 -143.87085,290.50223 -144.61304,290.50223 -145.44116,290.76004 -146.26147,291.01785 -147.19897,291.54129 V 289.94754 Q -146.24585,289.56473 -145.41772,289.36942 -144.5896,289.1741 -143.9021,289.1741 -142.0896,289.1741 -141.01147,290.08035 -139.93335,290.9866 -139.93335,292.50223 -139.93335,293.22098 -140.20679,293.86942 -140.47241,294.51004 -141.18335,295.38504 -141.37866,295.6116 -142.42554,296.69754 -143.47241,297.77567 -145.37866,299.72098 Z" />
                                       <path
                                                     inkscape:connector-curvature="0"
                                                     id="path1062-9"
                                                     style="fill:#3f1d38;fill-opacity:1"
                                                     d="M -132.2146,290.76004 -136.19897,296.9866 H -132.2146 Z M -132.62866,289.38504 H -130.64429 V 296.9866 H -128.98022 V 298.2991 H -130.64429 V 301.0491 H -132.2146 V 298.2991 H -137.48022 V 296.77567 Z" />
                                       <path
                                                     inkscape:connector-curvature="0"
                                                     id="path1064-2"
                                                     style="fill:#3f1d38;fill-opacity:1"
                                                     d="M -119.29272,295.76785 V 301.0491 H -120.73022 V 295.81473 Q -120.73022,294.57254 -121.2146,293.95535 -121.69897,293.33817 -122.66772,293.33817 -123.83179,293.33817 -124.50366,294.08035 -125.17554,294.82254 -125.17554,296.10379 V 301.0491 H -126.62085 V 288.89285 H -125.17554 V 293.65848 Q -124.65991,292.86942 -123.9646,292.47879 -123.26147,292.08817 -122.34741,292.08817 -120.8396,292.08817 -120.06616,293.02567 -119.29272,293.95535 -119.29272,295.76785 Z" />
                                       <path
                                                     inkscape:connector-curvature="0"
                                                     id="path1066-4"
                                                     style="fill:#3f1d38;fill-opacity:1"
                                                     d="M -112.44897,290.93973 -114.5896,296.74442 H -110.30054 Z M -113.3396,289.38504 H -111.55054 L -107.10522,301.0491 H -108.74585 L -109.80835,298.05692 H -115.06616 L -116.12866,301.0491 H -117.79272 Z" />
                          </g>
                          <path
                                        inkscape:connector-curvature="0"
                                        id="rect1033-9"
                                        d="M 30.75123,163.8968 H 62.02348 V 171.80905 H 30.75123 Z"
                                        style="opacity:1;fill:#3f1d38;fill-opacity:1;fill-rule:evenodd;stroke:#000000;stroke-width:0.36899999;stroke-miterlimit:4;stroke-dasharray:none;stroke-opacity:1" />
                          <g
                                        transform="translate(-467.94033,146.02134)"
                                        id="text1037-4"
                                        style="font-style:normal;font-variant:normal;font-weight:normal;font-stretch:normal;font-size:16px;line-height:1.25;font-family:sans-serif;-inkscape-font-specification:'sans-serif, Normal';font-variant-ligatures:normal;font-variant-caps:normal;font-variant-numeric:normal;font-feature-settings:normal;text-align:start;letter-spacing:0px;word-spacing:0px;writing-mode:lr-tb;text-anchor:start;fill:#3f1d38;fill-opacity:1;stroke:none"
                                        aria-label="5mm">
                                       <path
                                                     inkscape:connector-curvature="0"
                                                     id="path1097-9"
                                                     style="fill:#3f1d38;fill-opacity:1"
                                                     d="M 498.69156,29.787716 H 504.88687 V 31.115841 H 500.13687 V 33.975216 Q 500.48062,33.858028 500.82437,33.803341 501.16812,33.740841 501.51187,33.740841 503.465,33.740841 504.60562,34.811153 505.74625,35.881466 505.74625,37.709591 505.74625,39.592403 504.57437,40.639278 503.4025,41.678341 501.26968,41.678341 500.53531,41.678341 499.76968,41.553341 499.01187,41.428341 498.19937,41.178341 V 39.592403 Q 498.9025,39.975216 499.6525,40.162716 500.4025,40.350216 501.23843,40.350216 502.59,40.350216 503.37906,39.639278 504.16812,38.928341 504.16812,37.709591 504.16812,36.490841 503.37906,35.779903 502.59,35.068966 501.23843,35.068966 500.60562,35.068966 499.97281,35.209591 499.34781,35.350216 498.69156,35.647091 Z" />
                                       <path
                                                     inkscape:connector-curvature="0"
                                                     id="path1099-5"
                                                     style="fill:#3f1d38;fill-opacity:1"
                                                     d="M 515.47281,34.381466 Q 516.01187,33.412716 516.76187,32.951778 517.51187,32.490841 518.5275,32.490841 519.89468,32.490841 520.63687,33.451778 521.37906,34.404903 521.37906,36.170528 V 41.451778 H 519.93375 V 36.217403 Q 519.93375,34.959591 519.48843,34.350216 519.04312,33.740841 518.12906,33.740841 517.01187,33.740841 516.36343,34.483028 515.715,35.225216 515.715,36.506466 V 41.451778 H 514.26968 V 36.217403 Q 514.26968,34.951778 513.82437,34.350216 513.37906,33.740841 512.44937,33.740841 511.34781,33.740841 510.69937,34.490841 510.05093,35.233028 510.05093,36.506466 V 41.451778 H 508.60562 V 32.701778 H 510.05093 V 34.061153 Q 510.54312,33.256466 511.23062,32.873653 511.91812,32.490841 512.86343,32.490841 513.81656,32.490841 514.48062,32.975216 515.1525,33.459591 515.47281,34.381466 Z" />
                                       <path
                                                     inkscape:connector-curvature="0"
                                                     id="path1101-5"
                                                     style="fill:#3f1d38;fill-opacity:1"
                                                     d="M 531.06656,34.381466 Q 531.60562,33.412716 532.35562,32.951778 533.10562,32.490841 534.12125,32.490841 535.48843,32.490841 536.23062,33.451778 536.97281,34.404903 536.97281,36.170528 V 41.451778 H 535.5275 V 36.217403 Q 535.5275,34.959591 535.08218,34.350216 534.63687,33.740841 533.72281,33.740841 532.60562,33.740841 531.95718,34.483028 531.30875,35.225216 531.30875,36.506466 V 41.451778 H 529.86343 V 36.217403 Q 529.86343,34.951778 529.41812,34.350216 528.97281,33.740841 528.04312,33.740841 526.94156,33.740841 526.29312,34.490841 525.64468,35.233028 525.64468,36.506466 V 41.451778 H 524.19937 V 32.701778 H 525.64468 V 34.061153 Q 526.13687,33.256466 526.82437,32.873653 527.51187,32.490841 528.45718,32.490841 529.41031,32.490841 530.07437,32.975216 530.74625,33.459591 531.06656,34.381466 Z" />
                          </g>
                          <g
                                        transform="translate(225.37178,-36.043771)"
                                        id="text1178-7"
                                        style="font-style:normal;font-variant:normal;font-weight:normal;font-stretch:normal;font-size:20px;line-height:1.25;font-family:sans-serif;-inkscape-font-specification:'sans-serif, Normal';font-variant-ligatures:normal;font-variant-caps:normal;font-variant-numeric:normal;font-feature-settings:normal;text-align:start;letter-spacing:0px;word-spacing:0px;writing-mode:lr-tb;text-anchor:start;fill:#3f1d38;fill-opacity:1;stroke:none"
                                        aria-label="h: hour">
                                       <path
                                                     inkscape:connector-curvature="0"
                                                     id="path1311-3"
                                                     style="fill:#3f1d38;fill-opacity:1"
                                                     d="M -187.20659,179.90823 V 186.5098 H -189.00346 V 179.96683 Q -189.00346,178.41409 -189.60893,177.64261 -190.2144,176.87112 -191.42534,176.87112 -192.88042,176.87112 -193.72026,177.79886 -194.5601,178.72659 -194.5601,180.32816 V 186.5098 H -196.36674 V 171.31448 H -194.5601 V 177.27151 Q -193.91557,176.28519 -193.04643,175.79691 -192.16753,175.30862 -191.02495,175.30862 -189.14018,175.30862 -188.17339,176.4805 -187.20659,177.64261 -187.20659,179.90823 Z" />
                                       <path
                                                     inkscape:connector-curvature="0"
                                                     id="path1313-9"
                                                     style="fill:#3f1d38;fill-opacity:1"
                                                     d="M -183.14409,184.02933 H -181.08354 V 186.5098 H -183.14409 Z M -183.14409,176.168 H -181.08354 V 178.64847 H -183.14409 Z" />
                                       <path
                                                     inkscape:connector-curvature="0"
                                                     id="path1315-0"
                                                     style="fill:#3f1d38;fill-opacity:1"
                                                     d="M -161.38628,179.90823 V 186.5098 H -163.18315 V 179.96683 Q -163.18315,178.41409 -163.78862,177.64261 -164.39409,176.87112 -165.60503,176.87112 -167.0601,176.87112 -167.89995,177.79886 -168.73979,178.72659 -168.73979,180.32816 V 186.5098 H -170.54643 V 171.31448 H -168.73979 V 177.27151 Q -168.09526,176.28519 -167.22612,175.79691 -166.34721,175.30862 -165.20464,175.30862 -163.31987,175.30862 -162.35307,176.4805 -161.38628,177.64261 -161.38628,179.90823 Z" />
                                       <path
                                                     inkscape:connector-curvature="0"
                                                     id="path1317-7"
                                                     style="fill:#3f1d38;fill-opacity:1"
                                                     d="M -153.54448,176.83206 Q -154.98979,176.83206 -155.82964,177.96487 -156.66948,179.08792 -156.66948,181.05081 -156.66948,183.0137 -155.8394,184.14651 -154.99956,185.26956 -153.54448,185.26956 -152.10893,185.26956 -151.26909,184.13675 -150.42924,183.00394 -150.42924,181.05081 -150.42924,179.10745 -151.26909,177.97464 -152.10893,176.83206 -153.54448,176.83206 Z M -153.54448,175.30862 Q -151.20073,175.30862 -149.86284,176.83206 -148.52495,178.3555 -148.52495,181.05081 -148.52495,183.73636 -149.86284,185.26956 -151.20073,186.793 -153.54448,186.793 -155.89799,186.793 -157.23589,185.26956 -158.56401,183.73636 -158.56401,181.05081 -158.56401,178.3555 -157.23589,176.83206 -155.89799,175.30862 -153.54448,175.30862 Z" />
                                       <path
                                                     inkscape:connector-curvature="0"
                                                     id="path1319-2"
                                                     style="fill:#3f1d38;fill-opacity:1"
                                                     d="M -145.74174,182.19339 V 175.5723 H -143.94487 V 182.12503 Q -143.94487,183.67776 -143.3394,184.45901 -142.73393,185.2305 -141.52299,185.2305 -140.06792,185.2305 -139.22807,184.30276 -138.37846,183.37503 -138.37846,181.77347 V 175.5723 H -136.58159 V 186.5098 H -138.37846 V 184.83011 Q -139.03276,185.8262 -139.9019,186.31448 -140.76128,186.793 -141.90385,186.793 -143.78862,186.793 -144.76518,185.62112 -145.74174,184.44925 -145.74174,182.19339 Z M -141.22026,175.30862 Z" />
                                       <path
                                                     inkscape:connector-curvature="0"
                                                     id="path1321-7"
                                                     style="fill:#3f1d38;fill-opacity:1"
                                                     d="M -126.52299,177.25198 Q -126.82573,177.0762 -127.18706,176.99808 -127.53862,176.91019 -127.96831,176.91019 -129.49174,176.91019 -130.31206,177.90628 -131.1226,178.89261 -131.1226,180.74808 V 186.5098 H -132.92924 V 175.5723 H -131.1226 V 177.27151 Q -130.5562,176.27542 -129.64799,175.79691 -128.73979,175.30862 -127.44096,175.30862 -127.25542,175.30862 -127.03081,175.33792 -126.8062,175.35745 -126.53276,175.40628 Z" />
                          </g>
                          <g
                                        transform="translate(303.76917,-169.98829)"
                                        id="text1186-1"
                                        style="font-style:normal;font-variant:normal;font-weight:normal;font-stretch:normal;font-size:20px;line-height:1.25;font-family:sans-serif;-inkscape-font-specification:'sans-serif, Normal';font-variant-ligatures:normal;font-variant-caps:normal;font-variant-numeric:normal;font-feature-settings:normal;text-align:start;letter-spacing:0px;word-spacing:0px;writing-mode:lr-tb;text-anchor:start;fill:#3f1d38;fill-opacity:1;stroke:none"
                                        aria-label="A: aerobic">
                                       <path
                                                     inkscape:connector-curvature="0"
                                                     id="path1281-7"
                                                     style="fill:#3f1d38;fill-opacity:1"
                                                     d="M -270.46979,280.12332 -273.14557,287.37918 H -267.78424 Z M -271.58307,278.17996 H -269.34674 L -263.7901,292.76004 H -265.84088 L -267.16901,289.01981 H -273.74127 L -275.0694,292.76004 H -277.14948 Z" />
                                       <path
                                                     inkscape:connector-curvature="0"
                                                     id="path1283-9"
                                                     style="fill:#3f1d38;fill-opacity:1"
                                                     d="M -261.64166,290.27957 H -259.58112 V 292.76004 H -261.64166 Z M -261.64166,282.41824 H -259.58112 V 284.89871 H -261.64166 Z" />
                                       <path
                                                     inkscape:connector-curvature="0"
                                                     id="path1285-3"
                                                     style="fill:#3f1d38;fill-opacity:1"
                                                     d="M -244.00494,287.26199 Q -246.18268,287.26199 -247.02252,287.76004 -247.86237,288.25809 -247.86237,289.45926 -247.86237,290.41629 -247.23737,290.9827 -246.6026,291.53934 -245.51862,291.53934 -244.02448,291.53934 -243.12604,290.48465 -242.21783,289.4202 -242.21783,287.66238 V 287.26199 Z M -240.42096,286.51981 V 292.76004 H -242.21783 V 291.09988 Q -242.83307,292.09598 -243.75104,292.57449 -244.66901,293.04324 -245.99713,293.04324 -247.67682,293.04324 -248.67291,292.10574 -249.65924,291.15848 -249.65924,289.57645 -249.65924,287.73074 -248.42877,286.79324 -247.18854,285.85574 -244.73737,285.85574 H -242.21783 V 285.67996 Q -242.21783,284.43973 -243.03815,283.7659 -243.84869,283.08231 -245.3233,283.08231 -246.2608,283.08231 -247.14948,283.30692 -248.03815,283.53152 -248.85846,283.98074 V 282.32059 Q -247.87213,281.93973 -246.9444,281.75418 -246.01666,281.55887 -245.13776,281.55887 -242.76471,281.55887 -241.59283,282.78934 -240.42096,284.01981 -240.42096,286.51981 Z" />
                                       <path
                                                     inkscape:connector-curvature="0"
                                                     id="path1287-6"
                                                     style="fill:#3f1d38;fill-opacity:1"
                                                     d="M -227.35455,286.84207 V 287.72098 H -235.61627 Q -235.49908,289.57645 -234.50299,290.55301 -233.49713,291.51981 -231.71002,291.51981 -230.67487,291.51981 -229.70807,291.2659 -228.73151,291.01199 -227.77448,290.50418 V 292.2034 Q -228.74127,292.61356 -229.7569,292.8284 -230.77252,293.04324 -231.81744,293.04324 -234.43463,293.04324 -235.96783,291.51981 -237.49127,289.99637 -237.49127,287.39871 -237.49127,284.71317 -236.04596,283.1409 -234.59088,281.55887 -232.12994,281.55887 -229.92291,281.55887 -228.64362,282.98465 -227.35455,284.40067 -227.35455,286.84207 Z M -229.15143,286.31473 Q -229.17096,284.84012 -229.98151,283.96121 -230.78229,283.08231 -232.11041,283.08231 -233.61432,283.08231 -234.52252,283.93192 -235.42096,284.78152 -235.55768,286.32449 Z" />
                                       <path
                                                     inkscape:connector-curvature="0"
                                                     id="path1289-2"
                                                     style="fill:#3f1d38;fill-opacity:1"
                                                     d="M -218.06744,283.50223 Q -218.37018,283.32645 -218.73151,283.24832 -219.08307,283.16043 -219.51276,283.16043 -221.03619,283.16043 -221.85651,284.15652 -222.66705,285.14285 -222.66705,286.99832 V 292.76004 H -224.47369 V 281.82254 H -222.66705 V 283.52176 Q -222.10065,282.52567 -221.19244,282.04715 -220.28424,281.55887 -218.98541,281.55887 -218.79987,281.55887 -218.57526,281.58817 -218.35065,281.6077 -218.07721,281.65652 Z" />
                                       <path
                                                     inkscape:connector-curvature="0"
                                                     id="path1291-1"
                                                     style="fill:#3f1d38;fill-opacity:1"
                                                     d="M -212.35455,283.08231 Q -213.79987,283.08231 -214.63971,284.21512 -215.47955,285.33817 -215.47955,287.30106 -215.47955,289.26395 -214.64948,290.39676 -213.80963,291.51981 -212.35455,291.51981 -210.91901,291.51981 -210.07916,290.38699 -209.23932,289.25418 -209.23932,287.30106 -209.23932,285.3577 -210.07916,284.22488 -210.91901,283.08231 -212.35455,283.08231 Z M -212.35455,281.55887 Q -210.0108,281.55887 -208.67291,283.08231 -207.33502,284.60574 -207.33502,287.30106 -207.33502,289.9866 -208.67291,291.51981 -210.0108,293.04324 -212.35455,293.04324 -214.70807,293.04324 -216.04596,291.51981 -217.37408,289.9866 -217.37408,287.30106 -217.37408,284.60574 -216.04596,283.08231 -214.70807,281.55887 -212.35455,281.55887 Z" />
                                       <path
                                                     inkscape:connector-curvature="0"
                                                     id="path1293-2"
                                                     style="fill:#3f1d38;fill-opacity:1"
                                                     d="M -196.51471,287.30106 Q -196.51471,285.31863 -197.33502,284.19559 -198.14557,283.06277 -199.57135,283.06277 -200.99713,283.06277 -201.81744,284.19559 -202.62799,285.31863 -202.62799,287.30106 -202.62799,289.28348 -201.81744,290.41629 -200.99713,291.53934 -199.57135,291.53934 -198.14557,291.53934 -197.33502,290.41629 -196.51471,289.28348 -196.51471,287.30106 Z M -202.62799,283.4827 Q -202.06158,282.50613 -201.20221,282.03738 -200.33307,281.55887 -199.1319,281.55887 -197.13971,281.55887 -195.89948,283.1409 -194.64948,284.72293 -194.64948,287.30106 -194.64948,289.87918 -195.89948,291.46121 -197.13971,293.04324 -199.1319,293.04324 -200.33307,293.04324 -201.20221,292.57449 -202.06158,292.09598 -202.62799,291.11942 V 292.76004 H -204.43463 V 277.56473 H -202.62799 Z" />
                                       <path
                                                     inkscape:connector-curvature="0"
                                                     id="path1295-5"
                                                     style="fill:#3f1d38;fill-opacity:1"
                                                     d="M -191.67096,281.82254 H -189.87408 V 292.76004 H -191.67096 Z M -191.67096,277.56473 H -189.87408 V 279.84012 H -191.67096 Z" />
                                       <path
                                                     inkscape:connector-curvature="0"
                                                     id="path1297-3"
                                                     style="fill:#3f1d38;fill-opacity:1"
                                                     d="M -178.25299,282.24246 V 283.92215 Q -179.01471,283.50223 -179.78619,283.29715 -180.54791,283.08231 -181.32916,283.08231 -183.07721,283.08231 -184.04401,284.19559 -185.0108,285.2991 -185.0108,287.30106 -185.0108,289.30301 -184.04401,290.41629 -183.07721,291.51981 -181.32916,291.51981 -180.54791,291.51981 -179.78619,291.31473 -179.01471,291.09988 -178.25299,290.67996 V 292.34012 Q -179.00494,292.69168 -179.81549,292.86746 -180.61627,293.04324 -181.52448,293.04324 -183.99518,293.04324 -185.45026,291.49051 -186.90533,289.93777 -186.90533,287.30106 -186.90533,284.62527 -185.44049,283.09207 -183.96588,281.55887 -181.40729,281.55887 -180.57721,281.55887 -179.78619,281.73465 -178.99518,281.90067 -178.25299,282.24246 Z" />
                          </g>
                          <path
                                        inkscape:connector-curvature="0"
                                        id="rect1324-6"
                                        d="M 140.77052,114.10598 H 169.78212 V 119.38081 H 140.77052 Z"
                                        style="opacity:1;fill:#c25f00;fill-opacity:1;fill-rule:evenodd;stroke:#000000;stroke-width:0.36899999;stroke-miterlimit:4;stroke-dasharray:none;stroke-opacity:1" />
                          <path
                                        inkscape:connector-curvature="0"
                                        id="rect1324-4-6"
                                        d="M 59.46626,280.40022 H 382.3464 V 284.90628 H 59.46626 Z"
                                        style="opacity:1;fill:#c25f00;fill-opacity:1;fill-rule:evenodd;stroke:#000000;stroke-width:0.1;stroke-miterlimit:4;stroke-dasharray:none;stroke-opacity:1" />
                          <g
                                        transform="translate(-363.35865,189.16607)"
                                        id="text2145"
                                        style="font-style:normal;font-variant:normal;font-weight:normal;font-stretch:normal;font-size:16px;line-height:1.25;font-family:sans-serif;-inkscape-font-specification:'sans-serif, Normal';font-variant-ligatures:normal;font-variant-caps:normal;font-variant-numeric:normal;font-feature-settings:normal;text-align:start;letter-spacing:0px;word-spacing:0px;writing-mode:lr-tb;text-anchor:start;fill:#000000;fill-opacity:1;stroke:none"
                                        aria-label="48hA">
                                       <path
                                                     inkscape:connector-curvature="0"
                                                     id="path2183"
                                                     d="M 602.48022,77.882698 598.49585,84.109261 H 602.48022 Z M 602.06616,76.507698 H 604.05054 V 84.109261 H 605.7146 V 85.421761 H 604.05054 V 88.171761 H 602.48022 V 85.421761 H 597.2146 V 83.898323 Z" />
                                       <path
                                                     inkscape:connector-curvature="0"
                                                     id="path2185"
                                                     d="M 611.70679,82.632698 Q 610.58179,82.632698 609.93335,83.234261 609.29272,83.835823 609.29272,84.890511 609.29272,85.945198 609.93335,86.546761 610.58179,87.148323 611.70679,87.148323 612.83179,87.148323 613.48022,86.546761 614.12866,85.937386 614.12866,84.890511 614.12866,83.835823 613.48022,83.234261 612.8396,82.632698 611.70679,82.632698 Z M 610.12866,81.960823 Q 609.11304,81.710823 608.54272,81.015511 607.98022,80.320198 607.98022,79.320198 607.98022,77.921761 608.97241,77.109261 609.97241,76.296761 611.70679,76.296761 613.44897,76.296761 614.44116,77.109261 615.43335,77.921761 615.43335,79.320198 615.43335,80.320198 614.86304,81.015511 614.30054,81.710823 613.29272,81.960823 614.43335,82.226448 615.06616,82.999886 615.70679,83.773323 615.70679,84.890511 615.70679,86.585823 614.66772,87.492073 613.63647,88.398323 611.70679,88.398323 609.7771,88.398323 608.73804,87.492073 607.70679,86.585823 607.70679,84.890511 607.70679,83.773323 608.34741,82.999886 608.98804,82.226448 610.12866,81.960823 Z M 609.55054,79.468636 Q 609.55054,80.374886 610.11304,80.882698 610.68335,81.390511 611.70679,81.390511 612.72241,81.390511 613.29272,80.882698 613.87085,80.374886 613.87085,79.468636 613.87085,78.562386 613.29272,78.054573 612.72241,77.546761 611.70679,77.546761 610.68335,77.546761 610.11304,78.054573 609.55054,78.562386 609.55054,79.468636 Z" />
                                       <path
                                                     inkscape:connector-curvature="0"
                                                     id="path2187"
                                                     d="M 625.5896,82.890511 V 88.171761 H 624.1521 V 82.937386 Q 624.1521,81.695198 623.66772,81.078011 623.18335,80.460823 622.2146,80.460823 621.05054,80.460823 620.37866,81.203011 619.70679,81.945198 619.70679,83.226448 V 88.171761 H 618.26147 V 76.015511 H 619.70679 V 80.781136 Q 620.22241,79.992073 620.91772,79.601448 621.62085,79.210823 622.53491,79.210823 624.04272,79.210823 624.81616,80.148323 625.5896,81.078011 625.5896,82.890511 Z" />
                                       <path
                                                     inkscape:connector-curvature="0"
                                                     id="path2189"
                                                     d="M 632.43335,78.062386 630.29272,83.867073 H 634.58179 Z M 631.54272,76.507698 H 633.33179 L 637.7771,88.171761 H 636.13647 L 635.07397,85.179573 H 629.81616 L 628.75366,88.171761 H 627.0896 Z" />
                          </g>
                          <g
                                        transform="translate(-269.42578,157.7777)"
                                        id="text2145-0"
                                        style="font-style:normal;font-variant:normal;font-weight:normal;font-stretch:normal;font-size:16px;line-height:1.25;font-family:sans-serif;-inkscape-font-specification:'sans-serif, Normal';font-variant-ligatures:normal;font-variant-caps:normal;font-variant-numeric:normal;font-feature-settings:normal;text-align:start;letter-spacing:0px;word-spacing:0px;writing-mode:lr-tb;text-anchor:start;fill:#000000;fill-opacity:1;stroke:none"
                                        aria-label="96hA">
                                       <path
                                                     inkscape:connector-curvature="0"
                                                     id="path2192"
                                                     d="M 613.29895,118.76151 V 117.32401 Q 613.8927,117.60526 614.50208,117.75369 615.11145,117.90213 615.69739,117.90213 617.25989,117.90213 618.0802,116.85526 618.90833,115.80057 619.02551,113.65994 618.57239,114.33182 617.87708,114.69119 617.18176,115.05057 616.33801,115.05057 614.58801,115.05057 613.56458,113.99588 612.54895,112.93338 612.54895,111.09744 612.54895,109.30057 613.61145,108.21463 614.67395,107.12869 616.43958,107.12869 618.46301,107.12869 619.52551,108.68338 620.59583,110.23026 620.59583,113.18338 620.59583,115.94119 619.28333,117.58963 617.97864,119.23026 615.7677,119.23026 615.17395,119.23026 614.56458,119.11307 613.9552,118.99588 613.29895,118.76151 Z M 616.43958,113.81619 Q 617.50208,113.81619 618.11926,113.08963 618.74426,112.36307 618.74426,111.09744 618.74426,109.83963 618.11926,109.11307 617.50208,108.37869 616.43958,108.37869 615.37708,108.37869 614.75208,109.11307 614.13489,109.83963 614.13489,111.09744 614.13489,112.36307 614.75208,113.08963 615.37708,113.81619 616.43958,113.81619 Z" />
                                       <path
                                                     inkscape:connector-curvature="0"
                                                     id="path2194"
                                                     d="M 627.00989,112.54276 Q 625.94739,112.54276 625.32239,113.26932 624.7052,113.99588 624.7052,115.26151 624.7052,116.51932 625.32239,117.25369 625.94739,117.98026 627.00989,117.98026 628.07239,117.98026 628.68958,117.25369 629.31458,116.51932 629.31458,115.26151 629.31458,113.99588 628.68958,113.26932 628.07239,112.54276 627.00989,112.54276 Z M 630.1427,107.59744 V 109.03494 Q 629.54895,108.75369 628.93958,108.60526 628.33801,108.45682 627.74426,108.45682 626.18176,108.45682 625.35364,109.51151 624.53333,110.56619 624.41614,112.69901 624.87708,112.01932 625.57239,111.65994 626.2677,111.29276 627.10364,111.29276 628.86145,111.29276 629.87708,112.36307 630.90051,113.42557 630.90051,115.26151 630.90051,117.05838 629.83801,118.14432 628.77551,119.23026 627.00989,119.23026 624.98645,119.23026 623.91614,117.68338 622.84583,116.12869 622.84583,113.18338 622.84583,110.41776 624.15833,108.77713 625.47083,107.12869 627.68176,107.12869 628.27551,107.12869 628.87708,107.24588 629.48645,107.36307 630.1427,107.59744 Z" />
                                       <path
                                                     inkscape:connector-curvature="0"
                                                     id="path2196"
                                                     d="M 640.69739,113.72244 V 119.00369 H 639.25989 V 113.76932 Q 639.25989,112.52713 638.77551,111.90994 638.29114,111.29276 637.32239,111.29276 636.15833,111.29276 635.48645,112.03494 634.81458,112.77713 634.81458,114.05838 V 119.00369 H 633.36926 V 106.84744 H 634.81458 V 111.61307 Q 635.3302,110.82401 636.02551,110.43338 636.72864,110.04276 637.6427,110.04276 639.15051,110.04276 639.92395,110.98026 640.69739,111.90994 640.69739,113.72244 Z" />
                                       <path
                                                     inkscape:connector-curvature="0"
                                                     id="path2198"
                                                     d="M 647.54114,108.89432 645.40051,114.69901 H 649.68958 Z M 646.65051,107.33963 H 648.43958 L 652.88489,119.00369 H 651.24426 L 650.18176,116.01151 H 644.92395 L 643.86145,119.00369 H 642.19739 Z" />
                          </g>
                          <g
                                        transform="translate(-397.66396,183.26173)"
                                        id="text2145-0-5"
                                        style="font-style:normal;font-variant:normal;font-weight:normal;font-stretch:normal;font-size:16px;line-height:1.25;font-family:sans-serif;-inkscape-font-specification:'sans-serif, Normal';font-variant-ligatures:normal;font-variant-caps:normal;font-variant-numeric:normal;font-feature-settings:normal;text-align:start;letter-spacing:0px;word-spacing:0px;writing-mode:lr-tb;text-anchor:start;fill:#000000;fill-opacity:1;stroke:none"
                                        aria-label="72hA">
                                       <path
                                                     inkscape:connector-curvature="0"
                                                     id="path2201"
                                                     d="M 682.93359,81.718994 H 690.43359 V 82.390869 L 686.19922,93.383057 H 684.55078 L 688.53516,83.047119 H 682.93359 Z" />
                                       <path
                                                     inkscape:connector-curvature="0"
                                                     id="path2203"
                                                     d="M 694.87891,92.054932 H 700.38672 V 93.383057 H 692.98047 V 92.054932 Q 693.87891,91.125244 695.42578,89.562744 696.98047,87.992432 697.37891,87.539307 698.13672,86.687744 698.43359,86.101807 698.73828,85.508057 698.73828,84.937744 698.73828,84.008057 698.08203,83.422119 697.43359,82.836182 696.38672,82.836182 695.64453,82.836182 694.81641,83.093994 693.99609,83.351807 693.05859,83.875244 V 82.281494 Q 694.01172,81.898682 694.83984,81.703369 695.66797,81.508057 696.35547,81.508057 698.16797,81.508057 699.24609,82.414307 700.32422,83.320557 700.32422,84.836182 700.32422,85.554932 700.05078,86.203369 699.78516,86.843994 699.07422,87.718994 698.87891,87.945557 697.83203,89.031494 696.78516,90.109619 694.87891,92.054932 Z" />
                                       <path
                                                     inkscape:connector-curvature="0"
                                                     id="path2205"
                                                     d="M 710.77734,88.101807 V 93.383057 H 709.33984 V 88.148682 Q 709.33984,86.906494 708.85547,86.289307 708.37109,85.672119 707.40234,85.672119 706.23828,85.672119 705.56641,86.414307 704.89453,87.156494 704.89453,88.437744 V 93.383057 H 703.44922 V 81.226807 H 704.89453 V 85.992432 Q 705.41016,85.203369 706.10547,84.812744 706.80859,84.422119 707.72266,84.422119 709.23047,84.422119 710.00391,85.359619 710.77734,86.289307 710.77734,88.101807 Z" />
                                       <path
                                                     inkscape:connector-curvature="0"
                                                     id="path2207"
                                                     d="M 717.62109,83.273682 715.48047,89.078369 H 719.76953 Z M 716.73047,81.718994 H 718.51953 L 722.96484,93.383057 H 721.32422 L 720.26172,90.390869 H 715.00391 L 713.94141,93.383057 H 712.27734 Z" />
                          </g>
             </g>
</svg>
