<?xml version="1.0" encoding="UTF-8" standalone="no"?>
<!DOCTYPE svg PUBLIC "-//W3C//DTD SVG 20010904//EN"
              "http://www.w3.org/TR/2001/REC-SVG-20010904/DTD/svg10.dtd">

<svg xmlns="http://www.w3.org/2000/svg"
     width="5.25in" height="3.125in"
     viewBox="0 0 378 225">
  <path id="Selection #1"
        fill="none" stroke="black" stroke-width="1"
        d="M 130.00,64.20
           C 136.82,60.11 139.19,56.78 147.00,60.00
             143.32,69.59 138.25,68.43 130.00,72.42
             123.55,75.55 115.87,80.70 109.00,82.00
             109.00,82.00 107.00,78.00 107.00,78.00
             107.00,78.00 130.00,64.20 130.00,64.20 Z
           M 149.56,62.99
           C 152.66,60.86 163.06,63.24 167.00,63.72
             169.85,64.06 173.29,63.70 175.61,65.60
             177.65,67.27 178.29,69.61 179.00,72.00
             179.00,72.00 173.00,74.32 173.00,74.32
             173.00,74.32 147.00,67.00 147.00,67.00
             147.68,65.39 147.99,64.07 149.56,62.99 Z
           M 178.25,85.00
           C 176.98,82.44 174.32,78.13 177.36,75.79
             180.79,73.16 184.77,77.82 187.00,80.00
             189.52,82.48 195.36,87.58 195.89,91.00
             196.24,93.31 193.73,99.30 193.00,102.00
             183.54,99.96 182.23,93.08 178.25,85.00 Z
           M 108.00,94.00
           C 108.00,94.00 109.13,105.00 109.13,105.00
             109.46,107.19 110.83,111.80 109.81,113.67
             107.73,117.44 100.56,113.34 98.87,110.78
             96.96,107.34 98.18,93.32 98.87,89.00
             98.95,87.16 98.91,84.13 99.99,82.65
             101.39,80.73 103.86,80.41 106.00,80.00
             108.64,86.25 107.93,87.51 108.00,94.00 Z
           M 165.98,126.00
           C 167.21,121.56 175.61,113.37 179.00,110.00
             180.81,108.21 183.71,105.10 186.00,104.06
             188.23,103.15 190.69,103.72 193.00,104.06
             193.00,104.06 188.10,122.36 188.10,122.36
             188.10,122.36 167.00,133.00 167.00,133.00
             166.31,130.70 165.30,128.42 165.98,126.00 Z
           M 134.00,129.00
           C 134.00,129.00 131.00,138.00 131.00,138.00
             128.89,137.98 126.40,138.13 124.46,137.18
             121.29,135.62 112.14,123.39 111.23,120.00
             110.47,117.18 111.59,116.18 113.00,114.00
             113.00,114.00 134.00,129.00 134.00,129.00 Z
           M 136.42,131.98
           C 140.03,129.37 152.26,129.97 157.00,130.00
             159.04,130.01 161.78,129.86 163.53,131.02
             165.24,132.16 166.09,134.25 167.00,136.00
             167.00,136.00 158.00,143.39 158.00,143.39
             158.00,143.39 133.00,139.00 133.00,139.00
             133.61,136.45 134.14,133.63 136.42,131.98 Z
           M 378.00,0.00
           C 378.00,0.00 378.00,225.00 378.00,225.00
             378.00,225.00 0.00,225.00 0.00,225.00
             0.00,225.00 0.00,0.00 0.00,0.00
             0.00,0.00 378.00,0.00 378.00,0.00 Z
           M 174.99,7.22
           C 172.20,3.36 162.48,1.28 158.00,2.50
             154.03,3.57 149.21,7.44 146.00,10.00
             136.99,1.02 118.54,5.30 116.00,17.00
             111.38,15.50 107.69,14.09 103.00,16.45
             97.91,19.02 97.70,22.86 91.99,23.14
             77.67,23.84 69.23,29.29 72.00,44.99
             69.77,45.09 65.98,45.59 64.00,44.99
             59.75,43.66 55.59,38.26 52.72,35.00
             52.72,35.00 32.96,12.52 32.96,12.52
             28.85,9.15 23.49,6.24 18.00,7.28
             12.17,8.38 7.49,12.95 10.46,19.00
             12.91,23.98 22.51,30.91 27.00,34.61
             32.22,38.92 47.02,53.33 50.03,59.00
             51.17,61.13 52.37,65.57 53.00,68.00
             45.90,69.76 40.87,75.51 40.74,83.00
             40.74,83.00 41.70,91.00 41.70,91.00
             41.70,91.00 40.34,101.00 40.34,101.00
             40.36,108.40 43.78,112.35 49.03,117.00
             43.54,123.40 43.72,134.33 49.03,140.78
             51.84,144.14 54.19,143.95 56.15,146.41
             58.17,148.96 58.31,153.47 60.05,156.96
             63.41,163.69 70.06,166.02 77.00,167.00
             76.99,169.19 77.11,171.93 76.44,174.00
             74.43,180.22 61.11,192.63 56.38,199.00
             54.17,201.97 51.09,206.25 50.63,210.00
             49.59,218.71 60.03,220.69 66.00,217.12
             72.68,213.14 80.96,202.29 85.76,196.00
             87.66,193.52 90.84,188.27 93.18,186.73
             95.45,185.23 104.55,184.62 108.00,184.00
             108.14,185.77 108.10,187.25 109.02,188.87
             111.93,194.00 122.44,196.78 128.00,195.47
             130.98,194.77 132.53,193.68 135.00,192.00
             140.27,202.48 156.46,200.39 162.00,191.00
             176.08,194.42 196.34,191.74 198.00,174.00
             208.29,176.83 218.97,170.65 221.00,160.00
             231.45,158.89 238.79,150.76 241.57,141.00
             241.57,141.00 244.02,129.01 244.02,129.01
             246.40,124.27 252.17,122.56 252.79,113.00
             253.01,109.63 251.92,104.09 250.58,101.00
             249.43,98.33 247.11,95.31 249.71,92.60
             251.38,90.85 259.11,90.56 262.00,90.00
             271.85,88.08 281.59,85.45 291.00,81.95
             294.88,80.50 303.35,76.66 300.87,71.13
             298.57,65.99 287.65,66.73 283.00,67.28
             283.00,67.28 271.00,68.80 271.00,68.80
             258.51,71.20 253.36,73.75 242.93,64.00
             246.94,59.72 247.36,52.53 242.93,48.39
             242.93,48.39 235.30,43.51 235.30,43.51
             232.61,40.99 232.36,37.36 230.03,34.18
             225.56,28.08 217.54,27.30 211.00,30.00
             209.44,12.83 190.78,8.83 177.00,14.00
             176.73,11.48 176.55,9.37 174.99,7.22 Z
           M 154.30,27.42
           C 151.84,26.17 151.09,22.47 150.34,20.00
             149.70,17.85 148.89,15.26 149.35,13.00
             151.92,0.45 178.38,1.03 174.47,19.00
             173.78,22.16 171.36,26.84 170.00,30.00
             170.00,30.00 154.30,27.42 154.30,27.42 Z
           M 142.89,10.43
           C 145.59,12.63 150.45,24.32 149.32,27.62
             148.47,30.13 139.58,34.99 137.00,35.41
             135.18,35.70 126.97,35.01 125.56,33.98
             123.80,32.68 123.05,29.04 122.29,27.00
             119.83,20.37 114.24,13.13 129.00,8.53
             133.59,7.77 139.05,7.29 142.89,10.43 Z
           M 34.91,18.02
           C 41.86,25.29 51.65,40.62 60.00,45.88
             65.44,49.31 67.05,47.21 71.00,47.90
             74.23,48.47 81.56,53.59 83.31,56.30
             85.48,59.68 81.64,75.29 75.00,76.17
             71.89,76.58 60.25,68.63 57.28,66.45
             53.80,63.90 54.58,61.48 52.70,58.00
             51.25,55.32 49.08,53.20 47.02,51.00
             42.07,45.69 37.40,40.07 31.83,35.37
             27.57,31.79 17.08,23.93 14.23,19.91
             10.33,14.42 12.51,12.11 18.00,9.79
             24.89,9.02 30.35,13.24 34.91,18.02 Z
           M 208.22,30.00
           C 208.11,33.85 205.69,36.88 203.69,40.00
             202.21,42.32 200.21,46.31 197.67,47.43
             196.40,47.99 194.38,47.99 193.00,47.99
             185.81,47.98 184.44,45.35 180.21,40.00
             178.40,37.71 174.24,32.75 173.77,30.00
             172.97,25.32 178.18,16.98 182.04,14.74
             192.32,12.21 208.60,17.36 208.22,30.00 Z
           M 99.42,24.02
           C 100.33,18.14 109.10,15.53 114.82,19.72
             119.64,23.26 121.21,30.42 122.00,36.00
             122.00,36.00 105.00,38.00 105.00,38.00
             103.39,34.39 98.86,27.62 99.42,24.02 Z
           M 78.13,48.96
           C 76.17,46.81 74.90,44.89 74.35,42.00
             71.88,29.09 86.65,22.81 93.96,26.47
             97.38,28.18 103.68,35.67 101.87,39.72
             101.87,39.72 87.00,56.00 87.00,56.00
             83.79,53.96 80.71,51.79 78.13,48.96 Z
           M 302.95,28.74
           C 298.32,25.65 285.92,25.78 283.69,34.02
             282.27,39.24 285.73,42.85 290.00,45.10
             291.99,46.15 295.85,47.40 296.24,50.00
             296.58,52.26 293.77,53.98 291.10,53.16
             288.47,52.34 287.83,50.29 287.00,48.00
             287.00,48.00 280.00,48.00 280.00,48.00
             280.08,51.24 279.99,54.06 282.43,56.58
             287.66,61.99 303.47,61.58 305.35,51.00
             306.57,44.16 300.67,41.98 296.02,39.32
             294.62,38.52 291.48,36.67 292.91,34.60
             293.82,33.28 295.65,33.56 296.92,34.03
             301.37,35.66 298.06,36.97 308.00,37.00
             307.08,33.46 306.18,30.89 302.95,28.74 Z
           M 318.02,29.70
           C 312.74,33.30 310.06,39.73 310.08,46.00
             310.14,64.36 334.54,64.28 338.00,48.00
             338.00,48.00 331.00,47.00 331.00,47.00
             329.42,49.03 327.55,51.75 324.99,52.60
             321.25,53.84 318.71,50.30 318.26,47.00
             317.63,42.26 321.01,35.17 325.99,34.12
             329.61,33.35 330.85,36.41 333.37,37.44
             335.08,38.14 338.11,37.99 340.00,38.00
             337.88,26.89 326.68,23.79 318.02,29.70 Z
           M 367.86,28.93
           C 364.44,26.67 358.02,26.97 354.00,27.00
             351.67,27.02 348.60,26.76 346.85,28.60
             345.20,30.34 344.50,35.55 344.00,38.00
             344.00,38.00 340.00,59.00 340.00,59.00
             340.00,59.00 348.00,59.00 348.00,59.00
             348.00,59.00 350.00,46.00 350.00,46.00
             359.62,49.31 356.99,55.05 361.41,57.98
             363.30,59.23 366.77,58.99 369.00,59.00
             369.00,59.00 363.00,46.00 363.00,46.00
             373.49,41.74 373.30,32.54 367.86,28.93 Z
           M 161.00,30.66
           C 171.83,31.98 171.64,32.23 178.60,41.00
             180.04,42.81 182.59,45.79 183.16,48.00
             184.36,52.64 177.36,60.74 173.00,61.65
             171.02,62.06 167.13,61.29 165.00,61.00
             159.23,60.21 146.64,59.47 142.72,55.28
             140.94,53.37 140.53,50.48 140.08,48.00
             139.75,46.18 138.74,41.62 139.06,40.04
             140.04,35.18 148.68,31.61 153.00,30.66
             157.24,30.06 157.02,30.42 161.00,30.66 Z
           M 206.05,40.00
           C 207.28,38.06 209.70,33.92 211.38,32.60
             218.09,27.31 231.84,33.75 230.50,44.00
             229.94,48.37 224.43,51.20 221.00,53.32
             218.28,55.00 215.36,57.03 212.00,56.17
             212.00,56.17 201.00,50.00 201.00,50.00
             202.18,45.61 203.66,43.76 206.05,40.00 Z
           M 364.00,35.00
           C 361.47,41.99 357.45,41.00 351.00,41.00
             353.25,32.67 354.90,30.79 364.00,35.00 Z
           M 270.91,58.22
           C 277.27,54.82 280.65,43.00 274.58,37.70
             271.19,34.73 260.89,36.03 256.00,36.00
             256.00,36.00 250.00,68.00 250.00,68.00
             256.96,67.92 257.65,67.97 259.00,58.22
             263.17,59.74 266.65,60.85 270.91,58.22 Z
           M 111.00,73.23
           C 108.22,74.75 101.84,78.82 99.00,78.87
             96.85,78.91 94.88,77.69 93.00,76.80
             90.98,75.85 86.17,74.24 85.06,72.49
             81.82,67.41 89.70,55.56 93.02,52.00
             96.10,48.72 101.19,43.21 105.00,41.08
             109.59,38.52 112.35,39.38 117.00,38.82
             128.47,37.43 121.71,36.11 136.00,38.00
             136.00,38.00 140.00,56.00 140.00,56.00
             140.00,56.00 111.00,73.23 111.00,73.23 Z
           M 267.57,52.38
           C 264.99,54.52 262.17,53.03 261.52,49.94
             260.85,46.75 262.30,44.19 264.41,42.04
             272.07,39.63 270.55,49.92 267.57,52.38 Z
           M 226.00,52.22
           C 228.25,50.60 231.30,47.48 234.00,47.12
             235.63,46.91 237.58,47.65 238.98,48.42
             244.09,51.22 245.03,55.85 242.64,60.95
             240.37,65.77 237.45,64.72 233.00,65.67
             224.50,67.49 220.65,71.13 216.00,59.00
             216.00,59.00 226.00,52.22 226.00,52.22 Z
           M 183.33,73.00
           C 181.29,70.52 178.46,66.36 178.76,63.00
             179.05,59.72 185.02,51.82 188.09,50.46
             189.97,49.85 193.02,49.99 195.00,50.46
             204.58,51.92 216.18,60.64 219.30,70.00
             220.14,72.51 220.04,76.32 220.00,79.00
             219.96,80.95 220.10,83.63 218.40,84.98
             217.03,86.07 213.77,86.05 212.00,86.28
             212.00,86.28 198.00,89.00 198.00,89.00
             198.00,89.00 183.33,73.00 183.33,73.00 Z
           M 222.00,78.00
           C 222.01,76.13 221.85,73.12 223.02,71.58
             224.69,69.39 236.12,67.08 239.00,67.20
             246.27,67.49 244.75,72.69 257.00,73.11
             257.00,73.11 289.00,69.18 289.00,69.18
             295.07,68.75 303.56,72.22 294.94,77.64
             291.75,79.64 276.40,84.11 272.00,85.27
             272.00,85.27 253.00,88.59 253.00,88.59
             244.70,90.08 247.62,92.99 242.79,95.49
             240.87,96.48 230.69,98.49 228.00,99.00
             223.42,90.73 221.94,87.42 222.00,78.00 Z
           M 65.61,90.98
           C 63.41,92.30 60.37,91.45 58.00,90.98
             52.74,90.01 45.03,91.15 43.44,84.98
             41.45,77.26 51.10,65.77 61.00,71.06
             61.00,71.06 73.00,79.00 73.00,79.00
             71.72,81.66 67.91,89.57 65.61,90.98 Z
           M 161.00,74.00
           C 161.00,74.00 160.00,80.00 160.00,80.00
             160.00,80.00 142.00,80.00 142.00,80.00
             142.00,80.00 139.00,71.00 139.00,71.00
             147.73,67.84 152.57,71.19 161.00,74.00 Z
           M 137.00,72.00
           C 137.00,72.00 139.00,79.00 139.00,79.00
             139.00,79.00 127.00,83.00 127.00,83.00
             127.00,83.00 125.00,77.00 125.00,77.00
             125.00,77.00 137.00,72.00 137.00,72.00 Z
           M 78.04,119.19
           C 76.16,118.77 74.84,117.32 73.62,115.94
             69.03,110.77 69.01,108.53 69.00,102.00
             68.98,92.36 70.23,83.15 79.09,77.16
             83.26,74.34 92.33,77.25 94.98,81.39
             96.22,83.34 96.00,86.73 96.00,89.00
             96.00,89.00 96.00,102.00 96.00,102.00
             96.00,102.00 95.00,113.00 95.00,113.00
             89.50,114.57 81.34,119.94 78.04,119.19 Z
           M 170.66,77.14
           C 174.38,79.64 177.29,87.69 178.00,91.90
             176.23,92.17 174.78,92.52 173.04,91.90
             170.01,90.55 164.15,83.25 163.76,80.00
             163.16,78.13 163.62,76.77 163.76,75.00
             166.21,75.45 168.76,75.85 170.66,77.14 Z
           M 124.00,79.00
           C 125.47,89.10 117.75,89.28 110.00,89.00
             111.12,82.45 118.07,80.11 124.00,79.00 Z
           M 142.00,82.00
           C 142.00,82.00 138.00,83.00 138.00,83.00
             138.00,83.00 142.00,82.00 142.00,82.00 Z
           M 150.00,83.00
           C 150.00,83.00 150.00,85.00 150.00,85.00
             150.00,85.00 144.00,85.00 144.00,85.00
             144.00,85.00 144.00,83.00 144.00,83.00
             144.00,83.00 150.00,83.00 150.00,83.00 Z
           M 157.00,84.00
           C 157.00,84.00 152.00,82.00 152.00,82.00
             152.00,82.00 157.00,84.00 157.00,84.00 Z
           M 163.00,86.00
           C 163.00,86.00 159.00,85.00 159.00,85.00
             159.00,85.00 160.00,82.00 160.00,82.00
             160.00,82.00 163.00,86.00 163.00,86.00 Z
           M 138.00,87.00
           C 138.00,87.00 134.00,86.00 134.00,86.00
             134.00,86.00 135.00,83.00 135.00,83.00
             135.00,83.00 138.00,87.00 138.00,87.00 Z
           M 128.00,90.00
           C 128.00,90.00 127.00,86.00 127.00,86.00
             127.00,86.00 131.00,84.00 131.00,84.00
             132.03,87.57 131.06,88.28 128.00,90.00 Z
           M 143.00,92.00
           C 140.07,89.77 140.21,89.55 141.00,86.00
             143.93,88.23 143.79,88.45 143.00,92.00 Z
           M 153.00,86.00
           C 153.00,86.00 153.00,91.00 153.00,91.00
             150.47,89.17 150.75,89.07 151.00,86.00
             151.00,86.00 153.00,86.00 153.00,86.00 Z
           M 160.00,89.00
           C 160.00,89.00 155.00,87.00 155.00,87.00
             158.07,86.75 158.17,86.47 160.00,89.00 Z
           M 126.00,93.00
           C 126.00,93.00 122.00,91.00 122.00,91.00
             122.00,91.00 122.00,89.00 122.00,89.00
             122.00,89.00 124.00,88.00 124.00,88.00
             124.00,88.00 126.00,93.00 126.00,93.00 Z
           M 149.00,92.00
           C 146.33,90.85 146.59,90.82 147.00,88.00
             147.00,88.00 149.00,92.00 149.00,92.00 Z
           M 166.00,88.00
           C 166.00,88.00 168.00,92.00 168.00,92.00
             168.00,92.00 162.00,93.00 162.00,93.00
             162.00,93.00 166.00,88.00 166.00,88.00 Z
           M 195.09,104.00
           C 197.35,92.37 199.79,90.58 211.00,88.75
             214.12,88.25 217.79,87.34 220.45,89.60
             226.10,94.40 225.04,106.25 225.00,113.00
             224.98,115.31 225.11,117.81 223.98,119.91
             222.76,122.17 219.98,124.19 218.00,125.80
             213.83,129.20 209.68,134.60 204.00,131.84
             204.00,131.84 191.00,123.00 191.00,123.00
             191.00,123.00 195.09,104.00 195.09,104.00 Z
           M 137.00,89.00
           C 137.00,89.00 134.00,92.00 134.00,92.00
             134.00,92.00 137.00,89.00 137.00,89.00 Z
           M 115.98,93.56
           C 119.67,98.56 113.56,106.82 111.30,99.85
             111.30,99.85 110.72,96.00 110.72,96.00
             110.72,96.00 110.00,91.00 110.00,91.00
             112.02,91.44 114.65,91.76 115.98,93.56 Z
           M 64.98,95.59
           C 66.16,97.12 65.95,100.13 66.09,102.00
             66.27,104.46 67.41,108.17 65.39,110.02
             63.28,111.95 52.69,115.04 50.01,113.89
             42.98,110.85 40.40,98.53 45.43,93.02
             48.92,91.66 62.56,92.48 64.98,95.59 Z
           M 121.00,92.00
           C 121.40,95.26 121.65,95.91 119.00,98.00
             119.00,98.00 119.00,92.00 119.00,92.00
             119.00,92.00 121.00,92.00 121.00,92.00 Z
           M 132.00,93.00
           C 132.00,93.00 128.00,93.00 128.00,93.00
             128.00,93.00 132.00,93.00 132.00,93.00 Z
           M 143.00,97.00
           C 143.00,97.00 137.00,93.00 137.00,93.00
             137.00,93.00 138.00,92.00 138.00,92.00
             138.00,92.00 143.00,97.00 143.00,97.00 Z
           M 151.32,97.05
           C 151.41,95.36 151.84,94.26 153.31,93.32
             159.57,89.30 163.38,99.90 156.94,101.84
             155.70,102.03 153.33,101.98 152.00,101.84
             152.00,101.84 151.32,97.05 151.32,97.05 Z
           M 180.00,93.00
           C 185.35,102.47 182.87,104.65 174.00,111.00
             169.62,104.10 172.90,96.35 180.00,93.00 Z
           M 147.00,94.00
           C 147.00,94.00 148.00,97.00 148.00,97.00
             148.00,97.00 145.00,94.00 145.00,94.00
             145.00,94.00 147.00,94.00 147.00,94.00 Z
           M 168.00,101.00
           C 168.00,101.00 168.00,94.00 168.00,94.00
             172.67,95.74 171.61,98.70 168.00,101.00 Z
           M 134.86,105.67
           C 129.47,107.01 126.72,101.24 129.60,97.03
             137.55,93.98 140.37,104.29 134.86,105.67 Z
           M 243.91,98.84
           C 251.67,100.18 252.87,118.55 243.91,124.39
             239.28,127.41 231.61,121.99 227.00,120.00
             227.00,120.00 228.00,101.00 228.00,101.00
             232.23,100.64 240.65,98.28 243.91,98.84 Z
           M 126.00,101.00
           C 126.00,101.00 120.00,104.00 120.00,104.00
             121.40,100.54 122.46,100.74 126.00,101.00 Z
           M 144.00,102.00
           C 144.00,102.00 140.00,100.00 140.00,100.00
             140.00,100.00 144.00,102.00 144.00,102.00 Z
           M 169.00,103.00
           C 169.00,103.00 166.00,107.00 166.00,107.00
             166.00,107.00 163.00,102.00 163.00,102.00
             163.00,102.00 164.00,101.00 164.00,101.00
             164.00,101.00 169.00,103.00 169.00,103.00 Z
           M 150.00,104.00
           C 150.00,104.00 146.00,108.00 146.00,108.00
             146.00,108.00 146.00,104.00 146.00,104.00
             146.00,104.00 150.00,104.00 150.00,104.00 Z
           M 164.00,109.00
           C 164.00,109.00 159.00,111.00 159.00,111.00
             159.00,111.00 158.00,104.00 158.00,104.00
             161.87,105.17 162.15,105.40 164.00,109.00 Z
           M 118.84,112.83
           C 115.85,114.13 111.21,110.37 113.64,106.03
             120.49,103.32 123.01,111.02 118.84,112.83 Z
           M 127.00,105.00
           C 127.00,105.00 125.00,111.00 125.00,111.00
             125.00,111.00 123.00,106.00 123.00,106.00
             123.00,106.00 127.00,105.00 127.00,105.00 Z
           M 141.00,111.00
           C 141.00,111.00 139.00,107.00 139.00,107.00
             139.00,107.00 140.00,107.00 140.00,107.00
             140.00,107.00 142.00,105.00 142.00,105.00
             143.70,108.13 143.34,108.45 141.00,111.00 Z
           M 156.00,105.00
           C 156.00,105.00 152.00,110.00 152.00,110.00
             152.00,110.00 152.00,105.00 152.00,105.00
             152.00,105.00 156.00,105.00 156.00,105.00 Z
           M 173.00,113.00
           C 173.00,113.00 166.00,122.00 166.00,122.00
             166.00,122.00 164.00,122.00 164.00,122.00
             164.00,122.00 159.00,115.00 159.00,115.00
             159.00,115.00 168.00,108.00 168.00,108.00
             168.00,108.00 173.00,113.00 173.00,113.00 Z
           M 133.00,109.00
           C 131.20,112.46 130.95,112.96 127.00,113.00
             129.08,109.75 129.19,109.65 133.00,109.00 Z
           M 138.00,113.00
           C 138.00,113.00 135.00,109.00 135.00,109.00
             135.00,109.00 138.00,113.00 138.00,113.00 Z
           M 150.00,113.00
           C 150.00,113.00 144.00,113.00 144.00,113.00
             144.00,113.00 145.00,110.00 145.00,110.00
             145.00,110.00 150.00,113.00 150.00,113.00 Z
           M 156.00,111.00
           C 156.00,111.00 157.00,114.00 157.00,114.00
             157.00,114.00 152.00,114.00 152.00,114.00
             152.00,114.00 152.00,112.00 152.00,112.00
             152.00,112.00 156.00,111.00 156.00,111.00 Z
           M 77.40,135.69
           C 76.10,138.41 63.21,142.11 60.00,142.45
             48.37,143.67 45.17,128.48 49.65,120.22
             51.68,116.48 60.00,114.54 64.00,113.57
             73.92,113.47 80.49,129.26 77.40,135.69 Z
           M 115.90,131.00
           C 117.64,133.32 121.33,136.88 120.51,139.96
             119.90,142.27 115.81,145.42 114.00,147.08
             112.08,148.84 109.55,151.61 107.00,152.30
             104.32,153.02 101.44,151.41 99.00,150.45
             92.05,147.69 85.78,143.59 82.13,136.72
             80.83,134.26 79.88,126.47 79.00,123.00
             79.00,123.00 97.00,113.00 97.00,113.00
             110.66,120.23 107.15,119.37 115.90,131.00 Z
           M 123.00,113.95
           C 125.67,113.77 136.14,118.37 128.00,123.00
             128.00,123.00 120.00,115.00 120.00,115.00
             120.87,114.64 121.30,114.06 123.00,113.95 Z
           M 135.00,117.00
           C 135.00,117.00 133.00,113.00 133.00,113.00
             133.00,113.00 135.00,117.00 135.00,117.00 Z
           M 144.00,117.00
           C 144.00,117.00 137.00,118.00 137.00,118.00
             137.00,118.00 140.00,113.00 140.00,113.00
             140.00,113.00 144.00,117.00 144.00,117.00 Z
           M 152.00,117.00
           C 152.00,117.00 146.00,119.00 146.00,119.00
             147.89,116.28 148.83,115.99 152.00,117.00 Z
           M 158.71,118.70
           C 160.74,119.95 162.68,123.04 164.00,125.00
             159.06,128.31 155.77,127.89 150.00,128.00
             150.55,123.96 152.40,114.82 158.71,118.70 Z
           M 148.00,121.00
           C 147.94,122.69 148.09,124.99 146.98,126.40
             145.38,128.43 138.29,128.79 136.00,127.98
             134.35,127.40 132.46,125.98 131.00,125.00
             136.70,117.68 139.81,120.82 148.00,121.00 Z
           M 210.02,136.04
           C 211.41,133.39 223.44,123.16 226.28,122.70
             228.56,122.33 231.98,124.22 234.00,125.25
             235.94,126.24 238.46,127.30 239.43,129.39
             243.38,137.88 233.00,157.75 222.00,157.31
             218.52,157.17 211.35,150.33 208.00,148.00
             208.34,145.45 209.06,137.86 210.02,136.04 Z
           M 204.57,149.00
           C 203.05,152.27 200.64,154.13 198.00,156.42
             187.14,165.84 186.97,164.03 173.00,164.00
             170.83,164.00 167.32,164.23 165.50,162.98
             161.86,160.48 159.36,149.09 161.29,145.17
             162.42,142.88 169.13,135.22 171.17,133.65
             173.09,132.16 185.78,126.07 188.00,125.77
             192.14,125.22 202.91,133.54 207.00,136.00
             206.00,140.11 206.08,145.76 204.57,149.00 Z
           M 77.00,139.74
           C 81.78,139.07 88.75,144.97 87.85,150.00
             87.42,152.40 84.60,155.23 83.00,157.00
             81.33,158.83 78.11,162.85 75.91,163.68
             70.58,165.69 63.96,159.43 61.97,155.00
             60.48,151.70 60.17,148.55 60.00,145.00
             60.00,145.00 77.00,139.74 77.00,139.74 Z
           M 126.00,140.35
           C 129.92,139.54 144.64,143.35 149.00,144.66
             150.64,145.15 155.19,146.08 156.27,146.98
             158.06,148.47 158.74,153.63 159.44,156.00
             160.15,158.40 162.06,162.42 161.30,164.79
             159.96,168.99 151.87,171.66 148.00,172.63
             137.17,175.34 135.85,174.00 126.00,170.32
             123.40,169.35 119.43,168.01 117.32,166.30
             114.91,164.35 110.78,157.84 109.00,155.00
             112.50,151.27 121.36,141.31 126.00,140.35 Z
           M 68.00,212.81
           C 64.31,215.73 56.03,219.97 53.64,212.81
             52.35,209.14 55.95,203.97 58.04,201.00
             58.04,201.00 78.20,177.00 78.20,177.00
             82.02,169.98 76.78,168.65 81.42,162.00
             83.78,158.61 89.61,151.00 94.00,151.21
             100.70,151.54 113.57,159.74 113.69,167.00
             113.72,168.89 107.23,179.93 105.59,181.26
             102.51,183.75 94.03,183.00 90.00,183.00
             88.01,190.33 73.97,207.72 68.00,212.81 Z
           M 217.36,159.09
           C 219.25,164.82 212.68,169.98 208.00,171.53
             199.32,174.41 195.26,172.50 192.00,164.00
             192.00,164.00 207.00,150.00 207.00,150.00
             210.23,151.73 216.16,155.48 217.36,159.09 Z
           M 166.00,166.75
           C 166.00,166.75 175.00,166.75 175.00,166.75
             175.00,166.75 190.00,165.00 190.00,165.00
             191.81,168.76 195.48,173.76 194.45,178.00
             191.47,190.26 169.95,192.11 164.27,188.69
             160.83,186.61 157.07,175.97 156.00,172.00
             156.00,172.00 166.00,166.75 166.00,166.75 Z
           M 136.00,176.00
           C 135.38,180.42 133.72,189.49 129.78,192.01
             125.18,194.96 111.45,193.22 110.15,184.00
             109.28,177.83 112.97,173.85 116.00,169.00
             116.00,169.00 136.00,176.00 136.00,176.00 Z
           M 153.35,175.03
           C 155.67,176.54 160.07,187.26 159.30,189.96
             158.22,193.72 152.57,196.17 149.00,196.63
             140.30,197.77 135.07,192.67 136.81,184.00
             137.17,182.19 137.69,179.78 138.85,178.31
             140.86,175.79 146.81,175.13 149.96,174.51
             151.31,174.52 152.04,174.18 153.35,175.03 Z" />
</svg>
