<?xml version="1.0" encoding="UTF-8" standalone="no"?>
<!DOCTYPE svg PUBLIC "-//W3C//DTD SVG 20010904//EN"
              "http://www.w3.org/TR/2001/REC-SVG-20010904/DTD/svg10.dtd">

<svg xmlns="http://www.w3.org/2000/svg"
     width="8.66667in" height="6.54167in"
     viewBox="0 0 624 471">
  <path id="Selection #4"
        fill="none" stroke="black" stroke-width="1"
        d="M 306.00,174.00
           C 301.24,173.94 294.96,173.29 291.06,170.35
             286.28,166.75 285.46,159.49 290.23,155.56
             297.81,149.30 318.47,156.39 323.15,164.02
             325.10,167.20 324.97,170.42 325.00,174.00
             325.00,174.00 306.00,174.00 306.00,174.00 Z
           M 294.00,183.62
           C 287.43,182.39 281.96,177.51 275.00,177.11
             269.87,176.81 263.55,179.77 259.32,175.57
             255.97,172.25 258.08,169.04 261.06,166.53
             265.20,163.03 273.67,159.00 279.00,158.00
             281.75,164.39 285.01,172.29 291.00,176.18
             295.82,179.31 300.24,178.77 305.00,182.00
             301.18,183.24 298.10,184.39 294.00,183.62 Z
           M 365.00,200.11
           C 360.97,200.53 358.07,201.37 354.00,200.11
             341.61,196.69 334.07,178.86 333.00,167.00
             354.31,167.98 360.02,181.50 365.00,200.11 Z
           M 245.00,176.36
           C 250.24,176.55 253.29,180.02 250.26,185.00
             247.92,188.84 243.29,191.97 239.00,193.21
             234.34,194.56 225.01,194.30 226.71,187.00
             228.09,181.09 234.85,178.29 240.00,176.36
             241.87,176.26 243.04,175.96 245.00,176.36 Z
           M 313.03,182.74
           C 315.81,180.87 318.83,181.02 322.00,181.00
             324.33,180.99 328.46,180.69 330.39,181.99
             331.86,182.98 333.28,185.46 334.13,187.00
             338.25,194.41 338.76,201.32 333.00,208.00
             330.52,197.85 333.12,197.09 325.00,188.00
             325.00,188.00 328.00,195.00 328.00,195.00
             328.00,195.00 318.00,195.00 318.00,195.00
             318.00,195.00 320.00,184.00 320.00,184.00
             314.97,187.04 313.97,188.19 313.03,194.00
             307.74,191.04 308.19,186.03 313.03,182.74 Z
           M 266.00,183.00
           C 266.00,183.00 266.00,195.00 266.00,195.00
             266.00,195.00 259.00,195.00 259.00,195.00
             259.00,195.00 261.00,183.00 261.00,183.00
             261.00,183.00 266.00,183.00 266.00,183.00 Z
           M 271.00,185.00
           C 271.00,185.00 280.00,183.00 280.00,183.00
             278.54,188.25 274.70,187.74 271.00,185.00 Z
           M 324.00,187.00
           C 324.00,187.00 325.00,188.00 325.00,188.00
             325.00,188.00 325.00,187.00 325.00,187.00
             325.00,187.00 324.00,187.00 324.00,187.00 Z
           M 291.00,188.00
           C 291.00,188.00 288.00,199.00 288.00,199.00
             288.00,199.00 286.00,188.00 286.00,188.00
             286.00,188.00 291.00,188.00 291.00,188.00 Z
           M 253.00,212.00
           C 253.00,212.00 251.00,193.00 251.00,193.00
             254.96,198.01 257.03,206.52 253.00,212.00 Z
           M 302.00,195.00
           C 297.67,201.73 299.03,199.63 303.00,211.00
             294.34,206.23 296.36,203.19 298.00,195.00
             298.00,195.00 302.00,195.00 302.00,195.00 Z
           M 234.00,225.00
           C 223.93,218.58 224.00,210.71 224.00,200.00
             239.20,202.49 237.35,213.41 234.00,225.00 Z
           M 317.98,217.64
           C 309.62,219.27 306.70,207.26 315.10,203.60
             327.28,202.58 325.25,216.23 317.98,217.64 Z
           M 348.00,216.00
           C 343.71,212.82 341.88,211.51 343.00,206.00
             343.00,206.00 348.00,216.00 348.00,216.00 Z
           M 353.00,227.00
           C 353.01,223.20 352.89,220.72 354.05,217.00
             358.01,204.29 368.31,206.53 371.35,213.04
             374.48,219.76 370.22,227.26 364.96,231.47
             361.21,234.47 357.43,235.52 353.00,237.00
             353.00,237.00 353.00,227.00 353.00,227.00 Z
           M 272.00,227.43
           C 261.01,230.57 262.25,216.60 269.10,212.92
             278.57,212.58 281.40,224.74 272.00,227.43 Z
           M 253.00,218.00
           C 253.00,218.00 246.00,227.00 246.00,227.00
             246.00,227.00 244.00,218.00 244.00,218.00
             244.00,218.00 253.00,218.00 253.00,218.00 Z
           M 345.00,228.00
           C 337.59,227.97 336.27,228.07 333.00,221.00
             339.41,221.29 344.39,220.66 345.00,228.00 Z
           M 293.00,227.00
           C 293.00,227.00 286.00,238.00 286.00,238.00
             286.00,238.00 288.00,227.00 288.00,227.00
             288.00,227.00 293.00,227.00 293.00,227.00 Z
           M 328.00,227.00
           C 329.55,235.63 329.46,240.34 321.00,245.00
             321.00,245.00 323.00,227.00 323.00,227.00
             323.00,227.00 328.00,227.00 328.00,227.00 Z
           M 251.00,241.00
           C 251.00,241.00 253.00,228.00 253.00,228.00
             258.21,233.36 256.40,236.83 251.00,241.00 Z
           M 233.00,230.00
           C 234.99,230.03 237.07,230.03 238.98,230.65
             252.18,234.92 240.11,252.09 232.13,241.77
             231.11,240.46 230.28,238.59 229.80,237.00
             229.06,234.56 229.06,232.50 229.00,230.00
             229.00,230.00 233.00,230.00 233.00,230.00 Z
           M 335.00,265.00
           C 332.96,262.44 330.90,259.85 329.27,257.00
             320.66,241.90 336.86,238.45 347.00,234.00
             354.87,247.26 346.21,257.88 335.00,265.00 Z
           M 293.00,258.00
           C 293.00,258.00 281.00,258.00 281.00,258.00
             281.00,258.00 281.00,244.00 281.00,244.00
             281.00,244.00 277.00,244.00 277.00,244.00
             277.00,244.00 276.00,237.00 276.00,237.00
             285.25,242.32 290.50,247.38 293.00,258.00 Z
           M 303.00,248.00
           C 303.00,248.00 294.00,248.00 294.00,248.00
             295.27,242.09 296.82,241.60 302.00,239.00
             302.00,239.00 303.00,248.00 303.00,248.00 Z
           M 316.00,241.00
           C 316.00,241.00 315.00,251.00 315.00,251.00
             315.00,251.00 308.00,241.00 308.00,241.00
             308.00,241.00 316.00,241.00 316.00,241.00 Z
           M 271.00,257.00
           C 271.00,257.00 267.00,266.00 267.00,266.00
             273.81,264.95 283.02,261.60 290.00,262.19
             293.89,262.51 302.06,264.45 300.34,269.97
             298.29,276.62 286.52,276.42 281.00,275.83
             270.09,274.66 255.02,266.35 250.53,256.00
             249.12,252.74 249.08,250.45 249.00,247.00
             249.00,247.00 271.00,257.00 271.00,257.00 Z
           M 323.98,260.64
           C 325.27,261.58 326.60,262.77 327.57,264.04
             331.75,269.57 327.83,274.27 322.00,275.87
             320.01,276.07 317.09,276.00 315.00,275.87
             315.00,275.87 306.00,275.87 306.00,275.87
             306.55,272.10 310.52,261.18 308.31,258.58
             306.87,256.89 301.71,256.25 299.00,255.00
             306.56,255.17 317.81,256.10 323.98,260.64 Z
           M 239.00,156.14
           C 253.75,147.47 277.63,126.84 296.00,132.00
             292.01,148.82 278.74,151.55 265.00,157.43
             241.59,167.44 245.53,170.15 216.00,178.00
             220.82,164.45 227.58,162.85 239.00,156.14 Z
           M 316.00,138.01
           C 316.00,138.01 343.00,141.42 343.00,141.42
             346.81,142.12 353.86,143.65 356.98,145.72
             361.39,148.65 363.60,153.09 365.00,158.00
             346.62,163.96 331.32,159.53 314.00,152.60
             314.00,152.60 300.00,147.00 300.00,147.00
             302.84,138.76 308.13,137.84 316.00,138.01 Z
           M 383.00,175.04
           C 394.69,186.17 404.80,193.92 398.39,211.00
             397.67,212.90 395.93,217.90 394.30,218.96
             390.73,221.29 382.60,214.39 380.30,211.91
             374.36,205.52 366.62,190.32 363.47,182.00
             361.55,176.94 360.82,171.86 365.15,168.02
             372.41,165.51 377.94,170.23 383.00,175.04 Z
           M 198.41,239.99
           C 195.97,235.60 196.01,231.82 196.00,227.00
             196.00,227.00 196.00,197.00 196.00,197.00
             196.03,191.51 196.51,183.07 202.05,180.18
             206.20,178.02 209.24,180.20 211.03,184.02
             213.88,190.11 213.55,197.48 214.17,204.00
             214.17,204.00 216.42,224.00 216.42,224.00
             218.38,238.51 218.16,237.73 217.00,252.00
             210.34,250.44 201.85,246.14 198.41,239.99 Z
           M 340.39,273.00
           C 341.85,266.20 350.29,256.08 355.02,251.00
             361.81,243.71 372.65,231.08 382.00,227.56
             386.17,225.99 389.65,226.01 394.00,226.00
             394.00,226.00 388.13,251.00 388.13,251.00
             388.13,251.00 384.28,262.47 384.28,262.47
             384.28,262.47 371.00,270.85 371.00,270.85
             371.00,270.85 342.00,287.00 342.00,287.00
             340.91,282.16 339.29,278.08 340.39,273.00 Z
           M 241.00,260.00
           C 241.00,260.00 268.00,278.00 268.00,278.00
             265.71,289.32 260.50,301.70 247.00,292.89
             244.82,291.47 242.91,289.83 241.09,287.96
             235.97,282.70 226.16,268.12 224.53,261.00
             223.81,257.89 224.00,253.29 224.00,250.00
             224.00,250.00 241.00,260.00 241.00,260.00 Z
           M 276.22,286.65
           C 280.65,282.99 289.40,284.03 295.00,284.00
             305.24,283.95 324.01,278.42 331.77,286.22
             338.53,293.02 332.67,301.93 326.00,306.17
             317.79,311.00 306.79,308.36 298.00,306.17
             298.00,306.17 271.00,301.00 271.00,301.00
             271.23,296.20 272.30,289.89 276.22,286.65 Z
           M 325.00,71.00
           C 340.78,71.19 350.49,76.50 360.95,88.01
             363.98,91.35 367.91,96.11 370.12,100.00
             380.00,117.36 361.91,136.02 344.00,134.68
             331.28,133.73 320.53,132.97 308.00,129.87
             303.41,128.73 295.90,126.38 292.30,123.36
             282.98,115.56 280.02,92.95 287.80,83.29
             292.90,76.94 302.35,73.55 310.00,71.52
             314.93,70.74 320.01,70.95 325.00,71.00 Z
           M 277.99,114.00
           C 278.05,116.90 278.10,120.29 276.99,123.00
             273.87,130.62 258.18,138.65 251.00,142.86
             251.00,142.86 218.00,162.41 218.00,162.41
             212.94,165.19 202.61,170.20 197.00,170.61
             191.70,171.01 183.03,167.72 178.00,165.81
             175.58,164.89 168.14,162.40 166.65,160.93
             163.92,158.42 165.83,153.00 166.65,150.00
             169.41,140.93 172.86,132.08 177.81,124.00
             185.46,111.51 197.33,98.09 211.00,92.17
             218.36,88.98 228.05,88.49 236.00,87.91
             236.00,87.91 274.00,86.00 274.00,86.00
             274.00,86.00 277.99,114.00 277.99,114.00 Z
           M 419.00,189.05
           C 414.24,189.44 410.80,190.83 406.00,189.05
             399.94,186.71 392.54,179.59 388.00,175.00
             379.49,166.40 366.26,149.94 368.21,137.00
             368.89,132.51 372.60,126.87 375.05,123.00
             376.32,121.01 380.21,114.87 381.76,113.58
             384.24,111.51 387.10,112.45 390.00,112.92
             390.00,112.92 407.00,115.66 407.00,115.66
             423.63,119.41 445.41,136.30 450.21,153.00
             452.57,161.21 451.00,176.99 451.00,186.00
             451.00,186.00 419.00,189.05 419.00,189.05 Z
           M 172.00,169.76
           C 174.50,170.43 177.82,171.62 180.00,172.99
             194.19,181.91 188.02,202.12 188.00,216.00
             187.99,221.60 188.01,235.28 185.69,240.00
             182.23,247.00 168.07,253.12 161.00,256.30
             158.93,257.24 154.11,259.66 152.04,259.78
             148.50,260.00 146.50,256.49 144.63,254.00
             139.97,247.80 135.18,241.75 133.52,234.00
             129.72,216.35 134.77,184.30 150.09,172.99
             153.83,170.22 157.51,169.24 162.00,168.53
             165.46,168.44 168.64,168.86 172.00,169.76 Z
           M 463.00,226.00
           C 463.01,234.17 463.92,251.03 461.01,258.00
             457.95,265.34 449.36,272.51 443.00,277.08
             438.34,280.42 429.88,285.12 424.00,284.44
             420.15,284.00 415.31,281.52 412.00,279.55
             406.28,276.14 398.83,270.33 396.13,264.00
             394.49,259.31 395.49,256.68 396.13,252.00
             396.65,244.17 398.82,233.59 401.00,226.00
             402.84,219.60 405.75,207.99 410.34,203.33
             417.30,196.26 430.77,195.74 440.00,194.42
             458.69,192.33 462.98,211.47 463.00,226.00 Z
           M 228.47,279.00
           C 233.08,285.14 239.41,291.75 238.93,300.00
             238.58,305.94 232.31,311.65 228.58,316.00
             225.77,319.26 218.94,328.18 215.00,328.94
             212.14,329.49 201.20,326.06 198.00,325.00
             180.28,319.14 165.39,307.29 159.36,289.00
             157.33,282.85 155.87,275.14 158.65,269.00
             162.27,261.00 178.73,253.74 187.00,251.52
             209.04,248.03 217.04,263.75 228.47,279.00 Z
           M 421.99,309.00
           C 421.78,318.00 418.22,324.08 412.79,331.00
             400.35,346.86 391.18,350.25 372.00,352.17
             372.00,352.17 362.00,353.00 362.00,353.00
             355.86,353.03 344.22,353.34 339.01,350.15
             327.26,342.94 326.66,319.92 332.95,309.00
             342.36,292.68 363.12,280.28 381.00,275.52
             401.20,272.32 422.48,287.65 421.99,309.00 Z
           M 298.00,311.63
           C 303.42,313.02 311.67,315.41 315.67,319.34
             319.14,322.74 321.29,328.47 322.95,333.00
             325.09,338.85 328.57,349.98 326.26,356.00
             324.47,360.66 319.24,363.99 315.00,366.22
             302.61,372.72 294.50,373.06 281.00,373.00
             264.80,372.92 242.19,364.93 231.09,353.00
             223.85,345.20 219.75,335.74 226.11,326.00
             228.50,322.33 232.67,318.15 236.00,315.30
             239.95,311.92 244.18,308.63 249.00,306.65
             261.50,304.07 285.43,308.39 298.00,311.63 Z
           M 351.87,25.17
           C 358.78,34.90 356.15,56.63 345.96,63.26
             342.74,65.36 338.68,65.04 335.00,65.00
             329.56,64.93 317.45,63.53 313.18,60.30
             305.19,54.24 300.90,34.26 307.57,26.18
             313.00,19.60 320.19,18.60 328.00,17.42
             336.39,16.40 346.58,17.74 351.87,25.17 Z
           M 286.00,26.97
           C 296.64,33.81 304.51,55.55 297.39,66.96
             292.73,74.43 281.38,78.50 273.00,79.70
             267.94,80.42 259.43,80.02 255.09,77.15
             252.19,75.23 250.36,72.01 248.78,69.00
             244.97,61.73 238.28,44.95 241.66,37.00
             245.42,28.20 256.42,24.84 265.00,23.43
             272.05,22.56 279.85,23.02 286.00,26.97 Z
           M 424.35,57.00
           C 433.08,76.05 416.24,103.27 396.00,105.69
             387.79,106.67 379.92,101.37 374.04,96.25
             357.93,82.21 348.54,56.12 369.09,41.13
             373.74,37.74 378.60,38.19 384.00,37.43
             399.04,35.92 417.72,42.52 424.35,57.00 Z
           M 233.00,81.04
           C 233.00,81.04 223.00,82.00 223.00,82.00
             218.52,82.05 214.03,82.22 210.00,79.91
             197.07,72.53 192.24,47.03 214.00,44.48
             216.71,44.16 219.39,44.54 222.00,45.30
             225.35,46.29 228.25,48.12 230.83,50.47
             233.81,53.18 236.76,57.37 238.51,61.00
             241.05,66.29 243.69,75.21 245.00,81.04
             245.00,81.04 233.00,81.04 233.00,81.04 Z
           M 199.19,78.00
           C 200.54,80.17 203.98,85.44 203.77,87.91
             203.53,90.65 198.03,94.99 196.00,97.00
             189.88,103.06 178.50,114.82 170.00,116.61
             157.34,119.28 145.29,101.17 145.01,90.00
             144.66,75.21 152.82,65.33 167.00,61.52
             182.00,59.14 191.36,65.47 199.19,78.00 Z
           M 424.42,90.00
           C 427.04,85.80 431.12,79.55 435.04,76.64
             449.40,65.94 472.09,76.38 472.96,93.00
             473.61,105.54 464.13,113.09 454.00,118.69
             448.63,121.65 444.31,123.74 438.00,122.79
             433.35,122.09 419.61,114.42 414.00,112.00
             417.09,102.75 419.24,98.31 424.42,90.00 Z
           M 466.00,116.74
           C 471.82,112.81 479.76,107.70 487.00,108.11
             499.51,108.81 505.08,122.52 499.95,132.98
             495.31,142.46 476.60,145.48 467.00,147.08
             464.25,147.54 456.87,149.40 454.63,147.97
             452.05,146.32 446.93,134.27 446.00,131.00
             446.00,131.00 466.00,116.74 466.00,116.74 Z
           M 129.25,191.00
           C 128.20,193.09 126.20,197.73 124.37,198.88
             121.69,200.87 115.13,199.27 112.00,198.88
             106.11,197.77 88.32,195.06 84.10,192.16
             82.17,190.83 80.89,189.15 80.01,187.00
             74.64,173.95 87.81,156.49 101.00,154.33
             105.90,153.53 110.64,155.19 115.00,157.26
             115.00,157.26 138.00,171.00 138.00,171.00
             136.78,177.49 132.26,184.97 129.25,191.00 Z
           M 114.00,205.05
           C 115.99,205.27 121.85,205.82 123.26,206.99
             125.18,208.58 125.39,216.26 125.72,219.00
             126.08,222.05 127.38,234.59 126.40,236.73
             125.28,239.18 122.33,239.87 120.00,240.67
             120.00,240.67 104.00,245.33 104.00,245.33
             85.82,249.06 78.82,234.74 79.00,219.00
             79.09,211.33 80.18,207.06 88.00,204.53
             96.37,203.15 105.62,204.11 114.00,205.05 Z
           M 508.79,219.51
           C 512.60,222.67 514.09,229.27 514.71,234.00
             516.56,248.20 512.03,269.74 494.00,268.96
             488.12,268.71 481.52,265.76 476.00,263.68
             473.72,262.82 470.70,262.00 469.57,259.61
             468.62,257.59 470.00,239.23 470.42,236.00
             470.88,232.50 470.55,223.72 472.60,221.58
             474.85,219.25 486.35,218.02 490.00,217.43
             495.16,216.79 504.63,216.06 508.79,219.51 Z
           M 149.99,284.00
           C 149.90,287.55 149.47,290.93 147.30,293.90
             141.28,302.10 120.77,306.11 111.00,306.00
             99.34,305.86 90.38,298.72 88.17,287.00
             88.17,287.00 88.17,277.00 88.17,277.00
             88.06,272.14 88.52,269.39 90.82,265.00
             96.42,254.34 109.74,250.12 121.00,248.75
             139.54,249.27 150.40,266.84 149.99,284.00 Z
           M 474.00,269.04
           C 488.55,269.74 494.49,280.60 493.96,294.00
             493.34,309.86 481.78,331.04 466.00,335.95
             449.76,341.00 428.92,323.28 430.33,307.00
             431.77,290.29 449.20,275.17 464.00,269.64
             467.39,268.96 470.55,268.87 474.00,269.04 Z
           M 148.00,304.30
           C 159.91,302.73 171.85,313.65 169.78,326.00
             168.99,330.71 165.39,334.46 162.41,338.00
             152.35,349.94 142.23,356.82 128.00,346.24
             123.63,342.98 121.28,339.79 118.79,335.00
             115.63,328.94 113.91,321.74 113.00,315.00
             113.00,315.00 148.00,304.30 148.00,304.30 Z
           M 444.08,355.00
           C 439.44,364.82 428.42,369.88 418.00,370.00
             415.20,370.03 411.70,370.10 409.00,369.47
             399.29,367.22 396.72,359.55 401.00,351.00
             404.82,343.35 416.10,334.78 424.00,331.65
             438.66,328.68 451.01,340.36 444.08,355.00 Z
           M 374.00,360.21
           C 380.50,360.01 385.53,360.53 390.96,364.64
             400.36,371.74 399.80,384.52 392.67,392.99
             382.72,404.81 365.80,408.33 351.00,407.99
             336.74,407.66 328.20,400.06 323.37,387.00
             321.13,381.48 319.68,375.20 323.37,370.04
             330.92,360.06 346.25,361.95 357.00,360.21
             357.00,360.21 374.00,360.21 374.00,360.21 Z
           M 268.01,403.00
           C 257.30,423.91 224.99,415.45 220.53,396.00
             218.06,385.25 226.80,367.65 239.00,368.39
             247.02,368.88 265.02,377.89 274.00,381.00
             272.15,387.99 271.27,396.62 268.01,403.00 Z
           M 313.30,377.01
           C 315.80,378.79 318.96,391.52 320.02,395.00
             321.15,398.67 322.61,403.10 322.19,407.00
             320.92,418.70 309.62,421.11 300.00,421.00
             287.75,420.85 275.25,413.75 276.09,400.00
             276.38,395.25 278.28,389.72 281.39,386.09
             287.17,379.33 300.42,377.98 308.98,376.45
             310.55,376.36 311.88,375.99 313.30,377.01 Z
           M 23.00,27.53
           C 36.40,24.45 48.89,33.07 57.91,42.09
             57.91,42.09 98.00,89.00 98.00,89.00
             101.74,92.75 107.75,99.17 112.00,101.87
             124.38,109.73 155.09,105.64 161.95,128.00
             164.68,136.93 158.23,156.74 150.91,162.43
             148.12,164.60 145.46,165.13 142.00,164.90
             136.64,164.56 132.46,161.92 128.00,159.19
             119.16,153.78 108.10,145.69 102.44,137.00
             91.32,119.94 80.01,104.07 65.00,90.09
             48.95,75.13 16.60,54.90 10.00,34.00
             13.95,31.43 18.34,28.60 23.00,27.53 Z
           M 459.00,180.00
           C 459.00,180.00 459.00,163.00 459.00,163.00
             459.00,161.05 458.74,157.29 459.99,155.74
             461.63,153.69 472.91,152.39 476.00,151.80
             482.75,150.53 492.34,149.05 499.00,150.76
             510.68,153.76 517.48,161.59 534.00,161.99
             550.20,162.37 567.06,156.74 583.00,155.17
             602.09,153.29 601.95,154.57 620.00,157.00
             616.54,168.78 597.89,176.00 587.00,179.28
             573.25,183.42 559.15,186.19 545.00,188.57
             545.00,188.57 520.00,193.25 520.00,193.25
             511.88,196.08 509.14,202.61 501.00,207.10
             494.47,210.70 476.98,213.55 469.00,215.00
             465.49,206.99 459.11,188.41 459.00,180.00 Z
           M 223.81,359.00
           C 224.56,368.02 216.58,382.05 209.96,387.66
             199.35,396.66 189.73,389.03 178.01,399.21
             173.47,403.16 166.49,412.85 162.63,418.00
             154.52,428.80 146.58,439.42 137.00,449.00
             129.37,456.63 122.56,463.62 111.00,462.96
             95.16,462.05 101.88,444.12 107.09,436.00
             118.41,418.35 141.83,399.49 151.49,382.00
             157.34,371.41 154.85,366.42 156.90,358.00
             159.52,347.20 170.54,333.44 181.00,329.57
             199.08,326.32 222.21,339.66 223.81,359.00 Z" />
</svg>
