<?xml version="1.0" encoding="UTF-8" standalone="no"?>
<svg
   xmlns:dc="http://purl.org/dc/elements/1.1/"
   xmlns:cc="http://creativecommons.org/ns#"
   xmlns:rdf="http://www.w3.org/1999/02/22-rdf-syntax-ns#"
   xmlns:svg="http://www.w3.org/2000/svg"
   xmlns="http://www.w3.org/2000/svg"
   xmlns:sodipodi="http://sodipodi.sourceforge.net/DTD/sodipodi-0.dtd"
   xmlns:inkscape="http://www.inkscape.org/namespaces/inkscape"
   width="3.91667in"
   height="3.36111in"
   viewBox="0 0 282 242"
   version="1.1"
   id="svg3"
   sodipodi:docname="test_blank.svg"
   inkscape:version="0.92.3 (unknown)">
  <metadata
     id="metadata9">
    <rdf:RDF>
      <cc:Work
         rdf:about="">
        <dc:format>image/svg+xml</dc:format>
        <dc:type
           rdf:resource="http://purl.org/dc/dcmitype/StillImage" />
      </cc:Work>
    </rdf:RDF>
  </metadata>
  <defs
     id="defs7" />
  <sodipodi:namedview
     pagecolor="#ffffff"
     bordercolor="#666666"
     borderopacity="1"
     objecttolerance="10"
     gridtolerance="10"
     guidetolerance="10"
     inkscape:pageopacity="0"
     inkscape:pageshadow="2"
     inkscape:window-width="1855"
     inkscape:window-height="1056"
     id="namedview5"
     showgrid="false"
     inkscape:zoom="1.0343632"
     inkscape:cx="32.969393"
     inkscape:cy="14.657784"
     inkscape:window-x="65"
     inkscape:window-y="24"
     inkscape:window-maximized="1"
     inkscape:current-layer="svg3" />
  <path
     id="path77"
     style="fill:none;fill-opacity:1;stroke:#000000;stroke-width:1.17091668;stroke-opacity:1"
     d="m 137.36644,156.29095 c 3.178,-0.30632 7.91143,-1.58054 10.49635,1.24973 2.7192,2.98956 -0.0336,7.15533 -2.7304,8.66236 -3.12204,1.89909 -6.78121,0.7719 -10.00397,0 -4.72224,-1.28649 -6.18814,-1.88685 -11.19013,-2.35243 1.06306,-9.75283 4.55438,-6.6775 13.42815,-7.55966 z m -14.54716,-2.24217 c -3.44656,19.54238 -16.12498,-3.36937 -16.88591,-7.35137 -0.60425,-2.26667 -0.2238,-2.84252 0,-4.90091 0,0 16.88591,12.25228 16.88591,12.25228 z m 28.32221,-2.45045 c 1.08545,-4.44758 11.66012,-16.52833 15.31929,-18.66023 2.21565,-1.27423 3.27871,-0.99243 5.59507,-0.94342 0,0 -3.53608,15.45012 -3.53608,15.45012 0,0 -16.60616,10.27967 -16.60616,10.27967 -0.77212,-2.40146 -1.44352,-3.40615 -0.77212,-6.12614 z M 94.843956,119.7424 c 0.04476,-2.20541 -0.100711,-5.81984 1.768041,-7.25335 5.024363,-3.87172 5.001983,7.32686 5.259363,9.7038 0,0 0.85045,8.5766 0.85045,8.5766 0.50355,5.53803 1.32043,6.56722 0,12.25228 -9.511613,-4.54559 -8.168797,-6.05263 -7.877854,-23.27933 z M 161,114.84149 c -1.18615,-2.1564 -2.90943,-6.97155 0,-8.16002 2.81991,-0.98018 6.05386,2.76901 7.69881,4.50884 7.19525,7.63317 7.22882,9.1647 3.35704,18.35391 -6.16576,-2.4382 -8.53807,-8.42957 -11.05585,-14.70273 z M 138.73164,94.392432 c 2.65206,-0.759642 17.009,1.409013 19.16869,3.234601 1.56662,1.3355 2.12613,3.112077 2.96539,4.962177 -8.17999,3.94523 -18.00492,-1.18847 -25.7373,-4.900914 1.19734,-1.752077 1.43234,-2.683249 3.60322,-3.295864 z m -27.10249,7.645418 c 6.77002,-4.459825 14.06599,-12.043985 22.38026,-10.475695 -2.68564,8.356056 -6.77003,7.988486 -13.42816,11.419125 -6.63574,3.41839 -10.37325,6.64073 -17.9042,8.18452 1.76804,-5.74632 4.4201,-6.13839 8.9521,-9.12795 z M 79.62,159 c -0.64,-2.05 -1.6,-6.89 -0.93,-8.9 1.6,-4.83 11.48,-8.69 16.31,-7.87 6.04,1.02 11.3,9.86 14.48,14.77 1.24,1.92 3.07,4.6 2.65,7 -0.89,5.1 -9.4,10.83 -14.13,12 0,0 9,10 9,10 -1.2,-1.88 -3.28,-4.7 -3.27,-7 0.01,-4.29 9.26,-12.52 13.27,-13.57 4.8,-1.25 20.09,2.91 23.78,6.08 4.2,3.6 7.24,14.72 2.91,19.07 -4.17,4.18 -15.15,5.45 -20.69,4.18 0,0 -16,-5.76 -16,-5.76 -1.17,3.68 -5.54,12.54 -9.13,14.11 -3.67,1.6 -6.82,-0.18 -10.54,3.2 0,0 -12.75,17.69 -12.75,17.69 -2.7,3.47 -7.25,9.81 -11.58,10.93 -2.98,0.76 -6.88,-0.6 -7.24,-4.04 -0.53,-4.98 9.27,-16.83 12.45,-20.89 2.94,-3.74 7.79,-9.51 9.14,-14 C 78.78,191.29 77,184.02 84.1,178.51 87.52,175.86 92,176.15 96,175 87.43,171.57 82.56,168.43 79.62,159 Z m 59.73,38.03 c 2.49,1.62 5.67,11.05 4.88,13.93 -0.93,3.37 -5.02,5.26 -8.23,5.67 -10.04,1.31 -13.5,-9.18 -8.15,-16.4 2.07,-2.81 4.93,-3.17 8.11,-3.74 1.34,0.02 2.1,-0.3 3.39,0.54 z m 30.44,-7.01 c 8.65,5.14 2.53,18.85 -9.79,20.77 -2.73,0.42 -8.4,0.44 -10.79,-0.96 -3.76,-2.22 -7.91,-12.32 -5.22,-16.26 2.21,-3.24 9.37,-3.6 13.01,-4.15 3.18,-0.38 10.04,-1.03 12.79,0.6 z M 67.91,140.59 c 5.23,1.87 10.86,15.13 8.49,20.1 -0.9,1.88 -13.09,6.24 -15.4,6.45 -9.2,0.87 -11.35,-13.6 -8.42,-19.93 1.65,-3.56 7.87,-5.64 11.42,-6.62 1.52,-0.18 2.31,-0.51 3.91,0 z M 67,127 c -0.01,2.41 0.06,5.66 -0.89,7.9 -0.9,2.12 -2.15,3.15 -4.16,4.18 -7.5,3.83 -12.4,1 -13.84,-7.08 -0.53,-3.02 -1.16,-8.78 2.2,-10.2 3.14,-1.72 12.82,0.02 16.69,0 0,0 0,5.2 0,5.2 z m 34.18,-58.04 c -4.16,-1.33 -8.28,-9.9 -5.54,-13.73 2.88,-4.05 8.59,-3.65 12.03,-0.66 4.04,3.51 5.08,8.37 5.33,13.43 -2.83,0.51 -9.2,1.8 -11.82,0.96 z m 33.64,-7.14 c -2.12,3.79 -7.73,5.63 -11.82,6 -1.82,0.17 -4.1,0.18 -5.7,-0.84 -2.63,-1.68 -7.17,-12.9 -6.38,-15.98 1.18,-4.57 5.96,-7.15 10.08,-8.47 13.65,-1.9 16.21,15.01 13.82,19.29 z M 91.4,111.21 c 0.98,2.25 0.66,18.26 0.6,21.79 -0.12,7.02 -4.79,9.14 -11,11.63 C 73.87,147.5 70.13,140 69.21,134 67.68,123.98 70.06,111.88 79,106.11 c 4.03,-0.83 10.58,0.91 12.4,5.1 z M 123.57,70.5 c 3.12,1.64 4.42,14.37 2.6,17.2 -1.71,2.68 -18.3,13.21 -22.17,15.79 -2.12,1.41 -6.6,4.47 -9,4.79 -3.58,0.48 -11.97,-3.74 -12.97,-7.38 -0.9,-3.23 1.29,-8.08 2.76,-10.9 7.25,-13.97 12.38,-17.34 27.21,-19.5 2.51,-0.38 9.42,-1.01 11.57,0 z m 35.68,0.52 c 1.48,1.88 5.07,6.74 5.45,8.98 0.61,3.64 -4.18,10.73 -7.75,11.69 -5.64,1.51 -20.48,-1.01 -24.67,-5.08 -2.16,-2.1 -2.99,-4.75 -3.61,-7.61 -1.81,-8.3 0.69,-11.21 8.33,-14.35 8.34,-1.73 16.74,-0.66 22.25,6.37 z M 177,155.14 c 13.03,9.67 6.11,21.58 -5,29.21 -3.9,2.68 -10.27,3.11 -15,3.48 -2.39,0.18 -4.75,0.14 -6.72,-1.43 -3.83,-3.04 -5.09,-12.94 -3.58,-17.4 2.86,-8.46 15.44,-17.03 24.3,-17 2.95,0.94 3.47,1.26 6,3.14 z M 199.91,134 c -0.48,8.43 -1.04,13.75 -7.91,19.38 -1.58,1.29 -4,3.25 -6,3.67 -5.22,1.12 -13.34,-5.98 -13.77,-11.05 -0.39,-4.7 3.64,-22.49 7.05,-25.49 2.33,-2.06 5.76,-2.52 8.72,-3.07 10.78,-1.24 12.41,7.62 11.91,16.56 z m -5.84,-35 c 1.63,4.13 3.69,12.55 -1.35,15.12 -2.51,1.29 -12.06,3.21 -14.68,2.27 -2.81,-1.01 -5.98,-5.13 -8.04,-7.39 -7,-7.66 -13.53,-13.56 -5.33,-22.89 1.79,-2.04 2.12,-2.11 4.37,-3.37 11.58,-2.81 21.03,6.08 25.03,16.26 z m -50.18,46.85 c 4.16,2.84 3.92,6.58 -1.9,7.12 0,0 -4.99,0 -4.99,0 0,0 2,-7.97 2,-7.97 0,0 -5,-1 -5,-1 3.31,0.03 7.02,-0.1 9.89,1.85 z M 123,145 c 0,0 -2,4 -2,4 3.51,-1.32 7.13,-2.48 10.94,-1.85 1.84,0.3 4.08,1.31 2.89,3.59 -1.26,2.43 -5.52,2.4 -7.83,2.05 -5.97,-0.9 -13.8,-6.32 -13,-12.79 0,0 9,5 9,5 z m 18,-7 c 0,0 0,4 0,4 0,0 -3,-4 -3,-4 0,0 3,0 3,0 z m -5,-1 c 0,0 0,4 0,4 0,0 -4,0 -4,0 1.07,-3.07 0.93,-2.93 4,-4 z m -4,8 c 0,0 -5,0 -5,0 0,0 0,-6 0,-6 -1.87,1.4 -1.8,-1.63 -2,-3 4.09,3 5.35,4.15 7,9 z m -9,-9 c 0,0 -5,4 -5,4 0,0 5,-4 5,-4 z m 31,-1 c 2.33,6.41 0.1,8.98 -5,13 -6.42,-7.08 -3.69,-10.64 5,-13 z m -13,1 c 0,0 -3,-3 -3,-3 0,0 3,3 3,3 z m -31.13,-2.79 c 6.6,2.35 -0.32,10.78 -3.27,3.72 -0.53,-1.26 -0.49,-2.61 -0.6,-3.72 1.28,-0.13 2.62,-0.18 3.87,0 z M 146,132 c 0.91,4.47 0.42,5.06 -3,8 0,0 1,-8 1,-8 0,0 2,0 2,0 z m -14,0 c 0,0 -3,5 -3,5 0,0 1,-5 1,-5 0,0 2,0 2,0 z m -17,6 c 0,0 1,-6 1,-6 1.94,3.06 1.42,3.47 -1,6 z m 22,-7 c 0,0 -3,3 -3,3 0,0 3,-3 3,-3 z m 16,-1 c 0,0 0,2 0,2 -3.54,0.47 -3.8,0.39 -5,-3 0,0 5,1 5,1 z m -37,-2 c 0,0 -3,4 -3,4 0,0 -1,-4 -1,-4 0,0 4,0 4,0 z m 21,2 c 0,0 -3,-3 -3,-3 0,0 3,3 3,3 z m -16.93,-0.94 c 1.54,-8.6 9.56,0.92 3.64,2.92 -1.19,0.38 -2.51,0.1 -3.64,0 0,0 0,-2.92 0,-2.92 z m 35.98,0.94 c 1.37,-13.21 13.65,-3.84 4.84,3.69 -1.81,1.54 -2.75,1.68 -4.84,2.31 0,0 0,-6 0,-6 z M 154,127 c -2.57,-1.85 -2.28,-1.88 -2,-5 0,0 2,5 2,5 z m -10.61,0.3 c -2.15,1.9 -6.93,-0.41 -3.66,-5.29 5.28,-1.95 5.58,3.59 3.66,5.29 z M 130,125 c 0,0 -4,-4 -4,-4 0,0 4,4 4,4 z m -17,0 c 0,0 -1,-4 -1,-4 0,0 1,4 1,4 z m -5,6 c -4.23,-3.08 -3.89,-6.07 -4,-11 6.41,1.47 5.54,5.56 4,11 z m 28,-13 c 0,0 -2,2 -2,2 0,0 2,5 2,5 -3.79,-1.58 -2.83,-3.46 -2,-7 0,0 2,0 2,0 z m -10,0 c 0,0 -6,4 -6,4 0,0 6,-4 6,-4 z m -10,8 c 0,0 -1,-9 -1,-9 1.92,3.31 2.39,5.37 1,9 z m 15,-11 c 0,0 -1,5 -1,5 0,0 -1,-5 -1,-5 0,0 2,0 2,0 z m -4,-2 c -1.59,2.26 -1.58,2.39 -4,1 0,0 4,-1 4,-1 z m -6,0 c 0,0 0,5 0,5 0,0 -3,0 -3,0 0,0 1,-5 1,-5 0,0 2,0 2,0 z m 17.32,1.98 c 0.84,-3.96 5.74,-2.89 8.68,-2.98 2.64,5.07 4.42,6.8 1,12 -0.73,-4.98 -0.05,-6.44 -4,-10 0,0 2,4 2,4 0,0 -4,0 -4,0 0,0 1,-5 1,-5 -2.9,1.73 -2.82,1.63 -3,5 -1.14,-0.89 -2.09,-1.13 -1.68,-3.02 z m -29.3,2.57 c -2.29,0.35 -5.11,-0.58 -3.85,-3.42 1.15,-2.61 4.29,-3.69 6.77,-4.43 7.27,0.65 1.42,7.19 -2.92,7.85 z m 51.98,2.61 c -1.63,0.18 -3.13,0.71 -4.82,0 -4.6,-1.37 -7.71,-9.78 -8.18,-14.16 9.16,0.32 10.29,6.24 13,14.16 z m -35,-9.68 c -2.59,-0.43 -4.95,0.52 -6.68,0 -6.72,-2.8 5.07,-7.78 6.68,-8.48 3.26,7.23 2.9,8.5 11,10 -4.88,3.25 -6.33,-0.31 -11,-1.52 z M 137,109 c -9.87,-0.19 -8.05,-6.65 -6.4,-7.98 3.01,-2.41 11.45,0.38 13.38,3.37 0.95,1.48 0.88,2.96 1.02,4.61 0,0 -8,0 -8,0 z m -13.41,88.84 c 1.91,2.11 1,5.65 0,8.16 -4.08,13.15 -17.82,6.49 -19.26,0.96 -0.46,-1.7 -0.32,-5.22 0,-6.96 0.6,-3.12 2.33,-6.12 3.67,-9 0,0 15.59,6.84 15.59,6.84 z M 185,194.15 c -7.13,2.4 -12.71,-2.35 -11.34,-7.15 1.18,-4.17 7.52,-9.37 11.34,-11.04 11.43,0.41 11.17,14.42 0,18.19 z M 78,165.45 c 2.21,0.56 4.14,1.87 5.57,3.66 3.99,5.01 -0.05,8.17 -3.41,11.89 -2.53,2.8 -4.83,6.3 -9.15,5.29 -4.95,-1.16 -11.64,-11.21 -8.95,-16.02 1.63,-2.91 6.92,-4.09 9.94,-4.82 2.11,-0.26 3.87,-0.57 6,0 z M 211.91,161 c -0.49,7.39 -4.81,15.54 -11.91,18.52 -5.47,2.29 -11.44,-3.74 -13.26,-8.52 -0.74,-1.94 -0.92,-5.94 -0.59,-7.99 0.82,-5.23 8.52,-10.47 12.85,-13.01 7.96,-2.13 13.45,2.88 12.91,11 z M 70.85,108.18 c 1.3,3.06 -2.36,9.15 -5.06,10.61 -1.65,0.88 -3.02,0.72 -4.79,0.59 -3.34,-0.24 -9.84,-0.4 -12.09,-3.08 -4.64,-5.51 2.39,-14.86 8.09,-16.34 3.91,0.46 12.23,4.43 13.85,8.22 z M 198,110 c -0.02,-3.72 -0.85,-8.18 3.15,-9.97 11.83,-5.32 17.28,2.47 23.85,3.27 7.18,0.88 24.43,-5.36 37,-2.3 -1.5,6.67 -6.08,7.34 -12,9.33 0,0 -19,5.78 -19,5.78 0,0 -8.99,1.63 -8.99,1.63 -3.7,1.46 -4.93,4.33 -8.1,6.1 -3.43,1.91 -9.03,2.12 -12.91,2.16 -1.44,-7.96 -2.96,-6.46 -3,-16 z m 11.95,-14.26 c -4.3,1.73 -12.06,3.54 -15.21,-0.89 -1,-1.4 -1.49,-3.11 -1.03,-4.81 1.08,-4.01 8.63,-8.73 12.29,-10.25 11.67,-1.04 11.47,12.92 3.95,15.95 z M 88.99,59.62 c 3.47,1.41 8.58,7.49 8.02,11.38 -0.42,2.96 -4.85,6.81 -6.92,9 -1.51,1.59 -3.89,4.74 -6.18,4.97 C 78.95,85.48 74.07,77.26 73.56,73 72.63,65.3 77.02,61.16 84,59.62 c 1.93,-0.3 3.04,-0.58 4.99,0 z M 39.91,52 c 5.48,5.82 16.82,22.05 22.09,25.4 4.06,2.58 13.2,1.17 18.39,8.77 2.7,3.97 -0.83,17.44 -5.6,18.99 -3.74,1.21 -11.95,-5.2 -14.66,-7.67 C 55.68,93.43 56.94,90.63 50.68,83 46.13,77.45 41.19,72 36,67.04 c 0,0 -8.71,-8.08 -8.71,-8.08 -4.16,-4.58 -9.04,-9.63 -2.18,-14.1 6.73,-1.71 10.43,2.5 14.8,7.14 z M 141,39.02 c -2.39,1.2 -5.07,4.08 -7,5.98 -9.07,-9.5 -20.45,-4.33 -26,6 -10.62,-4.38 -11.98,3.05 -18.17,5.67 -2.56,1.09 -5.24,0.08 -8.83,1.36 -8.64,3.1 -9.83,11 -10,18.97 -2.75,-0.03 -5.46,0.12 -7.99,-1.17 -3.23,-1.66 -6.34,-5.96 -8.59,-8.83 0,0 -14.59,-17.96 -14.59,-17.96 -4.4,-4.64 -11.56,-9.99 -17.6,-4.61 -5.79,5.15 -1.21,10.34 2.81,14.57 7.48,7.87 23.64,21.99 27.82,31 3.75,8.09 -2.84,9.67 -5.85,16 -1.2,2.52 -1,5.28 -0.8,8 0,0 0,21 0,21 1.12,3.72 3.49,5.75 4,9 0.59,3.84 -2.2,8.68 -0.68,15 1.31,5.41 5.22,8.41 7.99,13 2.82,4.67 3.36,8.63 7.66,12.79 4.11,3.96 9.09,4.24 10.01,8.26 0.65,2.83 -2.04,6.7 -3.55,8.95 0,0 -14.58,20 -14.58,20 -2.67,4.33 -5.73,9.25 -0.83,13.35 5.31,4.46 10.45,0.79 14.33,-3.44 0,0 13.15,-16.91 13.15,-16.91 2.28,-3.23 4.31,-7.22 8.33,-8.43 7.87,-2.37 8.1,2.14 13.06,5.73 3.01,2.18 8.21,3.51 11.9,3.15 2.47,-0.24 4.43,-1.17 7,-0.56 3.1,0.73 5.41,3.49 10,3.88 6.41,0.56 9.7,-3.84 14,-5.21 3.61,-1.15 9.13,-0.12 13,-0.78 7.11,-1.21 14.54,-8.9 16,-15.78 10.51,2.03 16.41,-7.7 23,-13.91 4.89,-4.61 8.68,-6.58 11.65,-13.09 3.21,-7.04 1.54,-10.94 3.52,-15 2.44,-4.99 12.36,-12.76 5.83,-24 0,0 0,4 0,4 -0.01,2.6 0.05,5.54 -0.89,8 -2.47,6.44 -6.98,8.29 -13.11,5.55 -1.56,-0.7 -3.3,-1.58 -4.4,-2.94 -2.39,-2.96 -1.15,-14.35 1.83,-16.68 2.22,-1.73 6.84,-2 9.57,-1.84 0,0 6,0.91 6,0.91 -0.9,-2.93 -1.63,-4.95 1.24,-7.15 2.29,-1.74 8.66,-2.37 11.76,-3.08 6.82,-1.59 14.54,-4.09 21,-6.78 3.04,-1.27 9.8,-4.07 9.8,-8 0,-6.08 -7.84,-5.82 -11.8,-5.26 0,0 -26,3.07 -26,3.07 -3.47,-0.35 -8.23,-2.1 -9.22,-5.84 -0.79,-2.98 1.62,-5.89 0.53,-9.96 -1.44,-5.36 -5.44,-6.09 -8.94,-9.37 0,0 -4.37,-4.63 -4.37,-4.63 0.88,8.92 -7.9,12.76 -14,18 0,0 -8.48,-9.17 -8.48,-9.17 0,0 4.48,-11.83 4.48,-11.83 -5.8,3.48 -7.15,13.2 -15,11.53 -3.54,-0.76 -5.79,-3.84 -7.87,-6.53 -1.59,-2.06 -6.64,-7.98 -6.78,-10.28 -0.11,-1.66 1.18,-4.26 1.92,-5.72 4.21,-8.23 10.46,-9.93 18.73,-5.95 7.02,3.38 7.93,7.86 8,14.95 0,0 8.27,-2.01 8.27,-2.01 0,0 10.73,5.01 10.73,5.01 -4.86,-10.01 -10.16,-5.11 -14.7,-8.02 -3.18,-2.04 -2.8,-7.28 -8.39,-10.98 -7.5,-4.96 -15.38,-1.78 -22.91,-3 -0.27,2.98 -0.63,5.17 -1.71,8 -0.66,1.71 -1.43,3.42 -2.71,4.76 -2,2.11 -3.77,2.54 -6.58,2.38 -12.41,-0.72 -13.97,-17.59 -4,-21.6 1.83,-0.5 4.09,-0.55 6,0 2.95,0.35 6.1,2.3 9,3.46 -2.96,-5.81 -11.1,-7.93 -17,-4.98 z M 282,0 c 0,0 0,242 0,242 0,0 -282,0 -282,0 C 0,242 0,0 0,0 0,0 282,0 282,0 Z" />
</svg>
