<?xml version="1.0" encoding="UTF-8" standalone="no"?>
<svg
              xmlns:dc="http://purl.org/dc/elements/1.1/"
              xmlns:cc="http://creativecommons.org/ns#"
              xmlns:rdf="http://www.w3.org/1999/02/22-rdf-syntax-ns#"
              xmlns:svg="http://www.w3.org/2000/svg"
              xmlns="http://www.w3.org/2000/svg"
              xmlns:sodipodi="http://sodipodi.sourceforge.net/DTD/sodipodi-0.dtd"
              xmlns:inkscape="http://www.inkscape.org/namespaces/inkscape"
              width="504"
              height="300"
              viewBox="0 0 377.99999 225"
              version="1.1"
              id="svg3"
              sodipodi:docname="arabidopsis.thaliana_root.cross.legend_shm.svg"
              inkscape:version="0.92.3 (unknown)">
             <metadata
                           id="metadata9">
                          <rdf:RDF>
                                       <cc:Work
                                                     rdf:about="">
                                                    <dc:format>image/svg+xml</dc:format>
                                                    <dc:type
                                                                  rdf:resource="http://purl.org/dc/dcmitype/StillImage" />
                                                    <dc:title />
                                       </cc:Work>
                          </rdf:RDF>
             </metadata>
             <defs
                           id="defs7" />
             <sodipodi:namedview
                           pagecolor="#ffffff"
                           bordercolor="#666666"
                           borderopacity="1"
                           objecttolerance="10"
                           gridtolerance="10"
                           guidetolerance="10"
                           inkscape:pageopacity="0"
                           inkscape:pageshadow="2"
                           inkscape:window-width="1855"
                           inkscape:window-height="1056"
                           id="namedview5"
                           showgrid="false"
                           inkscape:zoom="1.0226011"
                           inkscape:cx="8.8813667"
                           inkscape:cy="-37.498633"
                           inkscape:window-x="65"
                           inkscape:window-y="24"
                           inkscape:window-maximized="1"
                           inkscape:current-layer="container"
                           fit-margin-top="0"
                           fit-margin-left="0"
                           fit-margin-right="0"
                           fit-margin-bottom="0"
                           units="px" />
             <g
                           id="container"
                           style="stroke:#000000;stroke-width:0.97500002;stroke-miterlimit:4;stroke-dasharray:none;stroke-opacity:1"
                           transform="translate(-11.765597,7.7674104)">
                          <g
                                        id="root_pSCR">
                                       <path
                                                     inkscape:connector-curvature="0"
                                                     style="fill:#eebc36;fill-opacity:1;stroke:#000000;stroke-width:0.97500002;stroke-miterlimit:4;stroke-dasharray:none;stroke-opacity:1"
                                                     d="M 186.64706,60.494118 C 193.46706,56.404118 195.83706,53.074118 203.64706,56.294118 199.96706,65.884118 194.89706,64.724118 186.64706,68.714118 180.19706,71.844118 172.51706,76.994118 165.64706,78.294118 165.64706,78.294118 163.64706,74.294118 163.64706,74.294118 163.64706,74.294118 186.64706,60.494118 186.64706,60.494118 Z"
                                                     id="path995" />
                                       <path
                                                     inkscape:connector-curvature="0"
                                                     style="fill:#eebc36;fill-opacity:1;stroke:#000000;stroke-width:0.97500002;stroke-miterlimit:4;stroke-dasharray:none;stroke-opacity:1"
                                                     d="M 206.20706,59.284118 C 209.30706,57.154118 219.70706,59.534118 223.64706,60.014118 226.49706,60.354118 229.93706,59.994118 232.25706,61.894118 234.29706,63.564118 234.93706,65.904118 235.64706,68.294118 235.64706,68.294118 229.64706,70.614118 229.64706,70.614118 229.64706,70.614118 203.64706,63.294118 203.64706,63.294118 204.32706,61.684118 204.63706,60.364118 206.20706,59.284118 Z"
                                                     id="path993" />
                                       <path
                                                     inkscape:connector-curvature="0"
                                                     style="fill:#eebc36;fill-opacity:1;stroke:#000000;stroke-width:0.97500002;stroke-miterlimit:4;stroke-dasharray:none;stroke-opacity:1"
                                                     d="M 234.89706,81.294118 C 233.62706,78.734118 230.96706,74.424118 234.00706,72.084118 237.43706,69.454118 241.41706,74.114118 243.64706,76.294118 246.16706,78.774118 252.00706,83.874118 252.53706,87.294118 252.88706,89.604118 250.37706,95.594118 249.64706,98.294118 240.18706,96.254118 238.87706,89.374118 234.89706,81.294118 Z"
                                                     id="path991" />
                                       <path
                                                     inkscape:connector-curvature="0"
                                                     style="fill:#eebc36;fill-opacity:1;stroke:#000000;stroke-width:0.97500002;stroke-miterlimit:4;stroke-dasharray:none;stroke-opacity:1"
                                                     d="M 164.64706,90.294118 C 164.64706,90.294118 165.77706,101.29412 165.77706,101.29412 166.10706,103.48412 167.47706,108.09412 166.45706,109.96412 164.37706,113.73412 157.20706,109.63412 155.51706,107.07412 153.60706,103.63412 154.82706,89.614118 155.51706,85.294118 155.59706,83.454118 155.55706,80.424118 156.63706,78.944118 158.03706,77.024118 160.50706,76.704118 162.64706,76.294118 165.28706,82.544118 164.57706,83.804118 164.64706,90.294118 Z"
                                                     id="path989" />
                                       <path
                                                     inkscape:connector-curvature="0"
                                                     style="fill:#eebc36;fill-opacity:1;stroke:#000000;stroke-width:0.97500002;stroke-miterlimit:4;stroke-dasharray:none;stroke-opacity:1"
                                                     d="M 222.62706,122.29412 C 223.85706,117.85412 232.25706,109.66412 235.64706,106.29412 237.45706,104.50412 240.35706,101.39412 242.64706,100.35412 244.87706,99.444118 247.33706,100.01412 249.64706,100.35412 249.64706,100.35412 244.74706,118.65412 244.74706,118.65412 244.74706,118.65412 223.64706,129.29412 223.64706,129.29412 222.95706,126.99412 221.94706,124.71412 222.62706,122.29412 Z"
                                                     id="path987" />
                                       <path
                                                     inkscape:connector-curvature="0"
                                                     style="fill:#eebc36;fill-opacity:1;stroke:#000000;stroke-width:0.97500002;stroke-miterlimit:4;stroke-dasharray:none;stroke-opacity:1"
                                                     d="M 190.64706,125.29412 C 190.64706,125.29412 187.64706,134.29412 187.64706,134.29412 185.53706,134.27412 183.04706,134.42412 181.10706,133.47412 177.93706,131.91412 168.78706,119.68412 167.87706,116.29412 167.11706,113.47412 168.23706,112.47412 169.64706,110.29412 169.64706,110.29412 190.64706,125.29412 190.64706,125.29412 Z"
                                                     id="path985" />
                                       <path
                                                     inkscape:connector-curvature="0"
                                                     style="fill:#eebc36;fill-opacity:1;stroke:#000000;stroke-width:0.97500002;stroke-miterlimit:4;stroke-dasharray:none;stroke-opacity:1"
                                                     d="M 193.06706,128.27412 C 196.67706,125.66412 208.90706,126.26412 213.64706,126.29412 215.68706,126.30412 218.42706,126.15412 220.17706,127.31412 221.88706,128.45412 222.73706,130.54412 223.64706,132.29412 223.64706,132.29412 214.64706,139.68412 214.64706,139.68412 214.64706,139.68412 189.64706,135.29412 189.64706,135.29412 190.25706,132.74412 190.78706,129.92412 193.06706,128.27412 Z"
                                                     id="path983" />
                          </g>
                          <path
                                        id="path975"
                                        d="M 199.53706,6.7241178 C 202.23706,8.9241178 207.09706,20.614118 205.96706,23.914118 205.11706,26.424118 196.22706,31.284118 193.64706,31.704118 191.82706,31.994118 183.61706,31.304118 182.20706,30.274118 180.44706,28.974118 179.69706,25.334118 178.93706,23.294118 176.47706,16.664118 170.88706,9.4241178 185.64706,4.8241178 190.23706,4.0641178 195.69706,3.5841178 199.53706,6.7241178 Z"
                                        style="fill:none;fill-opacity:1;stroke:#000000;stroke-width:0.97500002;stroke-miterlimit:4;stroke-dasharray:none;stroke-opacity:1"
                                        inkscape:connector-curvature="0" />
                          <path
                                        id="path973"
                                        d="M 91.557057,14.314118 C 98.507057,21.584118 108.29706,36.914118 116.64706,42.174118 122.08706,45.604118 123.69706,43.504118 127.64706,44.194118 130.87706,44.764118 138.20706,49.884118 139.95706,52.594118 142.12706,55.974118 138.28706,71.584118 131.64706,72.464118 128.53706,72.874118 116.89706,64.924118 113.92706,62.744118 110.44706,60.194118 111.22706,57.774118 109.34706,54.294118 107.89706,51.614118 105.72706,49.494118 103.66706,47.294118 98.717057,41.984118 94.047057,36.364118 88.477057,31.664118 84.217057,28.084118 73.727057,20.224118 70.877057,16.204118 66.977057,10.714118 69.157057,8.4041178 74.647057,6.0841178 81.537057,5.3141178 86.997057,9.5341178 91.557057,14.314118 Z"
                                        style="fill:none;fill-opacity:1;stroke:#000000;stroke-width:0.97500002;stroke-miterlimit:4;stroke-dasharray:none;stroke-opacity:1"
                                        inkscape:connector-curvature="0" />
                          <path
                                        id="path971"
                                        d="M 264.86706,26.294118 C 264.75706,30.144118 262.33706,33.174118 260.33706,36.294118 258.85706,38.614118 256.85706,42.604118 254.31706,43.724118 253.04706,44.284118 251.02706,44.284118 249.64706,44.284118 242.45706,44.274118 241.08706,41.644118 236.85706,36.294118 235.04706,34.004118 230.88706,29.044118 230.41706,26.294118 229.61706,21.614118 234.82706,13.274118 238.68706,11.034118 248.96706,8.5041178 265.24706,13.654118 264.86706,26.294118 Z"
                                        style="fill:none;fill-opacity:1;stroke:#000000;stroke-width:0.97500002;stroke-miterlimit:4;stroke-dasharray:none;stroke-opacity:1"
                                        inkscape:connector-curvature="0" />
                          <path
                                        id="path943"
                                        d="M 278.64706,74.294118 C 278.65706,72.424118 278.49706,69.414118 279.66706,67.874118 281.33706,65.684118 292.76706,63.374118 295.64706,63.494118 302.91706,63.784118 301.39706,68.984118 313.64706,69.404118 313.64706,69.404118 345.64706,65.474118 345.64706,65.474118 351.71706,65.044118 360.20706,68.514118 351.58706,73.934118 348.39706,75.934118 333.04706,80.404118 328.64706,81.564118 328.64706,81.564118 309.64706,84.884118 309.64706,84.884118 301.34706,86.374118 304.26706,89.284118 299.43706,91.784118 297.51706,92.774118 287.33706,94.784118 284.64706,95.294118 280.06706,87.024118 278.58706,83.714118 278.64706,74.294118 Z"
                                        style="fill:none;fill-opacity:1;stroke:#000000;stroke-width:0.97500002;stroke-miterlimit:4;stroke-dasharray:none;stroke-opacity:1"
                                        inkscape:connector-curvature="0" />
                          <path
                                        id="path851"
                                        d="M 134.04706,131.98412 C 132.74706,134.70412 119.85706,138.40412 116.64706,138.74412 105.01706,139.96412 101.81706,124.77412 106.29706,116.51412 108.32706,112.77412 116.64706,110.83412 120.64706,109.86412 130.56706,109.76412 137.13706,125.55412 134.04706,131.98412 Z"
                                        style="fill:none;fill-opacity:1;stroke:#000000;stroke-width:0.97500002;stroke-miterlimit:4;stroke-dasharray:none;stroke-opacity:1"
                                        inkscape:connector-curvature="0" />
                          <g
                                        id="root_pWOL">
                                       <path
                                                     inkscape:connector-curvature="0"
                                                     style="fill:#a464e8;fill-opacity:1;stroke:#000000;stroke-width:0.97500002;stroke-miterlimit:4;stroke-dasharray:none;stroke-opacity:1"
                                                     d="M 217.64706,70.294118 C 217.64706,70.294118 216.64706,76.294118 216.64706,76.294118 216.64706,76.294118 198.64706,76.294118 198.64706,76.294118 198.64706,76.294118 195.64706,67.294118 195.64706,67.294118 204.37706,64.134118 209.21706,67.484118 217.64706,70.294118 Z"
                                                     id="path939" />
                                       <path
                                                     inkscape:connector-curvature="0"
                                                     style="fill:#a464e8;fill-opacity:1;stroke:#000000;stroke-width:0.97500002;stroke-miterlimit:4;stroke-dasharray:none;stroke-opacity:1"
                                                     d="M 193.64706,68.294118 C 193.64706,68.294118 195.64706,75.294118 195.64706,75.294118 195.64706,75.294118 183.64706,79.294118 183.64706,79.294118 183.64706,79.294118 181.64706,73.294118 181.64706,73.294118 181.64706,73.294118 193.64706,68.294118 193.64706,68.294118 Z"
                                                     id="path937" />
                                       <path
                                                     inkscape:connector-curvature="0"
                                                     style="fill:#a464e8;fill-opacity:1;stroke:#000000;stroke-width:0.97500002;stroke-miterlimit:4;stroke-dasharray:none;stroke-opacity:1"
                                                     d="M 227.30706,73.434118 C 231.02706,75.934118 233.93706,83.984118 234.64706,88.194118 232.87706,88.464118 231.42706,88.814118 229.68706,88.194118 226.65706,86.844118 220.79706,79.544118 220.40706,76.294118 219.80706,74.424118 220.26706,73.064118 220.40706,71.294118 222.85706,71.744118 225.40706,72.144118 227.30706,73.434118 Z"
                                                     id="path933" />
                                       <path
                                                     inkscape:connector-curvature="0"
                                                     style="fill:#a464e8;fill-opacity:1;stroke:#000000;stroke-width:0.97500002;stroke-miterlimit:4;stroke-dasharray:none;stroke-opacity:1"
                                                     d="M 180.64706,75.294118 C 182.11706,85.394118 174.39706,85.574118 166.64706,85.294118 167.76706,78.744118 174.71706,76.404118 180.64706,75.294118 Z"
                                                     id="path931" />
                                       <path
                                                     inkscape:connector-curvature="0"
                                                     style="fill:#a464e8;fill-opacity:1;stroke:#000000;stroke-width:0.97500002;stroke-miterlimit:4;stroke-dasharray:none;stroke-opacity:1"
                                                     d="M 198.64706,78.294118 C 198.64706,78.294118 194.64706,79.294118 194.64706,79.294118 194.64706,79.294118 198.64706,78.294118 198.64706,78.294118 Z"
                                                     id="path929" />
                                       <path
                                                     inkscape:connector-curvature="0"
                                                     style="fill:#a464e8;fill-opacity:1;stroke:#000000;stroke-width:0.97500002;stroke-miterlimit:4;stroke-dasharray:none;stroke-opacity:1"
                                                     d="M 206.64706,79.294118 C 206.64706,79.294118 206.64706,81.294118 206.64706,81.294118 206.64706,81.294118 200.64706,81.294118 200.64706,81.294118 200.64706,81.294118 200.64706,79.294118 200.64706,79.294118 200.64706,79.294118 206.64706,79.294118 206.64706,79.294118 Z"
                                                     id="path927" />
                                       <path
                                                     inkscape:connector-curvature="0"
                                                     style="fill:#a464e8;fill-opacity:1;stroke:#000000;stroke-width:0.97500002;stroke-miterlimit:4;stroke-dasharray:none;stroke-opacity:1"
                                                     d="M 213.64706,80.294118 C 213.64706,80.294118 208.64706,78.294118 208.64706,78.294118 208.64706,78.294118 213.64706,80.294118 213.64706,80.294118 Z"
                                                     id="path925" />
                                       <path
                                                     inkscape:connector-curvature="0"
                                                     style="fill:#a464e8;fill-opacity:1;stroke:#000000;stroke-width:0.97500002;stroke-miterlimit:4;stroke-dasharray:none;stroke-opacity:1"
                                                     d="M 219.64706,82.294118 C 219.64706,82.294118 215.64706,81.294118 215.64706,81.294118 215.64706,81.294118 216.64706,78.294118 216.64706,78.294118 216.64706,78.294118 219.64706,82.294118 219.64706,82.294118 Z"
                                                     id="path923" />
                                       <path
                                                     inkscape:connector-curvature="0"
                                                     style="fill:#a464e8;fill-opacity:1;stroke:#000000;stroke-width:0.97500002;stroke-miterlimit:4;stroke-dasharray:none;stroke-opacity:1"
                                                     d="M 194.64706,83.294118 C 194.64706,83.294118 190.64706,82.294118 190.64706,82.294118 190.64706,82.294118 191.64706,79.294118 191.64706,79.294118 191.64706,79.294118 194.64706,83.294118 194.64706,83.294118 Z"
                                                     id="path921" />
                                       <path
                                                     inkscape:connector-curvature="0"
                                                     style="fill:#a464e8;fill-opacity:1;stroke:#000000;stroke-width:0.97500002;stroke-miterlimit:4;stroke-dasharray:none;stroke-opacity:1"
                                                     d="M 184.64706,86.294118 C 184.64706,86.294118 183.64706,82.294118 183.64706,82.294118 183.64706,82.294118 187.64706,80.294118 187.64706,80.294118 188.67706,83.864118 187.70706,84.574118 184.64706,86.294118 Z"
                                                     id="path919" />
                                       <path
                                                     inkscape:connector-curvature="0"
                                                     style="fill:#a464e8;fill-opacity:1;stroke:#000000;stroke-width:0.97500002;stroke-miterlimit:4;stroke-dasharray:none;stroke-opacity:1"
                                                     d="M 199.64706,88.294118 C 196.71706,86.064118 196.85706,85.844118 197.64706,82.294118 200.57706,84.524118 200.43706,84.744118 199.64706,88.294118 Z"
                                                     id="path917" />
                                       <path
                                                     inkscape:connector-curvature="0"
                                                     style="fill:#a464e8;fill-opacity:1;stroke:#000000;stroke-width:0.97500002;stroke-miterlimit:4;stroke-dasharray:none;stroke-opacity:1"
                                                     d="M 209.64706,82.294118 C 209.64706,82.294118 209.64706,87.294118 209.64706,87.294118 207.11706,85.464118 207.39706,85.364118 207.64706,82.294118 207.64706,82.294118 209.64706,82.294118 209.64706,82.294118 Z"
                                                     id="path915" />
                                       <path
                                                     inkscape:connector-curvature="0"
                                                     style="fill:#a464e8;fill-opacity:1;stroke:#000000;stroke-width:0.97500002;stroke-miterlimit:4;stroke-dasharray:none;stroke-opacity:1"
                                                     d="M 216.64706,85.294118 C 216.64706,85.294118 211.64706,83.294118 211.64706,83.294118 214.71706,83.044118 214.81706,82.764118 216.64706,85.294118 Z"
                                                     id="path913" />
                                       <path
                                                     inkscape:connector-curvature="0"
                                                     style="fill:#a464e8;fill-opacity:1;stroke:#000000;stroke-width:0.97500002;stroke-miterlimit:4;stroke-dasharray:none;stroke-opacity:1"
                                                     d="M 182.64706,89.294118 C 182.64706,89.294118 178.64706,87.294118 178.64706,87.294118 178.64706,87.294118 178.64706,85.294118 178.64706,85.294118 178.64706,85.294118 180.64706,84.294118 180.64706,84.294118 180.64706,84.294118 182.64706,89.294118 182.64706,89.294118 Z"
                                                     id="path911" />
                                       <path
                                                     inkscape:connector-curvature="0"
                                                     style="fill:#a464e8;fill-opacity:1;stroke:#000000;stroke-width:0.97500002;stroke-miterlimit:4;stroke-dasharray:none;stroke-opacity:1"
                                                     d="M 205.64706,88.294118 C 202.97706,87.144118 203.23706,87.114118 203.64706,84.294118 203.64706,84.294118 205.64706,88.294118 205.64706,88.294118 Z"
                                                     id="path909" />
                                       <path
                                                     inkscape:connector-curvature="0"
                                                     style="fill:#a464e8;fill-opacity:1;stroke:#000000;stroke-width:0.97500002;stroke-miterlimit:4;stroke-dasharray:none;stroke-opacity:1"
                                                     d="M 222.64706,84.294118 C 222.64706,84.294118 224.64706,88.294118 224.64706,88.294118 224.64706,88.294118 218.64706,89.294118 218.64706,89.294118 218.64706,89.294118 222.64706,84.294118 222.64706,84.294118 Z"
                                                     id="path907" />
                                       <path
                                                     inkscape:connector-curvature="0"
                                                     style="fill:#a464e8;fill-opacity:1;stroke:#000000;stroke-width:0.97500002;stroke-miterlimit:4;stroke-dasharray:none;stroke-opacity:1"
                                                     d="M 193.64706,85.294118 C 193.64706,85.294118 190.64706,88.294118 190.64706,88.294118 190.64706,88.294118 193.64706,85.294118 193.64706,85.294118 Z"
                                                     id="path903" />
                                       <path
                                                     inkscape:connector-curvature="0"
                                                     style="fill:#a464e8;fill-opacity:1;stroke:#000000;stroke-width:0.97500002;stroke-miterlimit:4;stroke-dasharray:none;stroke-opacity:1"
                                                     d="M 172.62706,89.854118 C 176.31706,94.854118 170.20706,103.11412 167.94706,96.144118 167.94706,96.144118 167.36706,92.294118 167.36706,92.294118 167.36706,92.294118 166.64706,87.294118 166.64706,87.294118 168.66706,87.734118 171.29706,88.054118 172.62706,89.854118 Z"
                                                     id="path901" />
                                       <path
                                                     inkscape:connector-curvature="0"
                                                     style="fill:#a464e8;fill-opacity:1;stroke:#000000;stroke-width:0.97500002;stroke-miterlimit:4;stroke-dasharray:none;stroke-opacity:1"
                                                     d="M 177.64706,88.294118 C 178.04706,91.554118 178.29706,92.204118 175.64706,94.294118 175.64706,94.294118 175.64706,88.294118 175.64706,88.294118 175.64706,88.294118 177.64706,88.294118 177.64706,88.294118 Z"
                                                     id="path897" />
                                       <path
                                                     inkscape:connector-curvature="0"
                                                     style="fill:#a464e8;fill-opacity:1;stroke:#000000;stroke-width:0.97500002;stroke-miterlimit:4;stroke-dasharray:none;stroke-opacity:1"
                                                     d="M 188.64706,89.294118 C 188.64706,89.294118 184.64706,89.294118 184.64706,89.294118 184.64706,89.294118 188.64706,89.294118 188.64706,89.294118 Z"
                                                     id="path895" />
                                       <path
                                                     inkscape:connector-curvature="0"
                                                     style="fill:#a464e8;fill-opacity:1;stroke:#000000;stroke-width:0.97500002;stroke-miterlimit:4;stroke-dasharray:none;stroke-opacity:1"
                                                     d="M 199.64706,93.294118 C 199.64706,93.294118 193.64706,89.294118 193.64706,89.294118 193.64706,89.294118 194.64706,88.294118 194.64706,88.294118 194.64706,88.294118 199.64706,93.294118 199.64706,93.294118 Z"
                                                     id="path893" />
                                       <path
                                                     inkscape:connector-curvature="0"
                                                     style="fill:#a464e8;fill-opacity:1;stroke:#000000;stroke-width:0.97500002;stroke-miterlimit:4;stroke-dasharray:none;stroke-opacity:1"
                                                     d="M 207.96706,93.344118 C 208.05706,91.654118 208.48706,90.554118 209.95706,89.614118 216.21706,85.594118 220.02706,96.194118 213.58706,98.134118 212.34706,98.324118 209.97706,98.274118 208.64706,98.134118 208.64706,98.134118 207.96706,93.344118 207.96706,93.344118 Z"
                                                     id="path891" />
                                       <path
                                                     inkscape:connector-curvature="0"
                                                     style="fill:#a464e8;fill-opacity:1;stroke:#000000;stroke-width:0.97500002;stroke-miterlimit:4;stroke-dasharray:none;stroke-opacity:1"
                                                     d="M 236.64706,89.294118 C 241.99706,98.764118 239.51706,100.94412 230.64706,107.29412 226.26706,100.39412 229.54706,92.644118 236.64706,89.294118 Z"
                                                     id="path889" />
                                       <path
                                                     inkscape:connector-curvature="0"
                                                     style="fill:#a464e8;fill-opacity:1;stroke:#000000;stroke-width:0.97500002;stroke-miterlimit:4;stroke-dasharray:none;stroke-opacity:1"
                                                     d="M 203.64706,90.294118 C 203.64706,90.294118 204.64706,93.294118 204.64706,93.294118 204.64706,93.294118 201.64706,90.294118 201.64706,90.294118 201.64706,90.294118 203.64706,90.294118 203.64706,90.294118 Z"
                                                     id="path887" />
                                       <path
                                                     inkscape:connector-curvature="0"
                                                     style="fill:#a464e8;fill-opacity:1;stroke:#000000;stroke-width:0.97500002;stroke-miterlimit:4;stroke-dasharray:none;stroke-opacity:1"
                                                     d="M 224.64706,97.294118 C 224.64706,97.294118 224.64706,90.294118 224.64706,90.294118 229.31706,92.034118 228.25706,94.994118 224.64706,97.294118 Z"
                                                     id="path885" />
                                       <path
                                                     inkscape:connector-curvature="0"
                                                     style="fill:#a464e8;fill-opacity:1;stroke:#000000;stroke-width:0.97500002;stroke-miterlimit:4;stroke-dasharray:none;stroke-opacity:1"
                                                     d="M 191.50706,101.96412 C 186.11706,103.30412 183.36706,97.534118 186.24706,93.324118 194.19706,90.274118 197.01706,100.58412 191.50706,101.96412 Z"
                                                     id="path883" />
                                       <path
                                                     inkscape:connector-curvature="0"
                                                     style="fill:#a464e8;fill-opacity:1;stroke:#000000;stroke-width:0.97500002;stroke-miterlimit:4;stroke-dasharray:none;stroke-opacity:1"
                                                     d="M 182.64706,97.294118 C 182.64706,97.294118 176.64706,100.29412 176.64706,100.29412 178.04706,96.834118 179.10706,97.034118 182.64706,97.294118 Z"
                                                     id="path879" />
                                       <path
                                                     inkscape:connector-curvature="0"
                                                     style="fill:#a464e8;fill-opacity:1;stroke:#000000;stroke-width:0.97500002;stroke-miterlimit:4;stroke-dasharray:none;stroke-opacity:1"
                                                     d="M 200.64706,98.294118 C 200.64706,98.294118 196.64706,96.294118 196.64706,96.294118 196.64706,96.294118 200.64706,98.294118 200.64706,98.294118 Z"
                                                     id="path877" />
                                       <path
                                                     inkscape:connector-curvature="0"
                                                     style="fill:#a464e8;fill-opacity:1;stroke:#000000;stroke-width:0.97500002;stroke-miterlimit:4;stroke-dasharray:none;stroke-opacity:1"
                                                     d="M 225.64706,99.294118 C 225.64706,99.294118 222.64706,103.29412 222.64706,103.29412 222.64706,103.29412 219.64706,98.294118 219.64706,98.294118 219.64706,98.294118 220.64706,97.294118 220.64706,97.294118 220.64706,97.294118 225.64706,99.294118 225.64706,99.294118 Z"
                                                     id="path875" />
                                       <path
                                                     inkscape:connector-curvature="0"
                                                     style="fill:#a464e8;fill-opacity:1;stroke:#000000;stroke-width:0.97500002;stroke-miterlimit:4;stroke-dasharray:none;stroke-opacity:1"
                                                     d="M 206.64706,100.29412 C 206.64706,100.29412 202.64706,104.29412 202.64706,104.29412 202.64706,104.29412 202.64706,100.29412 202.64706,100.29412 202.64706,100.29412 206.64706,100.29412 206.64706,100.29412 Z"
                                                     id="path873" />
                                       <path
                                                     inkscape:connector-curvature="0"
                                                     style="fill:#a464e8;fill-opacity:1;stroke:#000000;stroke-width:0.97500002;stroke-miterlimit:4;stroke-dasharray:none;stroke-opacity:1"
                                                     d="M 220.64706,105.29412 C 220.64706,105.29412 215.64706,107.29412 215.64706,107.29412 215.64706,107.29412 214.64706,100.29412 214.64706,100.29412 218.51706,101.46412 218.79706,101.69412 220.64706,105.29412 Z"
                                                     id="path871" />
                                       <path
                                                     inkscape:connector-curvature="0"
                                                     style="fill:#a464e8;fill-opacity:1;stroke:#000000;stroke-width:0.97500002;stroke-miterlimit:4;stroke-dasharray:none;stroke-opacity:1"
                                                     d="M 175.48706,109.12412 C 172.49706,110.42412 167.85706,106.66412 170.28706,102.32412 177.13706,99.614118 179.65706,107.31412 175.48706,109.12412 Z"
                                                     id="path869" />
                                       <path
                                                     inkscape:connector-curvature="0"
                                                     style="fill:#a464e8;fill-opacity:1;stroke:#000000;stroke-width:0.97500002;stroke-miterlimit:4;stroke-dasharray:none;stroke-opacity:1"
                                                     d="M 183.64706,101.29412 C 183.64706,101.29412 181.64706,107.29412 181.64706,107.29412 181.64706,107.29412 179.64706,102.29412 179.64706,102.29412 179.64706,102.29412 183.64706,101.29412 183.64706,101.29412 Z"
                                                     id="path867" />
                                       <path
                                                     inkscape:connector-curvature="0"
                                                     style="fill:#a464e8;fill-opacity:1;stroke:#000000;stroke-width:0.97500002;stroke-miterlimit:4;stroke-dasharray:none;stroke-opacity:1"
                                                     d="M 197.64706,107.29412 C 197.64706,107.29412 195.64706,103.29412 195.64706,103.29412 195.64706,103.29412 196.64706,103.29412 196.64706,103.29412 196.64706,103.29412 198.64706,101.29412 198.64706,101.29412 200.34706,104.42412 199.98706,104.74412 197.64706,107.29412 Z"
                                                     id="path865" />
                                       <path
                                                     inkscape:connector-curvature="0"
                                                     style="fill:#a464e8;fill-opacity:1;stroke:#000000;stroke-width:0.97500002;stroke-miterlimit:4;stroke-dasharray:none;stroke-opacity:1"
                                                     d="M 212.64706,101.29412 C 212.64706,101.29412 208.64706,106.29412 208.64706,106.29412 208.64706,106.29412 208.64706,101.29412 208.64706,101.29412 208.64706,101.29412 212.64706,101.29412 212.64706,101.29412 Z"
                                                     id="path863" />
                                       <path
                                                     inkscape:connector-curvature="0"
                                                     style="fill:#a464e8;fill-opacity:1;stroke:#000000;stroke-width:0.97500002;stroke-miterlimit:4;stroke-dasharray:none;stroke-opacity:1"
                                                     d="M 229.64706,109.29412 C 229.64706,109.29412 222.64706,118.29412 222.64706,118.29412 222.64706,118.29412 220.64706,118.29412 220.64706,118.29412 220.64706,118.29412 215.64706,111.29412 215.64706,111.29412 215.64706,111.29412 224.64706,104.29412 224.64706,104.29412 224.64706,104.29412 229.64706,109.29412 229.64706,109.29412 Z"
                                                     id="path861" />
                                       <path
                                                     inkscape:connector-curvature="0"
                                                     style="fill:#a464e8;fill-opacity:1;stroke:#000000;stroke-width:0.97500002;stroke-miterlimit:4;stroke-dasharray:none;stroke-opacity:1"
                                                     d="M 189.64706,105.29412 C 187.84706,108.75412 187.59706,109.25412 183.64706,109.29412 185.72706,106.04412 185.83706,105.94412 189.64706,105.29412 Z"
                                                     id="path859" />
                                       <path
                                                     inkscape:connector-curvature="0"
                                                     style="fill:#a464e8;fill-opacity:1;stroke:#000000;stroke-width:0.97500002;stroke-miterlimit:4;stroke-dasharray:none;stroke-opacity:1"
                                                     d="M 194.64706,109.29412 C 194.64706,109.29412 191.64706,105.29412 191.64706,105.29412 191.64706,105.29412 194.64706,109.29412 194.64706,109.29412 Z"
                                                     id="path857" />
                                       <path
                                                     inkscape:connector-curvature="0"
                                                     style="fill:#a464e8;fill-opacity:1;stroke:#000000;stroke-width:0.97500002;stroke-miterlimit:4;stroke-dasharray:none;stroke-opacity:1"
                                                     d="M 206.64706,109.29412 C 206.64706,109.29412 200.64706,109.29412 200.64706,109.29412 200.64706,109.29412 201.64706,106.29412 201.64706,106.29412 201.64706,106.29412 206.64706,109.29412 206.64706,109.29412 Z"
                                                     id="path855" />
                                       <path
                                                     inkscape:connector-curvature="0"
                                                     style="fill:#a464e8;fill-opacity:1;stroke:#000000;stroke-width:0.97500002;stroke-miterlimit:4;stroke-dasharray:none;stroke-opacity:1"
                                                     d="M 212.64706,107.29412 C 212.64706,107.29412 213.64706,110.29412 213.64706,110.29412 213.64706,110.29412 208.64706,110.29412 208.64706,110.29412 208.64706,110.29412 208.64706,108.29412 208.64706,108.29412 208.64706,108.29412 212.64706,107.29412 212.64706,107.29412 Z"
                                                     id="path853" />
                                       <path
                                                     inkscape:connector-curvature="0"
                                                     style="fill:#a464e8;fill-opacity:1;stroke:#000000;stroke-width:0.97500002;stroke-miterlimit:4;stroke-dasharray:none;stroke-opacity:1"
                                                     d="M 179.64706,110.24412 C 182.31706,110.06412 192.78706,114.66412 184.64706,119.29412 184.64706,119.29412 176.64706,111.29412 176.64706,111.29412 177.51706,110.93412 177.94706,110.35412 179.64706,110.24412 Z"
                                                     id="path847" />
                                       <path
                                                     inkscape:connector-curvature="0"
                                                     style="fill:#a464e8;fill-opacity:1;stroke:#000000;stroke-width:0.97500002;stroke-miterlimit:4;stroke-dasharray:none;stroke-opacity:1"
                                                     d="M 191.64706,113.29412 C 191.64706,113.29412 189.64706,109.29412 189.64706,109.29412 189.64706,109.29412 191.64706,113.29412 191.64706,113.29412 Z"
                                                     id="path845" />
                                       <path
                                                     inkscape:connector-curvature="0"
                                                     style="fill:#a464e8;fill-opacity:1;stroke:#000000;stroke-width:0.97500002;stroke-miterlimit:4;stroke-dasharray:none;stroke-opacity:1"
                                                     d="M 200.64706,113.29412 C 200.64706,113.29412 193.64706,114.29412 193.64706,114.29412 193.64706,114.29412 196.64706,109.29412 196.64706,109.29412 196.64706,109.29412 200.64706,113.29412 200.64706,113.29412 Z"
                                                     id="path843" />
                                       <path
                                                     inkscape:connector-curvature="0"
                                                     style="fill:#a464e8;fill-opacity:1;stroke:#000000;stroke-width:0.97500002;stroke-miterlimit:4;stroke-dasharray:none;stroke-opacity:1"
                                                     d="M 208.64706,113.29412 C 208.64706,113.29412 202.64706,115.29412 202.64706,115.29412 204.53706,112.57412 205.47706,112.28412 208.64706,113.29412 Z"
                                                     id="path841" />
                                       <path
                                                     inkscape:connector-curvature="0"
                                                     style="fill:#a464e8;fill-opacity:1;stroke:#000000;stroke-width:0.97500002;stroke-miterlimit:4;stroke-dasharray:none;stroke-opacity:1"
                                                     d="M 215.35706,114.99412 C 217.38706,116.24412 219.32706,119.33412 220.64706,121.29412 215.70706,124.60412 212.41706,124.18412 206.64706,124.29412 207.19706,120.25412 209.04706,111.11412 215.35706,114.99412 Z"
                                                     id="path839" />
                                       <path
                                                     inkscape:connector-curvature="0"
                                                     style="fill:#a464e8;fill-opacity:1;stroke:#000000;stroke-width:0.97500002;stroke-miterlimit:4;stroke-dasharray:none;stroke-opacity:1"
                                                     d="M 204.64706,117.29412 C 204.58706,118.98412 204.73706,121.28412 203.62706,122.69412 202.02706,124.72412 194.93706,125.08412 192.64706,124.27412 190.99706,123.69412 189.10706,122.27412 187.64706,121.29412 193.34706,113.97412 196.45706,117.11412 204.64706,117.29412 Z"
                                                     id="path837" />
                          </g>
                          <path
                                        id="path835"
                                        d="M 266.66706,132.33412 C 268.05706,129.68412 280.08706,119.45412 282.92706,118.99412 285.20706,118.62412 288.62706,120.51412 290.64706,121.54412 292.58706,122.53412 295.10706,123.59412 296.07706,125.68412 300.02706,134.17412 289.64706,154.04412 278.64706,153.60412 275.16706,153.46412 267.99706,146.62412 264.64706,144.29412 264.98706,141.74412 265.70706,134.15412 266.66706,132.33412 Z"
                                        style="fill:none;fill-opacity:1;stroke:#000000;stroke-width:0.97500002;stroke-miterlimit:4;stroke-dasharray:none;stroke-opacity:1"
                                        inkscape:connector-curvature="0" />
                          <g
                                        id="root_pCO2">
                                       <path
                                                     inkscape:connector-curvature="0"
                                                     style="fill:#3760d8;fill-opacity:1;stroke:#000000;stroke-width:0.97500002;stroke-miterlimit:4;stroke-dasharray:none;stroke-opacity:1"
                                                     d="M 217.64706,26.954118 C 228.47706,28.274118 228.28706,28.524118 235.24706,37.294118 236.68706,39.104118 239.23706,42.084118 239.80706,44.294118 241.00706,48.934118 234.00706,57.034118 229.64706,57.944118 227.66706,58.354118 223.77706,57.584118 221.64706,57.294118 215.87706,56.504118 203.28706,55.764118 199.36706,51.574118 197.58706,49.664118 197.17706,46.774118 196.72706,44.294118 196.39706,42.474118 195.38706,37.914118 195.70706,36.334118 196.68706,31.474118 205.32706,27.904118 209.64706,26.954118 213.88706,26.354118 213.66706,26.714118 217.64706,26.954118 Z"
                                                     id="path959" />
                                       <path
                                                     inkscape:connector-curvature="0"
                                                     style="fill:#3760d8;fill-opacity:1;stroke:#000000;stroke-width:0.97500002;stroke-miterlimit:4;stroke-dasharray:none;stroke-opacity:1"
                                                     d="M 167.64706,69.524118 C 164.86706,71.044118 158.48706,75.114118 155.64706,75.164118 153.49706,75.204118 151.52706,73.984118 149.64706,73.094118 147.62706,72.144118 142.81706,70.534118 141.70706,68.784118 138.46706,63.704118 146.34706,51.854118 149.66706,48.294118 152.74706,45.014118 157.83706,39.504118 161.64706,37.374118 166.23706,34.814118 168.99706,35.674118 173.64706,35.114118 185.11706,33.724118 178.35706,32.404118 192.64706,34.294118 192.64706,34.294118 196.64706,52.294118 196.64706,52.294118 196.64706,52.294118 167.64706,69.524118 167.64706,69.524118 Z"
                                                     id="path951" />
                                       <path
                                                     inkscape:connector-curvature="0"
                                                     style="fill:#3760d8;fill-opacity:1;stroke:#000000;stroke-width:0.97500002;stroke-miterlimit:4;stroke-dasharray:none;stroke-opacity:1"
                                                     d="M 239.97706,69.294118 C 237.93706,66.814118 235.10706,62.654118 235.40706,59.294118 235.69706,56.014118 241.66706,48.114118 244.73706,46.754118 246.61706,46.144118 249.66706,46.284118 251.64706,46.754118 261.22706,48.214118 272.82706,56.934118 275.94706,66.294118 276.78706,68.804118 276.68706,72.614118 276.64706,75.294118 276.60706,77.244118 276.74706,79.924118 275.04706,81.274118 273.67706,82.364118 270.41706,82.344118 268.64706,82.574118 268.64706,82.574118 254.64706,85.294118 254.64706,85.294118 254.64706,85.294118 239.97706,69.294118 239.97706,69.294118 Z"
                                                     id="path945" />
                                       <path
                                                     inkscape:connector-curvature="0"
                                                     style="fill:#3760d8;fill-opacity:1;stroke:#000000;stroke-width:0.97500002;stroke-miterlimit:4;stroke-dasharray:none;stroke-opacity:1"
                                                     d="M 134.68706,115.48412 C 132.80706,115.06412 131.48706,113.61412 130.26706,112.23412 125.67706,107.06412 125.65706,104.82412 125.64706,98.294118 125.62706,88.654118 126.87706,79.444118 135.73706,73.454118 139.90706,70.634118 148.97706,73.544118 151.62706,77.684118 152.86706,79.634118 152.64706,83.024118 152.64706,85.294118 152.64706,85.294118 152.64706,98.294118 152.64706,98.294118 152.64706,98.294118 151.64706,109.29412 151.64706,109.29412 146.14706,110.86412 137.98706,116.23412 134.68706,115.48412 Z"
                                                     id="path935" />
                                       <path
                                                     inkscape:connector-curvature="0"
                                                     style="fill:#3760d8;fill-opacity:1;stroke:#000000;stroke-width:0.97500002;stroke-miterlimit:4;stroke-dasharray:none;stroke-opacity:1"
                                                     d="M 251.73706,100.29412 C 253.99706,88.664118 256.43706,86.874118 267.64706,85.044118 270.76706,84.544118 274.43706,83.634118 277.09706,85.894118 282.74706,90.694118 281.68706,102.54412 281.64706,109.29412 281.62706,111.60412 281.75706,114.10412 280.62706,116.20412 279.40706,118.46412 276.62706,120.48412 274.64706,122.09412 270.47706,125.49412 266.32706,130.89412 260.64706,128.13412 260.64706,128.13412 247.64706,119.29412 247.64706,119.29412 247.64706,119.29412 251.73706,100.29412 251.73706,100.29412 Z"
                                                     id="path905" />
                                       <path
                                                     inkscape:connector-curvature="0"
                                                     style="fill:#3760d8;fill-opacity:1;stroke:#000000;stroke-width:0.97500002;stroke-miterlimit:4;stroke-dasharray:none;stroke-opacity:1"
                                                     d="M 172.54706,127.29412 C 174.28706,129.61412 177.97706,133.17412 177.15706,136.25412 176.54706,138.56412 172.45706,141.71412 170.64706,143.37412 168.72706,145.13412 166.19706,147.90412 163.64706,148.59412 160.96706,149.31412 158.08706,147.70412 155.64706,146.74412 148.69706,143.98412 142.42706,139.88412 138.77706,133.01412 137.47706,130.55412 136.52706,122.76412 135.64706,119.29412 135.64706,119.29412 153.64706,109.29412 153.64706,109.29412 167.30706,116.52412 163.79706,115.66412 172.54706,127.29412 Z"
                                                     id="path849" />
                                       <path
                                                     inkscape:connector-curvature="0"
                                                     style="fill:#3760d8;fill-opacity:1;stroke:#000000;stroke-width:0.97500002;stroke-miterlimit:4;stroke-dasharray:none;stroke-opacity:1"
                                                     d="M 261.21706,145.29412 C 259.69706,148.56412 257.28706,150.42412 254.64706,152.71412 243.78706,162.13412 243.61706,160.32412 229.64706,160.29412 227.47706,160.29412 223.96706,160.52412 222.14706,159.27412 218.50706,156.77412 216.00706,145.38412 217.93706,141.46412 219.06706,139.17412 225.77706,131.51412 227.81706,129.94412 229.73706,128.45412 242.42706,122.36412 244.64706,122.06412 248.78706,121.51412 259.55706,129.83412 263.64706,132.29412 262.64706,136.40412 262.72706,142.05412 261.21706,145.29412 Z"
                                                     id="path833" />
                                       <path
                                                     inkscape:connector-curvature="0"
                                                     style="fill:#3760d8;fill-opacity:1;stroke:#000000;stroke-width:0.97500002;stroke-miterlimit:4;stroke-dasharray:none;stroke-opacity:1"
                                                     d="M 182.64706,136.64412 C 186.56706,135.83412 201.28706,139.64412 205.64706,140.95412 207.28706,141.44412 211.83706,142.37412 212.91706,143.27412 214.70706,144.76412 215.38706,149.92412 216.08706,152.29412 216.79706,154.69412 218.70706,158.71412 217.94706,161.08412 216.60706,165.28412 208.51706,167.95412 204.64706,168.92412 193.81706,171.63412 192.49706,170.29412 182.64706,166.61412 180.04706,165.64412 176.07706,164.30412 173.96706,162.59412 171.55706,160.64412 167.42706,154.13412 165.64706,151.29412 169.14706,147.56412 178.00706,137.60412 182.64706,136.64412 Z"
                                                     id="path829" />
                          </g>
                          <path
                                        id="path827"
                                        d="M 124.64706,209.10412 C 120.95706,212.02412 112.67706,216.26412 110.28706,209.10412 108.99706,205.43412 112.59706,200.26412 114.68706,197.29412 114.68706,197.29412 134.84706,173.29412 134.84706,173.29412 138.66706,166.27412 133.42706,164.94412 138.06706,158.29412 140.42706,154.90412 146.25706,147.29412 150.64706,147.50412 157.34706,147.83412 170.21706,156.03412 170.33706,163.29412 170.36706,165.18412 163.87706,176.22412 162.23706,177.55412 159.15706,180.04412 150.67706,179.29412 146.64706,179.29412 144.65706,186.62412 130.61706,204.01412 124.64706,209.10412 Z"
                                        style="fill:none;fill-opacity:1;stroke:#000000;stroke-width:0.97500002;stroke-miterlimit:4;stroke-dasharray:none;stroke-opacity:1"
                                        inkscape:connector-curvature="0" />
                          <path
                                        id="path823"
                                        d="M 222.64706,163.04412 C 222.64706,163.04412 231.64706,163.04412 231.64706,163.04412 231.64706,163.04412 246.64706,161.29412 246.64706,161.29412 248.45706,165.05412 252.12706,170.05412 251.09706,174.29412 248.11706,186.55412 226.59706,188.40412 220.91706,184.98412 217.47706,182.90412 213.71706,172.26412 212.64706,168.29412 212.64706,168.29412 222.64706,163.04412 222.64706,163.04412 Z"
                                        style="fill:none;fill-opacity:1;stroke:#000000;stroke-width:0.97500002;stroke-miterlimit:4;stroke-dasharray:none;stroke-opacity:1"
                                        inkscape:connector-curvature="0" />
                          <g
                                        id="root_pGL2">
                                       <path
                                                     inkscape:connector-curvature="0"
                                                     style="fill:#d56036;fill-opacity:1;stroke:#000000;stroke-width:0.97500002;stroke-miterlimit:4;stroke-dasharray:none;stroke-opacity:1"
                                                     d="M 210.94706,23.714118 C 208.48706,22.464118 207.73706,18.764118 206.98706,16.294118 206.34706,14.144118 205.53706,11.554118 205.99706,9.2941178 208.56706,-3.2558822 235.02706,-2.6758822 231.11706,15.294118 230.42706,18.454118 228.00706,23.134118 226.64706,26.294118 226.64706,26.294118 210.94706,23.714118 210.94706,23.714118 Z"
                                                     id="path977" />
                                       <path
                                                     inkscape:connector-curvature="0"
                                                     style="fill:#d56036;fill-opacity:1;stroke:#000000;stroke-width:0.97500002;stroke-miterlimit:4;stroke-dasharray:none;stroke-opacity:1"
                                                     d="M 156.06706,20.314118 C 156.97706,14.434118 165.74706,11.824118 171.46706,16.014118 176.28706,19.554118 177.85706,26.714118 178.64706,32.294118 178.64706,32.294118 161.64706,34.294118 161.64706,34.294118 160.03706,30.684118 155.50706,23.914118 156.06706,20.314118 Z"
                                                     id="path969" />
                                       <path
                                                     inkscape:connector-curvature="0"
                                                     style="fill:#d56036;fill-opacity:1;stroke:#000000;stroke-width:0.97500002;stroke-miterlimit:4;stroke-dasharray:none;stroke-opacity:1"
                                                     d="M 134.77706,45.254118 C 132.81706,43.104118 131.54706,41.184118 130.99706,38.294118 128.52706,25.384118 143.29706,19.104118 150.60706,22.764118 154.02706,24.474118 160.32706,31.964118 158.51706,36.014118 158.51706,36.014118 143.64706,52.294118 143.64706,52.294118 140.43706,50.254118 137.35706,48.084118 134.77706,45.254118 Z"
                                                     id="path967" />
                                       <path
                                                     inkscape:connector-curvature="0"
                                                     style="fill:#d56036;fill-opacity:1;stroke:#000000;stroke-width:0.97500002;stroke-miterlimit:4;stroke-dasharray:none;stroke-opacity:1"
                                                     d="M 262.69706,36.294118 C 263.92706,34.354118 266.34706,30.214118 268.02706,28.894118 274.73706,23.604118 288.48706,30.044118 287.14706,40.294118 286.58706,44.664118 281.07706,47.494118 277.64706,49.614118 274.92706,51.294118 272.00706,53.324118 268.64706,52.464118 268.64706,52.464118 257.64706,46.294118 257.64706,46.294118 258.82706,41.904118 260.30706,40.054118 262.69706,36.294118 Z"
                                                     id="path957" />
                                       <path
                                                     inkscape:connector-curvature="0"
                                                     style="fill:#d56036;fill-opacity:1;stroke:#000000;stroke-width:0.97500002;stroke-miterlimit:4;stroke-dasharray:none;stroke-opacity:1"
                                                     d="M 282.64706,48.514118 C 284.89706,46.894118 287.94706,43.774118 290.64706,43.414118 292.27706,43.204118 294.22706,43.944118 295.62706,44.714118 300.73706,47.514118 301.67706,52.144118 299.28706,57.244118 297.01706,62.064118 294.09706,61.014118 289.64706,61.964118 281.14706,63.784118 277.29706,67.424118 272.64706,55.294118 272.64706,55.294118 282.64706,48.514118 282.64706,48.514118 Z"
                                                     id="path947" />
                                       <path
                                                     inkscape:connector-curvature="0"
                                                     style="fill:#d56036;fill-opacity:1;stroke:#000000;stroke-width:0.97500002;stroke-miterlimit:4;stroke-dasharray:none;stroke-opacity:1"
                                                     d="M 122.25706,87.274118 C 120.05706,88.594118 117.01706,87.744118 114.64706,87.274118 109.38706,86.304118 101.67706,87.444118 100.08706,81.274118 98.097057,73.554118 107.74706,62.064118 117.64706,67.354118 117.64706,67.354118 129.64706,75.294118 129.64706,75.294118 128.36706,77.954118 124.55706,85.864118 122.25706,87.274118 Z"
                                                     id="path941" />
                                       <path
                                                     inkscape:connector-curvature="0"
                                                     style="fill:#d56036;fill-opacity:1;stroke:#000000;stroke-width:0.97500002;stroke-miterlimit:4;stroke-dasharray:none;stroke-opacity:1"
                                                     d="M 121.62706,91.884118 C 122.80706,93.414118 122.59706,96.424118 122.73706,98.294118 122.91706,100.75412 124.05706,104.46412 122.03706,106.31412 119.92706,108.24412 109.33706,111.33412 106.65706,110.18412 99.627057,107.14412 97.047057,94.824118 102.07706,89.314118 105.56706,87.954118 119.20706,88.774118 121.62706,91.884118 Z"
                                                     id="path899" />
                                       <path
                                                     inkscape:connector-curvature="0"
                                                     style="fill:#d56036;fill-opacity:1;stroke:#000000;stroke-width:0.97500002;stroke-miterlimit:4;stroke-dasharray:none;stroke-opacity:1"
                                                     d="M 300.55706,95.134118 C 308.31706,96.474118 309.51706,114.84412 300.55706,120.68412 295.92706,123.70412 288.25706,118.28412 283.64706,116.29412 283.64706,116.29412 284.64706,97.294118 284.64706,97.294118 288.87706,96.934118 297.29706,94.574118 300.55706,95.134118 Z"
                                                     id="path881" />
                                       <path
                                                     inkscape:connector-curvature="0"
                                                     style="fill:#d56036;fill-opacity:1;stroke:#000000;stroke-width:0.97500002;stroke-miterlimit:4;stroke-dasharray:none;stroke-opacity:1"
                                                     d="M 133.64706,136.03412 C 138.42706,135.36412 145.39706,141.26412 144.49706,146.29412 144.06706,148.69412 141.24706,151.52412 139.64706,153.29412 137.97706,155.12412 134.75706,159.14412 132.55706,159.97412 127.22706,161.98412 120.60706,155.72412 118.61706,151.29412 117.12706,147.99412 116.81706,144.84412 116.64706,141.29412 116.64706,141.29412 133.64706,136.03412 133.64706,136.03412 Z"
                                                     id="path831" />
                                       <path
                                                     inkscape:connector-curvature="0"
                                                     style="fill:#d56036;fill-opacity:1;stroke:#000000;stroke-width:0.97500002;stroke-miterlimit:4;stroke-dasharray:none;stroke-opacity:1"
                                                     d="M 274.00706,155.38412 C 275.89706,161.11412 269.32706,166.27412 264.64706,167.82412 255.96706,170.70412 251.90706,168.79412 248.64706,160.29412 248.64706,160.29412 263.64706,146.29412 263.64706,146.29412 266.87706,148.02412 272.80706,151.77412 274.00706,155.38412 Z"
                                                     id="path825" />
                                       <path
                                                     inkscape:connector-curvature="0"
                                                     style="fill:#d56036;fill-opacity:1;stroke:#000000;stroke-width:0.97500002;stroke-miterlimit:4;stroke-dasharray:none;stroke-opacity:1"
                                                     d="M 192.64706,172.29412 C 192.02706,176.71412 190.36706,185.78412 186.42706,188.30412 181.82706,191.25412 168.09706,189.51412 166.79706,180.29412 165.92706,174.12412 169.61706,170.14412 172.64706,165.29412 172.64706,165.29412 192.64706,172.29412 192.64706,172.29412 Z"
                                                     id="path821" />
                                       <path
                                                     inkscape:connector-curvature="0"
                                                     style="fill:#d56036;fill-opacity:1;stroke:#000000;stroke-width:0.97500002;stroke-miterlimit:4;stroke-dasharray:none;stroke-opacity:1"
                                                     d="M 209.99706,171.32412 C 212.31706,172.83412 216.71706,183.55412 215.94706,186.25412 214.86706,190.01412 209.21706,192.46412 205.64706,192.92412 196.94706,194.06412 191.71706,188.96412 193.45706,180.29412 193.81706,178.48412 194.33706,176.07412 195.49706,174.60412 197.50706,172.08412 203.45706,171.42412 206.60706,170.80412 207.95706,170.81412 208.68706,170.47412 209.99706,171.32412 Z"
                                                     id="Selection #1" />
                          </g>
                          <g
                                        aria-label="root_pGL2"
                                        transform="matrix(0.74999999,0,0,0.74999999,-20.906765,4.1605948)"
                                        style="font-style:normal;font-variant:normal;font-weight:normal;font-stretch:normal;font-size:26.66666603px;line-height:1.25;font-family:sans-serif;-inkscape-font-specification:'sans-serif, Normal';font-variant-ligatures:normal;font-variant-caps:normal;font-variant-numeric:normal;font-feature-settings:normal;text-align:start;letter-spacing:0px;word-spacing:0px;writing-mode:lr-tb;text-anchor:start;fill:#000000;fill-opacity:1;stroke:none"
                                        id="text927_globalLGD">
                                       <path
                                                     d="M 354.6276,253.16602 Q 354.22396,252.93164 353.74219,252.82747 353.27344,252.71029 352.70052,252.71029 350.66927,252.71029 349.57552,254.03841 348.49479,255.35352 348.49479,257.82747 V 265.50977 H 346.08594 V 250.92643 H 348.49479 V 253.19206 Q 349.25,251.86393 350.46094,251.22591 351.67187,250.57487 353.40365,250.57487 353.65104,250.57487 353.95052,250.61393 354.25,250.63997 354.61458,250.70508 Z"
                                                     id="path914"
                                                     inkscape:connector-curvature="0" />
                                       <path
                                                     d="M 362.24479,252.60612 Q 360.31771,252.60612 359.19792,254.11654 358.07812,255.61393 358.07812,258.23112 358.07812,260.84831 359.1849,262.35872 360.30469,263.85612 362.24479,263.85612 364.15885,263.85612 365.27864,262.3457 366.39844,260.83529 366.39844,258.23112 366.39844,255.63997 365.27864,254.12956 364.15885,252.60612 362.24479,252.60612 Z M 362.24479,250.57487 Q 365.36979,250.57487 367.15364,252.60612 368.9375,254.63737 368.9375,258.23112 368.9375,261.81185 367.15364,263.85612 365.36979,265.88737 362.24479,265.88737 359.10677,265.88737 357.32292,263.85612 355.55208,261.81185 355.55208,258.23112 355.55208,254.63737 357.32292,252.60612 359.10677,250.57487 362.24479,250.57487 Z"
                                                     id="path916"
                                                     inkscape:connector-curvature="0" />
                                       <path
                                                     d="M 378.54687,252.60612 Q 376.61979,252.60612 375.5,254.11654 374.38021,255.61393 374.38021,258.23112 374.38021,260.84831 375.48698,262.35872 376.60677,263.85612 378.54687,263.85612 380.46094,263.85612 381.58073,262.3457 382.70052,260.83529 382.70052,258.23112 382.70052,255.63997 381.58073,254.12956 380.46094,252.60612 378.54687,252.60612 Z M 378.54687,250.57487 Q 381.67187,250.57487 383.45573,252.60612 385.23958,254.63737 385.23958,258.23112 385.23958,261.81185 383.45573,263.85612 381.67187,265.88737 378.54687,265.88737 375.40885,265.88737 373.625,263.85612 371.85416,261.81185 371.85416,258.23112 371.85416,254.63737 373.625,252.60612 375.40885,250.57487 378.54687,250.57487 Z"
                                                     id="path918"
                                                     inkscape:connector-curvature="0" />
                                       <path
                                                     d="M 391.5677,246.78581 V 250.92643 H 396.5026 V 252.78841 H 391.5677 V 260.70508 Q 391.5677,262.48893 392.04947,262.99674 392.54427,263.50456 394.04166,263.50456 H 396.5026 V 265.50977 H 394.04166 Q 391.26822,265.50977 390.21354,264.48112 389.15885,263.43945 389.15885,260.70508 V 252.78841 H 387.40104 V 250.92643 H 389.15885 V 246.78581 Z"
                                                     id="path920"
                                                     inkscape:connector-curvature="0" />
                                       <path
                                                     d="M 410.74739,269.93685 V 271.79883 H 396.89322 V 269.93685 Z"
                                                     id="path922"
                                                     inkscape:connector-curvature="0" />
                                       <path
                                                     d="M 415.31771,263.32227 V 271.05664 H 412.90885 V 250.92643 H 415.31771 V 253.13997 Q 416.07291,251.83789 417.21875,251.21289 418.3776,250.57487 419.97916,250.57487 422.63541,250.57487 424.28906,252.68424 425.95573,254.79362 425.95573,258.23112 425.95573,261.66862 424.28906,263.77799 422.63541,265.88737 419.97916,265.88737 418.3776,265.88737 417.21875,265.26237 416.07291,264.62435 415.31771,263.32227 Z M 423.46875,258.23112 Q 423.46875,255.58789 422.375,254.09049 421.29427,252.58008 419.39323,252.58008 417.49218,252.58008 416.39843,254.09049 415.31771,255.58789 415.31771,258.23112 415.31771,260.87435 416.39843,262.38477 417.49218,263.88216 419.39323,263.88216 421.29427,263.88216 422.375,262.38477 423.46875,260.87435 423.46875,258.23112 Z"
                                                     id="path924"
                                                     inkscape:connector-curvature="0" />
                                       <path
                                                     d="M 443.28645,262.73633 V 257.51497 H 438.98958 V 255.35352 H 445.89062 V 263.69987 Q 444.36718,264.7806 442.53124,265.34049 440.6953,265.88737 438.61197,265.88737 434.05468,265.88737 431.47655,263.23112 428.91145,260.56185 428.91145,255.80924 428.91145,251.04362 431.47655,248.38737 434.05468,245.7181 438.61197,245.7181 440.51301,245.7181 442.21874,246.18685 443.93749,246.6556 445.3828,247.56706 V 250.36654 Q 443.92447,249.12956 442.28385,248.50456 440.64322,247.87956 438.83333,247.87956 435.26562,247.87956 433.46874,249.87174 431.68489,251.86393 431.68489,255.80924 431.68489,259.74154 433.46874,261.73372 435.26562,263.72591 438.83333,263.72591 440.22655,263.72591 441.3203,263.49154 442.41405,263.24414 443.28645,262.73633 Z"
                                                     id="path926"
                                                     inkscape:connector-curvature="0" />
                                       <path
                                                     d="M 450.70833,246.06966 H 453.33854 V 263.29622 H 462.80468 V 265.50977 H 450.70833 Z"
                                                     id="path928"
                                                     inkscape:connector-curvature="0" />
                                       <path
                                                     d="M 468.05208,263.29622 H 477.23177 V 265.50977 H 464.88802 V 263.29622 Q 466.38541,261.74674 468.96354,259.14258 471.55468,256.52539 472.21874,255.77018 473.48177,254.35091 473.97656,253.37435 474.48437,252.38477 474.48437,251.43424 474.48437,249.88477 473.39062,248.9082 472.30989,247.93164 470.5651,247.93164 469.32812,247.93164 467.94791,248.36133 466.58072,248.79102 465.01822,249.66341 V 247.00716 Q 466.60677,246.36914 467.98697,246.04362 469.36718,245.7181 470.51302,245.7181 473.53385,245.7181 475.33072,247.22852 477.1276,248.73893 477.1276,251.26497 477.1276,252.46289 476.67187,253.54362 476.22916,254.61133 475.04427,256.06966 474.71874,256.44727 472.97395,258.25716 471.22916,260.05404 468.05208,263.29622 Z"
                                                     id="path930"
                                                     inkscape:connector-curvature="0" />
                          </g>
                          <path
                                        style="opacity:1;fill:#d56036;fill-opacity:1;fill-rule:evenodd;stroke:#000000;stroke-width:0.03324906;stroke-miterlimit:4;stroke-dasharray:none;stroke-opacity:1"
                                        d="M 342.63596,189.74419 H 375.83118 V 207.38114 H 342.63596 Z"
                                        id="rect161_globalLGD"
                                        inkscape:connector-curvature="0" />
             </g>
</svg>
