<?xml version="1.0" encoding="UTF-8" standalone="no"?>
<svg
              xmlns:dc="http://purl.org/dc/elements/1.1/"
              xmlns:cc="http://creativecommons.org/ns#"
              xmlns:rdf="http://www.w3.org/1999/02/22-rdf-syntax-ns#"
              xmlns:svg="http://www.w3.org/2000/svg"
              xmlns="http://www.w3.org/2000/svg"
              xmlns:sodipodi="http://sodipodi.sourceforge.net/DTD/sodipodi-0.dtd"
              xmlns:inkscape="http://www.inkscape.org/namespaces/inkscape"
              width="5.25in"
              height="3.125in"
              viewBox="0 0 378 225"
              version="1.1"
              id="svg3"
              sodipodi:docname="root_gimp_blank.svg"
              inkscape:version="0.92.3 (unknown)">
             <metadata
                           id="metadata9">
                          <rdf:RDF>
                                       <cc:Work
                                                     rdf:about="">
                                                    <dc:format>image/svg+xml</dc:format>
                                                    <dc:type
                                                                  rdf:resource="http://purl.org/dc/dcmitype/StillImage" />
                                                    <dc:title></dc:title>
                                       </cc:Work>
                          </rdf:RDF>
             </metadata>
             <defs
                           id="defs7" />
             <sodipodi:namedview
                           pagecolor="#ffffff"
                           bordercolor="#666666"
                           borderopacity="1"
                           objecttolerance="10"
                           gridtolerance="10"
                           guidetolerance="10"
                           inkscape:pageopacity="0"
                           inkscape:pageshadow="2"
                           inkscape:window-width="1855"
                           inkscape:window-height="1056"
                           id="namedview5"
                           showgrid="false"
                           inkscape:zoom="1.4166667"
                           inkscape:cx="223.76471"
                           inkscape:cy="150"
                           inkscape:window-x="65"
                           inkscape:window-y="24"
                           inkscape:window-maximized="1"
                           inkscape:current-layer="svg3" />
             <path
                           style="fill:none;fill-opacity:1;stroke:#000000;stroke-width:0.99975002;stroke-miterlimit:4;stroke-dasharray:none;stroke-opacity:1"
                           d="M 180.82353,70.023529 C 187.64353,65.933529 190.01353,62.603529 197.82353,65.823529 194.14353,75.413529 189.07353,74.253529 180.82353,78.243529 174.37353,81.373529 166.69353,86.523529 159.82353,87.823529 159.82353,87.823529 157.82353,83.823529 157.82353,83.823529 157.82353,83.823529 180.82353,70.023529 180.82353,70.023529 Z"
                           id="path995"
                           inkscape:connector-curvature="0" />
             <path
                           style="fill:none;fill-opacity:1;stroke:#000000;stroke-width:0.99975002;stroke-miterlimit:4;stroke-dasharray:none;stroke-opacity:1"
                           d="M 200.38353,68.813529 C 203.48353,66.683529 213.88353,69.063529 217.82353,69.543529 220.67353,69.883529 224.11353,69.523529 226.43353,71.423529 228.47353,73.093529 229.11353,75.433529 229.82353,77.823529 229.82353,77.823529 223.82353,80.143529 223.82353,80.143529 223.82353,80.143529 197.82353,72.823529 197.82353,72.823529 198.50353,71.213529 198.81353,69.893529 200.38353,68.813529 Z"
                           id="path993"
                           inkscape:connector-curvature="0" />
             <path
                           style="fill:none;fill-opacity:1;stroke:#000000;stroke-width:0.99975002;stroke-miterlimit:4;stroke-dasharray:none;stroke-opacity:1"
                           d="M 229.07353,90.823529 C 227.80353,88.263529 225.14353,83.953529 228.18353,81.613529 231.61353,78.983529 235.59353,83.643529 237.82353,85.823529 240.34353,88.303529 246.18353,93.403529 246.71353,96.823529 247.06353,99.133529 244.55353,105.12353 243.82353,107.82353 234.36353,105.78353 233.05353,98.903529 229.07353,90.823529 Z"
                           id="path991"
                           inkscape:connector-curvature="0" />
             <path
                           style="fill:none;fill-opacity:1;stroke:#000000;stroke-width:0.99975002;stroke-miterlimit:4;stroke-dasharray:none;stroke-opacity:1"
                           d="M 158.82353,99.823529 C 158.82353,99.823529 159.95353,110.82353 159.95353,110.82353 160.28353,113.01353 161.65353,117.62353 160.63353,119.49353 158.55353,123.26353 151.38353,119.16353 149.69353,116.60353 147.78353,113.16353 149.00353,99.143529 149.69353,94.823529 149.77353,92.983529 149.73353,89.953529 150.81353,88.473529 152.21353,86.553529 154.68353,86.233529 156.82353,85.823529 159.46353,92.073529 158.75353,93.333529 158.82353,99.823529 Z"
                           id="path989"
                           inkscape:connector-curvature="0" />
             <path
                           style="fill:none;fill-opacity:1;stroke:#000000;stroke-width:0.99975002;stroke-miterlimit:4;stroke-dasharray:none;stroke-opacity:1"
                           d="M 216.80353,131.82353 C 218.03353,127.38353 226.43353,119.19353 229.82353,115.82353 231.63353,114.03353 234.53353,110.92353 236.82353,109.88353 239.05353,108.97353 241.51353,109.54353 243.82353,109.88353 243.82353,109.88353 238.92353,128.18353 238.92353,128.18353 238.92353,128.18353 217.82353,138.82353 217.82353,138.82353 217.13353,136.52353 216.12353,134.24353 216.80353,131.82353 Z"
                           id="path987"
                           inkscape:connector-curvature="0" />
             <path
                           style="fill:none;fill-opacity:1;stroke:#000000;stroke-width:0.99975002;stroke-miterlimit:4;stroke-dasharray:none;stroke-opacity:1"
                           d="M 184.82353,134.82353 C 184.82353,134.82353 181.82353,143.82353 181.82353,143.82353 179.71353,143.80353 177.22353,143.95353 175.28353,143.00353 172.11353,141.44353 162.96353,129.21353 162.05353,125.82353 161.29353,123.00353 162.41353,122.00353 163.82353,119.82353 163.82353,119.82353 184.82353,134.82353 184.82353,134.82353 Z"
                           id="path985"
                           inkscape:connector-curvature="0" />
             <path
                           style="fill:none;fill-opacity:1;stroke:#000000;stroke-width:0.99975002;stroke-miterlimit:4;stroke-dasharray:none;stroke-opacity:1"
                           d="M 187.24353,137.80353 C 190.85353,135.19353 203.08353,135.79353 207.82353,135.82353 209.86353,135.83353 212.60353,135.68353 214.35353,136.84353 216.06353,137.98353 216.91353,140.07353 217.82353,141.82353 217.82353,141.82353 208.82353,149.21353 208.82353,149.21353 208.82353,149.21353 183.82353,144.82353 183.82353,144.82353 184.43353,142.27353 184.96353,139.45353 187.24353,137.80353 Z"
                           id="path983"
                           inkscape:connector-curvature="0" />
             <path
                           style="fill:none;fill-opacity:1;stroke:#000000;stroke-width:0.99975002;stroke-miterlimit:4;stroke-dasharray:none;stroke-opacity:1"
                           d="M 205.12353,33.243529 C 202.66353,31.993529 201.91353,28.293529 201.16353,25.823529 200.52353,23.673529 199.71353,21.083529 200.17353,18.823529 202.74353,6.2735294 229.20353,6.8535294 225.29353,24.823529 224.60353,27.983529 222.18353,32.663529 220.82353,35.823529 220.82353,35.823529 205.12353,33.243529 205.12353,33.243529 Z"
                           id="path977"
                           inkscape:connector-curvature="0" />
             <path
                           style="fill:none;fill-opacity:1;stroke:#000000;stroke-width:0.99975002;stroke-miterlimit:4;stroke-dasharray:none;stroke-opacity:1"
                           d="M 193.71353,16.253529 C 196.41353,18.453529 201.27353,30.143529 200.14353,33.443529 199.29353,35.953529 190.40353,40.813529 187.82353,41.233529 186.00353,41.523529 177.79353,40.833529 176.38353,39.803529 174.62353,38.503529 173.87353,34.863529 173.11353,32.823529 170.65353,26.193529 165.06353,18.953529 179.82353,14.353529 184.41353,13.593529 189.87353,13.113529 193.71353,16.253529 Z"
                           id="path975"
                           inkscape:connector-curvature="0" />
             <path
                           style="fill:none;fill-opacity:1;stroke:#000000;stroke-width:0.99975002;stroke-miterlimit:4;stroke-dasharray:none;stroke-opacity:1"
                           d="M 85.733529,23.843529 C 92.683529,31.113529 102.47353,46.443529 110.82353,51.703529 116.26353,55.133529 117.87353,53.033529 121.82353,53.723529 125.05353,54.293529 132.38353,59.413529 134.13353,62.123529 136.30353,65.503529 132.46353,81.113529 125.82353,81.993529 122.71353,82.403529 111.07353,74.453529 108.10353,72.273529 104.62353,69.723529 105.40353,67.303529 103.52353,63.823529 102.07353,61.143529 99.903529,59.023529 97.843529,56.823529 92.893529,51.513529 88.223529,45.893529 82.653529,41.193529 78.393529,37.613529 67.903529,29.753529 65.053529,25.733529 61.153529,20.243529 63.333529,17.933529 68.823529,15.613529 75.713529,14.843529 81.173529,19.063529 85.733529,23.843529 Z"
                           id="path973"
                           inkscape:connector-curvature="0" />
             <path
                           style="fill:none;fill-opacity:1;stroke:#000000;stroke-width:0.99975002;stroke-miterlimit:4;stroke-dasharray:none;stroke-opacity:1"
                           d="M 259.04353,35.823529 C 258.93353,39.673529 256.51353,42.703529 254.51353,45.823529 253.03353,48.143529 251.03353,52.133529 248.49353,53.253529 247.22353,53.813529 245.20353,53.813529 243.82353,53.813529 236.63353,53.803529 235.26353,51.173529 231.03353,45.823529 229.22353,43.533529 225.06353,38.573529 224.59353,35.823529 223.79353,31.143529 229.00353,22.803529 232.86353,20.563529 243.14353,18.033529 259.42353,23.183529 259.04353,35.823529 Z"
                           id="path971"
                           inkscape:connector-curvature="0" />
             <path
                           style="fill:none;fill-opacity:1;stroke:#000000;stroke-width:0.99975002;stroke-miterlimit:4;stroke-dasharray:none;stroke-opacity:1"
                           d="M 150.24353,29.843529 C 151.15353,23.963529 159.92353,21.353529 165.64353,25.543529 170.46353,29.083529 172.03353,36.243529 172.82353,41.823529 172.82353,41.823529 155.82353,43.823529 155.82353,43.823529 154.21353,40.213529 149.68353,33.443529 150.24353,29.843529 Z"
                           id="path969"
                           inkscape:connector-curvature="0" />
             <path
                           style="fill:none;fill-opacity:1;stroke:#000000;stroke-width:0.99975002;stroke-miterlimit:4;stroke-dasharray:none;stroke-opacity:1"
                           d="M 128.95353,54.783529 C 126.99353,52.633529 125.72353,50.713529 125.17353,47.823529 122.70353,34.913529 137.47353,28.633529 144.78353,32.293529 148.20353,34.003529 154.50353,41.493529 152.69353,45.543529 152.69353,45.543529 137.82353,61.823529 137.82353,61.823529 134.61353,59.783529 131.53353,57.613529 128.95353,54.783529 Z"
                           id="path967"
                           inkscape:connector-curvature="0" />
             <path
                           style="fill:none;fill-opacity:1;stroke:#000000;stroke-width:0.99975002;stroke-miterlimit:4;stroke-dasharray:none;stroke-opacity:1"
                           d="M 211.82353,36.483529 C 222.65353,37.803529 222.46353,38.053529 229.42353,46.823529 230.86353,48.633529 233.41353,51.613529 233.98353,53.823529 235.18353,58.463529 228.18353,66.563529 223.82353,67.473529 221.84353,67.883529 217.95353,67.113529 215.82353,66.823529 210.05353,66.033529 197.46353,65.293529 193.54353,61.103529 191.76353,59.193529 191.35353,56.303529 190.90353,53.823529 190.57353,52.003529 189.56353,47.443529 189.88353,45.863529 190.86353,41.003529 199.50353,37.433529 203.82353,36.483529 208.06353,35.883529 207.84353,36.243529 211.82353,36.483529 Z"
                           id="path959"
                           inkscape:connector-curvature="0" />
             <path
                           style="fill:none;fill-opacity:1;stroke:#000000;stroke-width:0.99975002;stroke-miterlimit:4;stroke-dasharray:none;stroke-opacity:1"
                           d="M 256.87353,45.823529 C 258.10353,43.883529 260.52353,39.743529 262.20353,38.423529 268.91353,33.133529 282.66353,39.573529 281.32353,49.823529 280.76353,54.193529 275.25353,57.023529 271.82353,59.143529 269.10353,60.823529 266.18353,62.853529 262.82353,61.993529 262.82353,61.993529 251.82353,55.823529 251.82353,55.823529 253.00353,51.433529 254.48353,49.583529 256.87353,45.823529 Z"
                           id="path957"
                           inkscape:connector-curvature="0" />
             <path
                           style="fill:none;fill-opacity:1;stroke:#000000;stroke-width:0.99975002;stroke-miterlimit:4;stroke-dasharray:none;stroke-opacity:1"
                           d="M 161.82353,79.053529 C 159.04353,80.573529 152.66353,84.643529 149.82353,84.693529 147.67353,84.733529 145.70353,83.513529 143.82353,82.623529 141.80353,81.673529 136.99353,80.063529 135.88353,78.313529 132.64353,73.233529 140.52353,61.383529 143.84353,57.823529 146.92353,54.543529 152.01353,49.033529 155.82353,46.903529 160.41353,44.343529 163.17353,45.203529 167.82353,44.643529 179.29353,43.253529 172.53353,41.933529 186.82353,43.823529 186.82353,43.823529 190.82353,61.823529 190.82353,61.823529 190.82353,61.823529 161.82353,79.053529 161.82353,79.053529 Z"
                           id="path951"
                           inkscape:connector-curvature="0" />
             <path
                           style="fill:none;fill-opacity:1;stroke:#000000;stroke-width:0.99975002;stroke-miterlimit:4;stroke-dasharray:none;stroke-opacity:1"
                           d="M 276.82353,58.043529 C 279.07353,56.423529 282.12353,53.303529 284.82353,52.943529 286.45353,52.733529 288.40353,53.473529 289.80353,54.243529 294.91353,57.043529 295.85353,61.673529 293.46353,66.773529 291.19353,71.593529 288.27353,70.543529 283.82353,71.493529 275.32353,73.313529 271.47353,76.953529 266.82353,64.823529 266.82353,64.823529 276.82353,58.043529 276.82353,58.043529 Z"
                           id="path947"
                           inkscape:connector-curvature="0" />
             <path
                           style="fill:none;fill-opacity:1;stroke:#000000;stroke-width:0.99975002;stroke-miterlimit:4;stroke-dasharray:none;stroke-opacity:1"
                           d="M 234.15353,78.823529 C 232.11353,76.343529 229.28353,72.183529 229.58353,68.823529 229.87353,65.543529 235.84353,57.643529 238.91353,56.283529 240.79353,55.673529 243.84353,55.813529 245.82353,56.283529 255.40353,57.743529 267.00353,66.463529 270.12353,75.823529 270.96353,78.333529 270.86353,82.143529 270.82353,84.823529 270.78353,86.773529 270.92353,89.453529 269.22353,90.803529 267.85353,91.893529 264.59353,91.873529 262.82353,92.103529 262.82353,92.103529 248.82353,94.823529 248.82353,94.823529 248.82353,94.823529 234.15353,78.823529 234.15353,78.823529 Z"
                           id="path945"
                           inkscape:connector-curvature="0" />
             <path
                           style="fill:none;fill-opacity:1;stroke:#000000;stroke-width:0.99975002;stroke-miterlimit:4;stroke-dasharray:none;stroke-opacity:1"
                           d="M 272.82353,83.823529 C 272.83353,81.953529 272.67353,78.943529 273.84353,77.403529 275.51353,75.213529 286.94353,72.903529 289.82353,73.023529 297.09353,73.313529 295.57353,78.513529 307.82353,78.933529 307.82353,78.933529 339.82353,75.003529 339.82353,75.003529 345.89353,74.573529 354.38353,78.043529 345.76353,83.463529 342.57353,85.463529 327.22353,89.933529 322.82353,91.093529 322.82353,91.093529 303.82353,94.413529 303.82353,94.413529 295.52353,95.903529 298.44353,98.813529 293.61353,101.31353 291.69353,102.30353 281.51353,104.31353 278.82353,104.82353 274.24353,96.553529 272.76353,93.243529 272.82353,83.823529 Z"
                           id="path943"
                           inkscape:connector-curvature="0" />
             <path
                           style="fill:none;fill-opacity:1;stroke:#000000;stroke-width:0.99975002;stroke-miterlimit:4;stroke-dasharray:none;stroke-opacity:1"
                           d="M 116.43353,96.803529 C 114.23353,98.123529 111.19353,97.273529 108.82353,96.803529 103.56353,95.833529 95.853529,96.973529 94.263529,90.803529 92.273529,83.083529 101.92353,71.593529 111.82353,76.883529 111.82353,76.883529 123.82353,84.823529 123.82353,84.823529 122.54353,87.483529 118.73353,95.393529 116.43353,96.803529 Z"
                           id="path941"
                           inkscape:connector-curvature="0" />
             <path
                           style="fill:none;fill-opacity:1;stroke:#000000;stroke-width:0.99975002;stroke-miterlimit:4;stroke-dasharray:none;stroke-opacity:1"
                           d="M 211.82353,79.823529 C 211.82353,79.823529 210.82353,85.823529 210.82353,85.823529 210.82353,85.823529 192.82353,85.823529 192.82353,85.823529 192.82353,85.823529 189.82353,76.823529 189.82353,76.823529 198.55353,73.663529 203.39353,77.013529 211.82353,79.823529 Z"
                           id="path939"
                           inkscape:connector-curvature="0" />
             <path
                           style="fill:none;fill-opacity:1;stroke:#000000;stroke-width:0.99975002;stroke-miterlimit:4;stroke-dasharray:none;stroke-opacity:1"
                           d="M 187.82353,77.823529 C 187.82353,77.823529 189.82353,84.823529 189.82353,84.823529 189.82353,84.823529 177.82353,88.823529 177.82353,88.823529 177.82353,88.823529 175.82353,82.823529 175.82353,82.823529 175.82353,82.823529 187.82353,77.823529 187.82353,77.823529 Z"
                           id="path937"
                           inkscape:connector-curvature="0" />
             <path
                           style="fill:none;fill-opacity:1;stroke:#000000;stroke-width:0.99975002;stroke-miterlimit:4;stroke-dasharray:none;stroke-opacity:1"
                           d="M 128.86353,125.01353 C 126.98353,124.59353 125.66353,123.14353 124.44353,121.76353 119.85353,116.59353 119.83353,114.35353 119.82353,107.82353 119.80353,98.183529 121.05353,88.973529 129.91353,82.983529 134.08353,80.163529 143.15353,83.073529 145.80353,87.213529 147.04353,89.163529 146.82353,92.553529 146.82353,94.823529 146.82353,94.823529 146.82353,107.82353 146.82353,107.82353 146.82353,107.82353 145.82353,118.82353 145.82353,118.82353 140.32353,120.39353 132.16353,125.76353 128.86353,125.01353 Z"
                           id="path935"
                           inkscape:connector-curvature="0" />
             <path
                           style="fill:none;fill-opacity:1;stroke:#000000;stroke-width:0.99975002;stroke-miterlimit:4;stroke-dasharray:none;stroke-opacity:1"
                           d="M 221.48353,82.963529 C 225.20353,85.463529 228.11353,93.513529 228.82353,97.723529 227.05353,97.993529 225.60353,98.343529 223.86353,97.723529 220.83353,96.373529 214.97353,89.073529 214.58353,85.823529 213.98353,83.953529 214.44353,82.593529 214.58353,80.823529 217.03353,81.273529 219.58353,81.673529 221.48353,82.963529 Z"
                           id="path933"
                           inkscape:connector-curvature="0" />
             <path
                           style="fill:none;fill-opacity:1;stroke:#000000;stroke-width:0.99975002;stroke-miterlimit:4;stroke-dasharray:none;stroke-opacity:1"
                           d="M 174.82353,84.823529 C 176.29353,94.923529 168.57353,95.103529 160.82353,94.823529 161.94353,88.273529 168.89353,85.933529 174.82353,84.823529 Z"
                           id="path931"
                           inkscape:connector-curvature="0" />
             <path
                           style="fill:none;fill-opacity:1;stroke:#000000;stroke-width:0.99975002;stroke-miterlimit:4;stroke-dasharray:none;stroke-opacity:1"
                           d="M 192.82353,87.823529 C 192.82353,87.823529 188.82353,88.823529 188.82353,88.823529 188.82353,88.823529 192.82353,87.823529 192.82353,87.823529 Z"
                           id="path929"
                           inkscape:connector-curvature="0" />
             <path
                           style="fill:none;fill-opacity:1;stroke:#000000;stroke-width:0.99975002;stroke-miterlimit:4;stroke-dasharray:none;stroke-opacity:1"
                           d="M 200.82353,88.823529 C 200.82353,88.823529 200.82353,90.823529 200.82353,90.823529 200.82353,90.823529 194.82353,90.823529 194.82353,90.823529 194.82353,90.823529 194.82353,88.823529 194.82353,88.823529 194.82353,88.823529 200.82353,88.823529 200.82353,88.823529 Z"
                           id="path927"
                           inkscape:connector-curvature="0" />
             <path
                           style="fill:none;fill-opacity:1;stroke:#000000;stroke-width:0.99975002;stroke-miterlimit:4;stroke-dasharray:none;stroke-opacity:1"
                           d="M 207.82353,89.823529 C 207.82353,89.823529 202.82353,87.823529 202.82353,87.823529 202.82353,87.823529 207.82353,89.823529 207.82353,89.823529 Z"
                           id="path925"
                           inkscape:connector-curvature="0" />
             <path
                           style="fill:none;fill-opacity:1;stroke:#000000;stroke-width:0.99975002;stroke-miterlimit:4;stroke-dasharray:none;stroke-opacity:1"
                           d="M 213.82353,91.823529 C 213.82353,91.823529 209.82353,90.823529 209.82353,90.823529 209.82353,90.823529 210.82353,87.823529 210.82353,87.823529 210.82353,87.823529 213.82353,91.823529 213.82353,91.823529 Z"
                           id="path923"
                           inkscape:connector-curvature="0" />
             <path
                           style="fill:none;fill-opacity:1;stroke:#000000;stroke-width:0.99975002;stroke-miterlimit:4;stroke-dasharray:none;stroke-opacity:1"
                           d="M 188.82353,92.823529 C 188.82353,92.823529 184.82353,91.823529 184.82353,91.823529 184.82353,91.823529 185.82353,88.823529 185.82353,88.823529 185.82353,88.823529 188.82353,92.823529 188.82353,92.823529 Z"
                           id="path921"
                           inkscape:connector-curvature="0" />
             <path
                           style="fill:none;fill-opacity:1;stroke:#000000;stroke-width:0.99975002;stroke-miterlimit:4;stroke-dasharray:none;stroke-opacity:1"
                           d="M 178.82353,95.823529 C 178.82353,95.823529 177.82353,91.823529 177.82353,91.823529 177.82353,91.823529 181.82353,89.823529 181.82353,89.823529 182.85353,93.393529 181.88353,94.103529 178.82353,95.823529 Z"
                           id="path919"
                           inkscape:connector-curvature="0" />
             <path
                           style="fill:none;fill-opacity:1;stroke:#000000;stroke-width:0.99975002;stroke-miterlimit:4;stroke-dasharray:none;stroke-opacity:1"
                           d="M 193.82353,97.823529 C 190.89353,95.593529 191.03353,95.373529 191.82353,91.823529 194.75353,94.053529 194.61353,94.273529 193.82353,97.823529 Z"
                           id="path917"
                           inkscape:connector-curvature="0" />
             <path
                           style="fill:none;fill-opacity:1;stroke:#000000;stroke-width:0.99975002;stroke-miterlimit:4;stroke-dasharray:none;stroke-opacity:1"
                           d="M 203.82353,91.823529 C 203.82353,91.823529 203.82353,96.823529 203.82353,96.823529 201.29353,94.993529 201.57353,94.893529 201.82353,91.823529 201.82353,91.823529 203.82353,91.823529 203.82353,91.823529 Z"
                           id="path915"
                           inkscape:connector-curvature="0" />
             <path
                           style="fill:none;fill-opacity:1;stroke:#000000;stroke-width:0.99975002;stroke-miterlimit:4;stroke-dasharray:none;stroke-opacity:1"
                           d="M 210.82353,94.823529 C 210.82353,94.823529 205.82353,92.823529 205.82353,92.823529 208.89353,92.573529 208.99353,92.293529 210.82353,94.823529 Z"
                           id="path913"
                           inkscape:connector-curvature="0" />
             <path
                           style="fill:none;fill-opacity:1;stroke:#000000;stroke-width:0.99975002;stroke-miterlimit:4;stroke-dasharray:none;stroke-opacity:1"
                           d="M 176.82353,98.823529 C 176.82353,98.823529 172.82353,96.823529 172.82353,96.823529 172.82353,96.823529 172.82353,94.823529 172.82353,94.823529 172.82353,94.823529 174.82353,93.823529 174.82353,93.823529 174.82353,93.823529 176.82353,98.823529 176.82353,98.823529 Z"
                           id="path911"
                           inkscape:connector-curvature="0" />
             <path
                           style="fill:none;fill-opacity:1;stroke:#000000;stroke-width:0.99975002;stroke-miterlimit:4;stroke-dasharray:none;stroke-opacity:1"
                           d="M 199.82353,97.823529 C 197.15353,96.673529 197.41353,96.643529 197.82353,93.823529 197.82353,93.823529 199.82353,97.823529 199.82353,97.823529 Z"
                           id="path909"
                           inkscape:connector-curvature="0" />
             <path
                           style="fill:none;fill-opacity:1;stroke:#000000;stroke-width:0.99975002;stroke-miterlimit:4;stroke-dasharray:none;stroke-opacity:1"
                           d="M 216.82353,93.823529 C 216.82353,93.823529 218.82353,97.823529 218.82353,97.823529 218.82353,97.823529 212.82353,98.823529 212.82353,98.823529 212.82353,98.823529 216.82353,93.823529 216.82353,93.823529 Z"
                           id="path907"
                           inkscape:connector-curvature="0" />
             <path
                           style="fill:none;fill-opacity:1;stroke:#000000;stroke-width:0.99975002;stroke-miterlimit:4;stroke-dasharray:none;stroke-opacity:1"
                           d="M 245.91353,109.82353 C 248.17353,98.193529 250.61353,96.403529 261.82353,94.573529 264.94353,94.073529 268.61353,93.163529 271.27353,95.423529 276.92353,100.22353 275.86353,112.07353 275.82353,118.82353 275.80353,121.13353 275.93353,123.63353 274.80353,125.73353 273.58353,127.99353 270.80353,130.01353 268.82353,131.62353 264.65353,135.02353 260.50353,140.42353 254.82353,137.66353 254.82353,137.66353 241.82353,128.82353 241.82353,128.82353 241.82353,128.82353 245.91353,109.82353 245.91353,109.82353 Z"
                           id="path905"
                           inkscape:connector-curvature="0" />
             <path
                           style="fill:none;fill-opacity:1;stroke:#000000;stroke-width:0.99975002;stroke-miterlimit:4;stroke-dasharray:none;stroke-opacity:1"
                           d="M 187.82353,94.823529 C 187.82353,94.823529 184.82353,97.823529 184.82353,97.823529 184.82353,97.823529 187.82353,94.823529 187.82353,94.823529 Z"
                           id="path903"
                           inkscape:connector-curvature="0" />
             <path
                           style="fill:none;fill-opacity:1;stroke:#000000;stroke-width:0.99975002;stroke-miterlimit:4;stroke-dasharray:none;stroke-opacity:1"
                           d="M 166.80353,99.383529 C 170.49353,104.38353 164.38353,112.64353 162.12353,105.67353 162.12353,105.67353 161.54353,101.82353 161.54353,101.82353 161.54353,101.82353 160.82353,96.823529 160.82353,96.823529 162.84353,97.263529 165.47353,97.583529 166.80353,99.383529 Z"
                           id="path901"
                           inkscape:connector-curvature="0" />
             <path
                           style="fill:none;fill-opacity:1;stroke:#000000;stroke-width:0.99975002;stroke-miterlimit:4;stroke-dasharray:none;stroke-opacity:1"
                           d="M 115.80353,101.41353 C 116.98353,102.94353 116.77353,105.95353 116.91353,107.82353 117.09353,110.28353 118.23353,113.99353 116.21353,115.84353 114.10353,117.77353 103.51353,120.86353 100.83353,119.71353 93.803529,116.67353 91.223529,104.35353 96.253529,98.843529 99.743529,97.483529 113.38353,98.303529 115.80353,101.41353 Z"
                           id="path899"
                           inkscape:connector-curvature="0" />
             <path
                           style="fill:none;fill-opacity:1;stroke:#000000;stroke-width:0.99975002;stroke-miterlimit:4;stroke-dasharray:none;stroke-opacity:1"
                           d="M 171.82353,97.823529 C 172.22353,101.08353 172.47353,101.73353 169.82353,103.82353 169.82353,103.82353 169.82353,97.823529 169.82353,97.823529 169.82353,97.823529 171.82353,97.823529 171.82353,97.823529 Z"
                           id="path897"
                           inkscape:connector-curvature="0" />
             <path
                           style="fill:none;fill-opacity:1;stroke:#000000;stroke-width:0.99975002;stroke-miterlimit:4;stroke-dasharray:none;stroke-opacity:1"
                           d="M 182.82353,98.823529 C 182.82353,98.823529 178.82353,98.823529 178.82353,98.823529 178.82353,98.823529 182.82353,98.823529 182.82353,98.823529 Z"
                           id="path895"
                           inkscape:connector-curvature="0" />
             <path
                           style="fill:none;fill-opacity:1;stroke:#000000;stroke-width:0.99975002;stroke-miterlimit:4;stroke-dasharray:none;stroke-opacity:1"
                           d="M 193.82353,102.82353 C 193.82353,102.82353 187.82353,98.823529 187.82353,98.823529 187.82353,98.823529 188.82353,97.823529 188.82353,97.823529 188.82353,97.823529 193.82353,102.82353 193.82353,102.82353 Z"
                           id="path893"
                           inkscape:connector-curvature="0" />
             <path
                           style="fill:none;fill-opacity:1;stroke:#000000;stroke-width:0.99975002;stroke-miterlimit:4;stroke-dasharray:none;stroke-opacity:1"
                           d="M 202.14353,102.87353 C 202.23353,101.18353 202.66353,100.08353 204.13353,99.143529 210.39353,95.123529 214.20353,105.72353 207.76353,107.66353 206.52353,107.85353 204.15353,107.80353 202.82353,107.66353 202.82353,107.66353 202.14353,102.87353 202.14353,102.87353 Z"
                           id="path891"
                           inkscape:connector-curvature="0" />
             <path
                           style="fill:none;fill-opacity:1;stroke:#000000;stroke-width:0.99975002;stroke-miterlimit:4;stroke-dasharray:none;stroke-opacity:1"
                           d="M 230.82353,98.823529 C 236.17353,108.29353 233.69353,110.47353 224.82353,116.82353 220.44353,109.92353 223.72353,102.17353 230.82353,98.823529 Z"
                           id="path889"
                           inkscape:connector-curvature="0" />
             <path
                           style="fill:none;fill-opacity:1;stroke:#000000;stroke-width:0.99975002;stroke-miterlimit:4;stroke-dasharray:none;stroke-opacity:1"
                           d="M 197.82353,99.823529 C 197.82353,99.823529 198.82353,102.82353 198.82353,102.82353 198.82353,102.82353 195.82353,99.823529 195.82353,99.823529 195.82353,99.823529 197.82353,99.823529 197.82353,99.823529 Z"
                           id="path887"
                           inkscape:connector-curvature="0" />
             <path
                           style="fill:none;fill-opacity:1;stroke:#000000;stroke-width:0.99975002;stroke-miterlimit:4;stroke-dasharray:none;stroke-opacity:1"
                           d="M 218.82353,106.82353 C 218.82353,106.82353 218.82353,99.823529 218.82353,99.823529 223.49353,101.56353 222.43353,104.52353 218.82353,106.82353 Z"
                           id="path885"
                           inkscape:connector-curvature="0" />
             <path
                           style="fill:none;fill-opacity:1;stroke:#000000;stroke-width:0.99975002;stroke-miterlimit:4;stroke-dasharray:none;stroke-opacity:1"
                           d="M 185.68353,111.49353 C 180.29353,112.83353 177.54353,107.06353 180.42353,102.85353 188.37353,99.803529 191.19353,110.11353 185.68353,111.49353 Z"
                           id="path883"
                           inkscape:connector-curvature="0" />
             <path
                           style="fill:none;fill-opacity:1;stroke:#000000;stroke-width:0.99975002;stroke-miterlimit:4;stroke-dasharray:none;stroke-opacity:1"
                           d="M 294.73353,104.66353 C 302.49353,106.00353 303.69353,124.37353 294.73353,130.21353 290.10353,133.23353 282.43353,127.81353 277.82353,125.82353 277.82353,125.82353 278.82353,106.82353 278.82353,106.82353 283.05353,106.46353 291.47353,104.10353 294.73353,104.66353 Z"
                           id="path881"
                           inkscape:connector-curvature="0" />
             <path
                           style="fill:none;fill-opacity:1;stroke:#000000;stroke-width:0.99975002;stroke-miterlimit:4;stroke-dasharray:none;stroke-opacity:1"
                           d="M 176.82353,106.82353 C 176.82353,106.82353 170.82353,109.82353 170.82353,109.82353 172.22353,106.36353 173.28353,106.56353 176.82353,106.82353 Z"
                           id="path879"
                           inkscape:connector-curvature="0" />
             <path
                           style="fill:none;fill-opacity:1;stroke:#000000;stroke-width:0.99975002;stroke-miterlimit:4;stroke-dasharray:none;stroke-opacity:1"
                           d="M 194.82353,107.82353 C 194.82353,107.82353 190.82353,105.82353 190.82353,105.82353 190.82353,105.82353 194.82353,107.82353 194.82353,107.82353 Z"
                           id="path877"
                           inkscape:connector-curvature="0" />
             <path
                           style="fill:none;fill-opacity:1;stroke:#000000;stroke-width:0.99975002;stroke-miterlimit:4;stroke-dasharray:none;stroke-opacity:1"
                           d="M 219.82353,108.82353 C 219.82353,108.82353 216.82353,112.82353 216.82353,112.82353 216.82353,112.82353 213.82353,107.82353 213.82353,107.82353 213.82353,107.82353 214.82353,106.82353 214.82353,106.82353 214.82353,106.82353 219.82353,108.82353 219.82353,108.82353 Z"
                           id="path875"
                           inkscape:connector-curvature="0" />
             <path
                           style="fill:none;fill-opacity:1;stroke:#000000;stroke-width:0.99975002;stroke-miterlimit:4;stroke-dasharray:none;stroke-opacity:1"
                           d="M 200.82353,109.82353 C 200.82353,109.82353 196.82353,113.82353 196.82353,113.82353 196.82353,113.82353 196.82353,109.82353 196.82353,109.82353 196.82353,109.82353 200.82353,109.82353 200.82353,109.82353 Z"
                           id="path873"
                           inkscape:connector-curvature="0" />
             <path
                           style="fill:none;fill-opacity:1;stroke:#000000;stroke-width:0.99975002;stroke-miterlimit:4;stroke-dasharray:none;stroke-opacity:1"
                           d="M 214.82353,114.82353 C 214.82353,114.82353 209.82353,116.82353 209.82353,116.82353 209.82353,116.82353 208.82353,109.82353 208.82353,109.82353 212.69353,110.99353 212.97353,111.22353 214.82353,114.82353 Z"
                           id="path871"
                           inkscape:connector-curvature="0" />
             <path
                           style="fill:none;fill-opacity:1;stroke:#000000;stroke-width:0.99975002;stroke-miterlimit:4;stroke-dasharray:none;stroke-opacity:1"
                           d="M 169.66353,118.65353 C 166.67353,119.95353 162.03353,116.19353 164.46353,111.85353 171.31353,109.14353 173.83353,116.84353 169.66353,118.65353 Z"
                           id="path869"
                           inkscape:connector-curvature="0" />
             <path
                           style="fill:none;fill-opacity:1;stroke:#000000;stroke-width:0.99975002;stroke-miterlimit:4;stroke-dasharray:none;stroke-opacity:1"
                           d="M 177.82353,110.82353 C 177.82353,110.82353 175.82353,116.82353 175.82353,116.82353 175.82353,116.82353 173.82353,111.82353 173.82353,111.82353 173.82353,111.82353 177.82353,110.82353 177.82353,110.82353 Z"
                           id="path867"
                           inkscape:connector-curvature="0" />
             <path
                           style="fill:none;fill-opacity:1;stroke:#000000;stroke-width:0.99975002;stroke-miterlimit:4;stroke-dasharray:none;stroke-opacity:1"
                           d="M 191.82353,116.82353 C 191.82353,116.82353 189.82353,112.82353 189.82353,112.82353 189.82353,112.82353 190.82353,112.82353 190.82353,112.82353 190.82353,112.82353 192.82353,110.82353 192.82353,110.82353 194.52353,113.95353 194.16353,114.27353 191.82353,116.82353 Z"
                           id="path865"
                           inkscape:connector-curvature="0" />
             <path
                           style="fill:none;fill-opacity:1;stroke:#000000;stroke-width:0.99975002;stroke-miterlimit:4;stroke-dasharray:none;stroke-opacity:1"
                           d="M 206.82353,110.82353 C 206.82353,110.82353 202.82353,115.82353 202.82353,115.82353 202.82353,115.82353 202.82353,110.82353 202.82353,110.82353 202.82353,110.82353 206.82353,110.82353 206.82353,110.82353 Z"
                           id="path863"
                           inkscape:connector-curvature="0" />
             <path
                           style="fill:none;fill-opacity:1;stroke:#000000;stroke-width:0.99975002;stroke-miterlimit:4;stroke-dasharray:none;stroke-opacity:1"
                           d="M 223.82353,118.82353 C 223.82353,118.82353 216.82353,127.82353 216.82353,127.82353 216.82353,127.82353 214.82353,127.82353 214.82353,127.82353 214.82353,127.82353 209.82353,120.82353 209.82353,120.82353 209.82353,120.82353 218.82353,113.82353 218.82353,113.82353 218.82353,113.82353 223.82353,118.82353 223.82353,118.82353 Z"
                           id="path861"
                           inkscape:connector-curvature="0" />
             <path
                           style="fill:none;fill-opacity:1;stroke:#000000;stroke-width:0.99975002;stroke-miterlimit:4;stroke-dasharray:none;stroke-opacity:1"
                           d="M 183.82353,114.82353 C 182.02353,118.28353 181.77353,118.78353 177.82353,118.82353 179.90353,115.57353 180.01353,115.47353 183.82353,114.82353 Z"
                           id="path859"
                           inkscape:connector-curvature="0" />
             <path
                           style="fill:none;fill-opacity:1;stroke:#000000;stroke-width:0.99975002;stroke-miterlimit:4;stroke-dasharray:none;stroke-opacity:1"
                           d="M 188.82353,118.82353 C 188.82353,118.82353 185.82353,114.82353 185.82353,114.82353 185.82353,114.82353 188.82353,118.82353 188.82353,118.82353 Z"
                           id="path857"
                           inkscape:connector-curvature="0" />
             <path
                           style="fill:none;fill-opacity:1;stroke:#000000;stroke-width:0.99975002;stroke-miterlimit:4;stroke-dasharray:none;stroke-opacity:1"
                           d="M 200.82353,118.82353 C 200.82353,118.82353 194.82353,118.82353 194.82353,118.82353 194.82353,118.82353 195.82353,115.82353 195.82353,115.82353 195.82353,115.82353 200.82353,118.82353 200.82353,118.82353 Z"
                           id="path855"
                           inkscape:connector-curvature="0" />
             <path
                           style="fill:none;fill-opacity:1;stroke:#000000;stroke-width:0.99975002;stroke-miterlimit:4;stroke-dasharray:none;stroke-opacity:1"
                           d="M 206.82353,116.82353 C 206.82353,116.82353 207.82353,119.82353 207.82353,119.82353 207.82353,119.82353 202.82353,119.82353 202.82353,119.82353 202.82353,119.82353 202.82353,117.82353 202.82353,117.82353 202.82353,117.82353 206.82353,116.82353 206.82353,116.82353 Z"
                           id="path853"
                           inkscape:connector-curvature="0" />
             <path
                           style="fill:none;fill-opacity:1;stroke:#000000;stroke-width:0.99975002;stroke-miterlimit:4;stroke-dasharray:none;stroke-opacity:1"
                           d="M 128.22353,141.51353 C 126.92353,144.23353 114.03353,147.93353 110.82353,148.27353 99.193529,149.49353 95.993529,134.30353 100.47353,126.04353 102.50353,122.30353 110.82353,120.36353 114.82353,119.39353 124.74353,119.29353 131.31353,135.08353 128.22353,141.51353 Z"
                           id="path851"
                           inkscape:connector-curvature="0" />
             <path
                           style="fill:none;fill-opacity:1;stroke:#000000;stroke-width:0.99975002;stroke-miterlimit:4;stroke-dasharray:none;stroke-opacity:1"
                           d="M 166.72353,136.82353 C 168.46353,139.14353 172.15353,142.70353 171.33353,145.78353 170.72353,148.09353 166.63353,151.24353 164.82353,152.90353 162.90353,154.66353 160.37353,157.43353 157.82353,158.12353 155.14353,158.84353 152.26353,157.23353 149.82353,156.27353 142.87353,153.51353 136.60353,149.41353 132.95353,142.54353 131.65353,140.08353 130.70353,132.29353 129.82353,128.82353 129.82353,128.82353 147.82353,118.82353 147.82353,118.82353 161.48353,126.05353 157.97353,125.19353 166.72353,136.82353 Z"
                           id="path849"
                           inkscape:connector-curvature="0" />
             <path
                           style="fill:none;fill-opacity:1;stroke:#000000;stroke-width:0.99975002;stroke-miterlimit:4;stroke-dasharray:none;stroke-opacity:1"
                           d="M 173.82353,119.77353 C 176.49353,119.59353 186.96353,124.19353 178.82353,128.82353 178.82353,128.82353 170.82353,120.82353 170.82353,120.82353 171.69353,120.46353 172.12353,119.88353 173.82353,119.77353 Z"
                           id="path847"
                           inkscape:connector-curvature="0" />
             <path
                           style="fill:none;fill-opacity:1;stroke:#000000;stroke-width:0.99975002;stroke-miterlimit:4;stroke-dasharray:none;stroke-opacity:1"
                           d="M 185.82353,122.82353 C 185.82353,122.82353 183.82353,118.82353 183.82353,118.82353 183.82353,118.82353 185.82353,122.82353 185.82353,122.82353 Z"
                           id="path845"
                           inkscape:connector-curvature="0" />
             <path
                           style="fill:none;fill-opacity:1;stroke:#000000;stroke-width:0.99975002;stroke-miterlimit:4;stroke-dasharray:none;stroke-opacity:1"
                           d="M 194.82353,122.82353 C 194.82353,122.82353 187.82353,123.82353 187.82353,123.82353 187.82353,123.82353 190.82353,118.82353 190.82353,118.82353 190.82353,118.82353 194.82353,122.82353 194.82353,122.82353 Z"
                           id="path843"
                           inkscape:connector-curvature="0" />
             <path
                           style="fill:none;fill-opacity:1;stroke:#000000;stroke-width:0.99975002;stroke-miterlimit:4;stroke-dasharray:none;stroke-opacity:1"
                           d="M 202.82353,122.82353 C 202.82353,122.82353 196.82353,124.82353 196.82353,124.82353 198.71353,122.10353 199.65353,121.81353 202.82353,122.82353 Z"
                           id="path841"
                           inkscape:connector-curvature="0" />
             <path
                           style="fill:none;fill-opacity:1;stroke:#000000;stroke-width:0.99975002;stroke-miterlimit:4;stroke-dasharray:none;stroke-opacity:1"
                           d="M 209.53353,124.52353 C 211.56353,125.77353 213.50353,128.86353 214.82353,130.82353 209.88353,134.13353 206.59353,133.71353 200.82353,133.82353 201.37353,129.78353 203.22353,120.64353 209.53353,124.52353 Z"
                           id="path839"
                           inkscape:connector-curvature="0" />
             <path
                           style="fill:none;fill-opacity:1;stroke:#000000;stroke-width:0.99975002;stroke-miterlimit:4;stroke-dasharray:none;stroke-opacity:1"
                           d="M 198.82353,126.82353 C 198.76353,128.51353 198.91353,130.81353 197.80353,132.22353 196.20353,134.25353 189.11353,134.61353 186.82353,133.80353 185.17353,133.22353 183.28353,131.80353 181.82353,130.82353 187.52353,123.50353 190.63353,126.64353 198.82353,126.82353 Z"
                           id="path837"
                           inkscape:connector-curvature="0" />
             <path
                           style="fill:none;fill-opacity:1;stroke:#000000;stroke-width:0.99975002;stroke-miterlimit:4;stroke-dasharray:none;stroke-opacity:1"
                           d="M 260.84353,141.86353 C 262.23353,139.21353 274.26353,128.98353 277.10353,128.52353 279.38353,128.15353 282.80353,130.04353 284.82353,131.07353 286.76353,132.06353 289.28353,133.12353 290.25353,135.21353 294.20353,143.70353 283.82353,163.57353 272.82353,163.13353 269.34353,162.99353 262.17353,156.15353 258.82353,153.82353 259.16353,151.27353 259.88353,143.68353 260.84353,141.86353 Z"
                           id="path835"
                           inkscape:connector-curvature="0" />
             <path
                           style="fill:none;fill-opacity:1;stroke:#000000;stroke-width:0.99975002;stroke-miterlimit:4;stroke-dasharray:none;stroke-opacity:1"
                           d="M 255.39353,154.82353 C 253.87353,158.09353 251.46353,159.95353 248.82353,162.24353 237.96353,171.66353 237.79353,169.85353 223.82353,169.82353 221.65353,169.82353 218.14353,170.05353 216.32353,168.80353 212.68353,166.30353 210.18353,154.91353 212.11353,150.99353 213.24353,148.70353 219.95353,141.04353 221.99353,139.47353 223.91353,137.98353 236.60353,131.89353 238.82353,131.59353 242.96353,131.04353 253.73353,139.36353 257.82353,141.82353 256.82353,145.93353 256.90353,151.58353 255.39353,154.82353 Z"
                           id="path833"
                           inkscape:connector-curvature="0" />
             <path
                           style="fill:none;fill-opacity:1;stroke:#000000;stroke-width:0.99975002;stroke-miterlimit:4;stroke-dasharray:none;stroke-opacity:1"
                           d="M 127.82353,145.56353 C 132.60353,144.89353 139.57353,150.79353 138.67353,155.82353 138.24353,158.22353 135.42353,161.05353 133.82353,162.82353 132.15353,164.65353 128.93353,168.67353 126.73353,169.50353 121.40353,171.51353 114.78353,165.25353 112.79353,160.82353 111.30353,157.52353 110.99353,154.37353 110.82353,150.82353 110.82353,150.82353 127.82353,145.56353 127.82353,145.56353 Z"
                           id="path831"
                           inkscape:connector-curvature="0" />
             <path
                           style="fill:none;fill-opacity:1;stroke:#000000;stroke-width:0.99975002;stroke-miterlimit:4;stroke-dasharray:none;stroke-opacity:1"
                           d="M 176.82353,146.17353 C 180.74353,145.36353 195.46353,149.17353 199.82353,150.48353 201.46353,150.97353 206.01353,151.90353 207.09353,152.80353 208.88353,154.29353 209.56353,159.45353 210.26353,161.82353 210.97353,164.22353 212.88353,168.24353 212.12353,170.61353 210.78353,174.81353 202.69353,177.48353 198.82353,178.45353 187.99353,181.16353 186.67353,179.82353 176.82353,176.14353 174.22353,175.17353 170.25353,173.83353 168.14353,172.12353 165.73353,170.17353 161.60353,163.66353 159.82353,160.82353 163.32353,157.09353 172.18353,147.13353 176.82353,146.17353 Z"
                           id="path829"
                           inkscape:connector-curvature="0" />
             <path
                           style="fill:none;fill-opacity:1;stroke:#000000;stroke-width:0.99975002;stroke-miterlimit:4;stroke-dasharray:none;stroke-opacity:1"
                           d="M 118.82353,218.63353 C 115.13353,221.55353 106.85353,225.79353 104.46353,218.63353 103.17353,214.96353 106.77353,209.79353 108.86353,206.82353 108.86353,206.82353 129.02353,182.82353 129.02353,182.82353 132.84353,175.80353 127.60353,174.47353 132.24353,167.82353 134.60353,164.43353 140.43353,156.82353 144.82353,157.03353 151.52353,157.36353 164.39353,165.56353 164.51353,172.82353 164.54353,174.71353 158.05353,185.75353 156.41353,187.08353 153.33353,189.57353 144.85353,188.82353 140.82353,188.82353 138.83353,196.15353 124.79353,213.54353 118.82353,218.63353 Z"
                           id="path827"
                           inkscape:connector-curvature="0" />
             <path
                           style="fill:none;fill-opacity:1;stroke:#000000;stroke-width:0.99975002;stroke-miterlimit:4;stroke-dasharray:none;stroke-opacity:1"
                           d="M 268.18353,164.91353 C 270.07353,170.64353 263.50353,175.80353 258.82353,177.35353 250.14353,180.23353 246.08353,178.32353 242.82353,169.82353 242.82353,169.82353 257.82353,155.82353 257.82353,155.82353 261.05353,157.55353 266.98353,161.30353 268.18353,164.91353 Z"
                           id="path825"
                           inkscape:connector-curvature="0" />
             <path
                           style="fill:none;fill-opacity:1;stroke:#000000;stroke-width:0.99975002;stroke-miterlimit:4;stroke-dasharray:none;stroke-opacity:1"
                           d="M 216.82353,172.57353 C 216.82353,172.57353 225.82353,172.57353 225.82353,172.57353 225.82353,172.57353 240.82353,170.82353 240.82353,170.82353 242.63353,174.58353 246.30353,179.58353 245.27353,183.82353 242.29353,196.08353 220.77353,197.93353 215.09353,194.51353 211.65353,192.43353 207.89353,181.79353 206.82353,177.82353 206.82353,177.82353 216.82353,172.57353 216.82353,172.57353 Z"
                           id="path823"
                           inkscape:connector-curvature="0" />
             <path
                           style="fill:none;fill-opacity:1;stroke:#000000;stroke-width:0.99975002;stroke-miterlimit:4;stroke-dasharray:none;stroke-opacity:1"
                           d="M 186.82353,181.82353 C 186.20353,186.24353 184.54353,195.31353 180.60353,197.83353 176.00353,200.78353 162.27353,199.04353 160.97353,189.82353 160.10353,183.65353 163.79353,179.67353 166.82353,174.82353 166.82353,174.82353 186.82353,181.82353 186.82353,181.82353 Z"
                           id="path821"
                           inkscape:connector-curvature="0" />
             <path
                           style="fill:none;fill-opacity:1;stroke:#000000;stroke-width:0.99975002;stroke-miterlimit:4;stroke-dasharray:none;stroke-opacity:1"
                           d="M 204.17353,180.85353 C 206.49353,182.36353 210.89353,193.08353 210.12353,195.78353 209.04353,199.54353 203.39353,201.99353 199.82353,202.45353 191.12353,203.59353 185.89353,198.49353 187.63353,189.82353 187.99353,188.01353 188.51353,185.60353 189.67353,184.13353 191.68353,181.61353 197.63353,180.95353 200.78353,180.33353 202.13353,180.34353 202.86353,180.00353 204.17353,180.85353 Z"
                           id="Selection #1"
                           inkscape:connector-curvature="0" />
</svg>
